<svg xmlns="http://www.w3.org/2000/svg" width="51" height="51" viewBox="0 0 51 51"><defs><style>.a,.d{fill:none;}.a{stroke:#225474;stroke-width:2px;}.b{fill:#205072;}.c{stroke:none;}</style></defs><g transform="translate(-65 -631)"><g class="a" transform="translate(65 631)"><circle class="c" cx="25.5" cy="25.5" r="25.5"/><circle class="d" cx="25.5" cy="25.5" r="24.5"/></g><path class="b" d="M15.859,9.479l.842.842a.907.907,0,0,1,0,1.286L9.328,18.984a.907.907,0,0,1-1.286,0L.665,11.608a.907.907,0,0,1,0-1.286l.842-.842a.912.912,0,0,1,1.3.015l4.356,4.573V3.161a.909.909,0,0,1,.911-.911H9.29a.909.909,0,0,1,.911.911V14.067l4.356-4.573a.905.905,0,0,1,1.3-.015Z" transform="translate(82.263 645.748)"/></g></svg>