<svg xmlns="http://www.w3.org/2000/svg" width="24.192" height="48.001" viewBox="0 0 24.192 48.001"><defs><style>.a{fill:#56c596;}</style></defs><path class="a" d="M24.192,48h-.221A23.973,23.973,0,0,1,0,24,23.96,23.96,0,0,1,23.972,0h.221V4.132a21.046,21.046,0,0,0-6.841,1.532A20.58,20.58,0,0,0,10.8,9.929a19.82,19.82,0,0,0-4.414,6.326,19.338,19.338,0,0,0,0,15.492A19.81,19.81,0,0,0,10.8,38.071a20.585,20.585,0,0,0,6.548,4.265,21.043,21.043,0,0,0,6.841,1.532V48Z" transform="translate(24.192 48.001) rotate(180)"/></svg>