<svg id="color" height="512" viewBox="0 0 24 24" width="512" xmlns="http://www.w3.org/2000/svg"><path d="m6.645 24h-3.895c-.414 0-.75-.336-.75-.75v-.152c0-2.587 1.109-4.978 3.043-6.56 4.587-3.751 3.855-9.315 3.788-9.761-1.147-.888-1.831-2.257-1.831-3.749v-2.278c0-.414.336-.75.75-.75h3.763c.414 0 .75.336.75.75v.331c0 .942.598 1.775 1.486 2.073l2.149.899c3.706 1.553 6.102 5.163 6.102 9.197 0 3.458-1.743 6.618-4.662 8.452-2.36 1.48-5.376 1.272-7.508-.513l-.173-.146c-.327-.273-.763-.353-1.168-.21-.403.142-.693.477-.777.896l-.332 1.667c-.069.352-.378.604-.735.604z" fill="#ffcc80"/><path d="m11.37 9.49c-.18.33-.52.51-.87.51-.17 0-.33-.04-.49-.13l-1.16-.65c.12-1.18.021-2.152-.019-2.442 0 0-.161.041 2.159 1.353.48.269.65.879.38 1.359z" fill="#ffa726"/><path d="m13.807 19c-.612 0-1.227-.114-1.811-.344l-.911-.361c-.681-.269-1.105-.912-1.084-1.638.021-.727.484-1.343 1.179-1.572 1.144-.377 1.971-1.384 2.105-2.564.093-.806.529-1.536 1.199-2.003.678-.472 1.527-.632 2.334-.435 1.494.364 2.428 1.822 2.126 3.317v.001l-.348 1.714c-.257 1.267-.996 2.359-2.083 3.076-.813.535-1.756.809-2.706.809zm4.402-5.748h.01z" fill="#cfd8dc"/><path d="m9.821 0h-2.071c-.414 0-.75.336-.75.75v2.278c0 1.492.684 2.861 1.831 3.749.001.005.001.01.002.016.035.054.31.293 2.157 1.337.479.27.649.88.38 1.36-.18.33-.52.51-.87.51-.17 0-.33-.04-.49-.13l-1.152-.646c-.198 2.064-1.018 5.026-3.815 7.314-1.934 1.582-3.043 3.972-3.043 6.56v.152c0 .414.336.75.75.75h1.805c-.233-2.587.458-4.933 3.698-5 1.244-.026 2.337-.216 3.293-.523l-.461-.182c-.681-.269-1.105-.912-1.084-1.638.021-.727.484-1.343 1.179-1.572 1.144-.377 1.971-1.384 2.105-2.564.093-.806.529-1.536 1.199-2.003.487-.34 1.064-.517 1.649-.517.229 0 .459.027.685.082.104.025.206.056.304.092-.711-1.384-2.746-1.782-5.122-3.175-2.036-1.194-2.55-5.025-2.679-7z" fill="#deb26f"/><path d="m8.833 6.792c.041.308.135 1.268.017 2.428l.008.005 1.152.645c.16.09.32.13.49.13.35 0 .69-.18.87-.51.27-.48.1-1.09-.38-1.36-1.847-1.044-2.121-1.283-2.157-1.338 0 .001 0 .001 0 0zm-.002-.015s-.007.002.002.015c-.001-.005-.001-.01-.002-.015z" fill="#de9121"/><path d="m16.133 10.001c-.585 0-1.161.178-1.649.517-.67.467-1.106 1.197-1.199 2.003-.135 1.181-.962 2.187-2.105 2.564-.694.229-1.157.845-1.179 1.572-.022.726.403 1.369 1.084 1.638l.461.182c4.643-1.492 6.042-5.758 5.822-7.49-.039-.307-.122-.574-.245-.813-.098-.036-.2-.066-.304-.092-.227-.054-.457-.081-.686-.081z" fill="#b4bcc0"/></svg>