<?xml version="1.0" encoding="iso-8859-1"?>
<!-- Generator: Adobe Illustrator 19.0.0, SVG Export Plug-In . SVG Version: 6.00 Build 0)  -->
<svg version="1.1" id="Capa_1" xmlns="http://www.w3.org/2000/svg" xmlns:xlink="http://www.w3.org/1999/xlink" x="0px" y="0px"
	 viewBox="0 0 496.485 496.485" style="enable-background:new 0 0 496.485 496.485;" xml:space="preserve">
<circle style="fill:#FDBF5E;" cx="248.242" cy="248.242" r="248.242"/>
<rect x="63.88" y="124.917" transform="matrix(-0.7074 0.7068 -0.7068 -0.7074 216.0901 175.8954)" style="fill:#193651;" width="15.515" height="15.515"/>
<rect x="92.984" y="94.93" transform="matrix(-0.7073 0.7069 -0.7069 -0.7073 244.5867 104.1044)" style="fill:#193651;" width="15.515" height="15.515"/>
<rect x="123.186" y="65.009" transform="matrix(-0.7069 0.7073 -0.7073 -0.7069 274.9767 31.5889)" style="fill:#193651;" width="15.515" height="15.515"/>
<rect x="446.061" y="289.358" style="fill:#193651;" width="15.515" height="15.515"/>
<rect x="446.061" y="247.467" style="fill:#193651;" width="15.515" height="15.515"/>
<rect x="446.061" y="205.576" style="fill:#193651;" width="15.515" height="15.515"/>
<rect x="198.594" y="453.042" style="fill:#193651;" width="15.515" height="15.515"/>
<rect x="240.485" y="453.042" style="fill:#193651;" width="15.515" height="15.515"/>
<rect x="282.376" y="453.042" style="fill:#193651;" width="15.515" height="15.515"/>
<path style="fill:#FFFFFF;" d="M54.303,409.6h352.97V51.2L54.303,409.6z M336.679,339.006H222.642l114.036-115.588V339.006z"/>
<path style="fill:#193651;" d="M407.273,417.358H54.303c-3.103,0-6.206-1.552-6.982-4.655c-1.552-3.103-0.776-6.206,1.552-8.533
	l352.97-358.4c2.327-2.327,5.43-3.103,8.533-1.552c3.103,1.552,4.655,3.879,4.655,6.982v358.4
	C415.03,414.255,411.152,417.358,407.273,417.358z M72.921,401.842h326.594V69.818L72.921,401.842z M336.679,346.764H222.642
	c-3.103,0-6.206-1.552-6.982-4.655c-1.552-3.103-0.776-6.206,1.552-8.533l114.036-115.588c2.327-2.327,5.43-3.103,8.533-1.552
	s4.655,3.879,4.655,6.982v115.588C344.436,343.661,340.558,346.764,336.679,346.764z M241.261,331.249h87.661v-88.436
	L241.261,331.249z"/>
<path style="fill:#E1E6E9;" d="M110.158,386.327h273.067V108.606L110.158,386.327z M336.679,339.006H222.642l114.036-115.588
	V339.006z"/>
<path style="fill:#FFFFFF;" d="M336.679,339.006H222.642l114.036-115.588V339.006z"/>
<g>
	<path style="fill:#193651;" d="M336.679,346.764H222.642c-3.103,0-6.206-1.552-6.982-4.655c-1.552-3.103-0.776-6.206,1.552-8.533
		l114.036-115.588c2.327-2.327,5.43-3.103,8.533-1.552s4.655,3.879,4.655,6.982v115.588
		C344.436,343.661,340.558,346.764,336.679,346.764z M241.261,331.249h87.661v-88.436L241.261,331.249z"/>
	<path style="fill:#193651;" d="M407.273,379.345H384c-4.655,0-7.758-3.103-7.758-7.758c0-4.655,3.103-7.758,7.758-7.758h23.273
		c4.655,0,7.758,3.103,7.758,7.758C415.03,376.242,411.152,379.345,407.273,379.345z"/>
	<path style="fill:#193651;" d="M407.273,337.455H389.43c-4.655,0-7.758-3.103-7.758-7.758c0-4.655,3.103-7.758,7.758-7.758h17.842
		c4.655,0,7.758,3.103,7.758,7.758C415.03,334.352,411.152,337.455,407.273,337.455z"/>
	<path style="fill:#193651;" d="M407.273,296.339H384c-4.655,0-7.758-3.103-7.758-7.758c0-4.655,3.103-7.758,7.758-7.758h23.273
		c4.655,0,7.758,3.103,7.758,7.758C415.03,293.236,411.152,296.339,407.273,296.339z"/>
	<path style="fill:#193651;" d="M407.273,255.224H389.43c-4.655,0-7.758-3.103-7.758-7.758c0-4.655,3.103-7.758,7.758-7.758h17.842
		c4.655,0,7.758,3.103,7.758,7.758C415.03,251.345,411.152,255.224,407.273,255.224z"/>
	<path style="fill:#193651;" d="M407.273,214.109H384c-4.655,0-7.758-3.103-7.758-7.758c0-4.655,3.103-7.758,7.758-7.758h23.273
		c4.655,0,7.758,3.103,7.758,7.758C415.03,210.23,411.152,214.109,407.273,214.109z"/>
	<path style="fill:#193651;" d="M407.273,172.218H389.43c-4.655,0-7.758-3.103-7.758-7.758c0-4.655,3.103-7.758,7.758-7.758h17.842
		c4.655,0,7.758,3.103,7.758,7.758C415.03,169.115,411.152,172.218,407.273,172.218z"/>
	<path style="fill:#193651;" d="M407.273,131.103H384c-4.655,0-7.758-3.103-7.758-7.758c0-4.655,3.103-7.758,7.758-7.758h23.273
		c4.655,0,7.758,3.103,7.758,7.758C415.03,128,411.152,131.103,407.273,131.103z"/>
</g>
<rect x="116.864" y="88.43" transform="matrix(-0.7071 -0.7071 0.7071 -0.7071 143.0919 419.2084)" style="fill:#FFFFFF;" width="83.005" height="183.077"/>
<path style="fill:#193651;" d="M123.345,281.6c-2.327,0-3.879-0.776-5.43-2.327l-58.958-58.958c-3.103-3.103-3.103-7.758,0-10.861
	L188.509,79.903c3.103-3.103,7.758-3.103,10.861,0l58.958,58.958c1.552,1.552,2.327,3.103,2.327,5.43s-0.776,3.879-2.327,5.43
	L128.776,279.273C127.224,280.824,124.897,281.6,123.345,281.6z M75.248,214.885l48.097,48.097l118.691-118.691l-48.097-48.097
	L75.248,214.885z"/>
<rect x="91.568" y="166.138" transform="matrix(0.7071 -0.7071 0.7071 0.7071 -80.8774 164.9473)" style="fill:#4FBF9F;" width="134.205" height="27.927"/>
<path style="fill:#F16051;" d="M287.806,86.109L252.897,51.2c-6.206-6.206-17.067-6.206-23.273,0l-35.685,34.133l58.958,58.958
	l34.909-34.909C294.012,102.4,294.012,92.315,287.806,86.109z"/>
<path style="fill:#193651;" d="M252.897,152.048c-2.327,0-3.879-0.776-5.43-2.327l-58.958-58.958
	c-1.551-1.552-2.327-3.103-2.327-5.43s0.776-3.879,2.327-5.43l34.909-34.909c9.309-9.309,25.6-9.309,34.133,0l34.909,34.909
	c9.309,9.309,9.309,24.824,0,34.133l-34.909,34.909C256.776,151.273,254.448,152.048,252.897,152.048z M204.8,85.333l48.097,48.097
	l29.479-29.479c3.103-3.103,3.103-9.309,0-12.412L247.467,56.63c-3.103-3.103-9.309-3.103-12.412,0L204.8,85.333z"/>
<polygon style="fill:#FFFFFF;" points="123.345,273.842 41.891,295.564 64.388,214.885 "/>
<g>
	<path style="fill:#193651;" d="M36.461,301.77c-2.327-2.327-3.103-4.655-2.327-7.758l22.497-80.679
		c0.776-2.327,3.103-4.655,5.43-5.43c2.327-0.776,5.43,0,7.758,2.327l58.958,58.958c2.327,2.327,3.103,4.655,2.327,7.758
		c-0.776,2.327-3.103,4.655-5.43,5.43l-81.455,20.945C41.115,304.097,38.788,303.321,36.461,301.77z M68.267,229.624l-14.739,55.079
		l55.079-14.739L68.267,229.624z"/>
	<polygon style="fill:#193651;" points="73.697,287.03 41.891,295.564 51.2,264.533 	"/>
	<path style="fill:#193651;" d="M36.461,301.77c-2.327-2.327-3.103-4.655-2.327-7.758l8.533-31.806
		c0.776-2.327,3.103-4.655,5.43-5.43c2.327-0.776,5.43,0,7.758,2.327l23.273,23.273c2.327,2.327,3.103,4.655,2.327,7.758
		c-0.776,2.327-3.103,4.655-5.43,5.43l-31.806,8.533C41.115,304.097,38.788,303.321,36.461,301.77z M55.079,279.273l-1.552,5.43
		l5.43-1.552L55.079,279.273z"/>
</g>
<g>
</g>
<g>
</g>
<g>
</g>
<g>
</g>
<g>
</g>
<g>
</g>
<g>
</g>
<g>
</g>
<g>
</g>
<g>
</g>
<g>
</g>
<g>
</g>
<g>
</g>
<g>
</g>
<g>
</g>
</svg>
