<svg height="512" viewBox="0 0 64 64" width="512" xmlns="http://www.w3.org/2000/svg"><g id="Fill_Outline" data-name="Fill Outline"><g id="Color"><g><path d="m36 45.2v-2.2h-8v2.2a3.37 3.37 0 0 1 -1.5 2.8 3.37 3.37 0 0 0 -1.5 2.8v8.2a2 2 0 0 0 2 2h10a2 2 0 0 0 2-2v-8.2a3.37 3.37 0 0 0 -1.5-2.8 3.37 3.37 0 0 1 -1.5-2.8z" fill="#aae1f9"/><path d="m26 39h12v4h-12z" fill="#c4f236"/><g><path d="m44.119 27.673-3.759-1.368.7-1.932a37.876 37.876 0 0 0 2.04-17.29l11.277 4.1a37.872 37.872 0 0 0 -9.554 14.554z" fill="#a1d51c"/><path d="m43.1 7.082a37.69 37.69 0 0 1 .2 5.882 1.927 1.927 0 0 0 1.865 1.359 2.983 2.983 0 0 0 1.8 1.852 37.876 37.876 0 0 0 -3.148 6.565 2.056 2.056 0 0 1 -2.617 1.232c-.047.133-.085.268-.133.4l-.7 1.932 3.759 1.368.7-1.932a37.872 37.872 0 0 1 9.554-14.554z" fill="#7ab92d"/><path d="m56.3 11.617a1.994 1.994 0 1 0 -.729-3.917 3.987 3.987 0 0 0 -6.771-3.5 2.977 2.977 0 0 0 -5.013 1 3 3 0 1 0 .424 5.431 1.961 1.961 0 0 0 1.96 1.689 2.982 2.982 0 0 0 4.61 1.443 2.994 2.994 0 1 0 5.519-2.146z" fill="#c4f236"/><path d="m54.666 13.885a2.992 2.992 0 0 1 -1.889-2.119 2.982 2.982 0 0 1 -4.61-1.443 1.961 1.961 0 0 1 -1.96-1.689 2.979 2.979 0 0 1 -4.307-3.475 2.99 2.99 0 1 0 2.31 5.475 1.961 1.961 0 0 0 1.96 1.689 2.982 2.982 0 0 0 4.61 1.443 3 3 0 0 0 5.734.326c.019-.053.023-.108.039-.162a2.97 2.97 0 0 1 -1.887-.045z" fill="#a1d51c"/></g><g><path d="m22.063 13.429-4-6.929a7 7 0 1 0 -5.2 10.449 4.99 4.99 0 1 0 9.2-3.52z" fill="#f89c8d"/><circle cx="12" cy="10" fill="#aae1f9" r="2"/><path d="m21.232 17.259a4.939 4.939 0 0 1 -7.372-3.31 6.992 6.992 0 0 1 -7.822-7.618 7 7 0 0 0 6.822 10.618 4.976 4.976 0 0 0 9.852-.994 4.976 4.976 0 0 1 -1.48 1.304z" fill="#f8664f"/></g><g><rect fill="#f9e109" height="8" rx="3" transform="matrix(.5 .866 -.866 .5 22.696 -21.114)" width="12" x="23.633" y="5.099"/><path d="m34.5 10.8a5 5 0 0 1 -6.831-1.83l-2-3.465a2.933 2.933 0 0 1 -.306-.806 2.993 2.993 0 0 0 -.694 3.801l3 5.2a3 3 0 0 0 4.1 1.1l1.733-1a2.992 2.992 0 0 0 1.398-3.3 2.971 2.971 0 0 1 -.4.3z" fill="#fcbc04"/></g><g><circle cx="30" cy="29" fill="#f9e109" r="5"/><path d="m33 20h3a0 0 0 0 1 0 0 4 4 0 0 1 -4 4h-2a0 0 0 0 1 0 0v-1a3 3 0 0 1 3-3z" fill="#c4f236"/><path d="m32 32a5 5 0 0 1 -5-5 4.95 4.95 0 0 1 .625-2.375 4.984 4.984 0 1 0 6.75 6.75 4.95 4.95 0 0 1 -2.375.625z" fill="#fcbc04"/><path d="m32 22h-1.816a2.962 2.962 0 0 0 -.184 1v1h2a4 4 0 0 0 4-4h-.555a3.982 3.982 0 0 1 -3.445 2z" fill="#a1d51c"/></g><path d="m35.2 58a7.2 7.2 0 0 1 -7.2-7.2 3.37 3.37 0 0 1 1.5-2.8 3.37 3.37 0 0 0 1.5-2.8v-.2h5v-2h-8v2.2a3.37 3.37 0 0 1 -1.5 2.8 3.37 3.37 0 0 0 -1.5 2.8v8.2a2 2 0 0 0 2 2h10a2 2 0 0 0 2-2v-1z" fill="#57b7eb"/></g></g><g id="Outlines_copy" data-name="Outlines copy"><g fill="#323232"><path d="m36.945 48.832a2.365 2.365 0 0 1 1.055 1.968 1 1 0 0 0 2 0 4.362 4.362 0 0 0 -1.945-3.635 2.365 2.365 0 0 1 -1.055-1.965v-1.2h1a1 1 0 0 0 1-1v-4a1 1 0 0 0 -1-1h-12a1 1 0 0 0 -1 1v4a1 1 0 0 0 1 1h1v1.2a2.365 2.365 0 0 1 -1.055 1.971 4.362 4.362 0 0 0 -1.945 3.629v8.2a3 3 0 0 0 3 3h10a3 3 0 0 0 3-3v-4a1 1 0 0 0 -2 0v4a1 1 0 0 1 -1 1h-10a1 1 0 0 1 -1-1v-8.2a2.365 2.365 0 0 1 1.055-1.971 4.362 4.362 0 0 0 1.945-3.629v-1.2h6v1.2a4.362 4.362 0 0 0 1.945 3.632zm-8.945-6.832h-1v-2h10v2z"/><path d="m31.445 57.832a1 1 0 0 0 1.387-.277l2-3a1 1 0 0 0 -.832-1.555h-2.132l.964-1.445a1 1 0 0 0 -1.664-1.11l-2 3a1 1 0 0 0 .832 1.555h2.132l-.964 1.445a1 1 0 0 0 .277 1.387z"/><path d="m24.741 36.671a1 1 0 0 0 -.07-1.412l-21-19a1 1 0 0 0 -1.342 1.482l21 19a1 1 0 0 0 1.412-.07z"/><path d="m61.741 16.329a1 1 0 0 0 -1.412-.07l-21 19a1 1 0 1 0 1.342 1.482l21-19a1 1 0 0 0 .07-1.412z"/><path d="m41.389 11.78a3.889 3.889 0 0 0 .934.207 36.671 36.671 0 0 1 -2.2 12.044l-.7 1.932a1 1 0 1 0 1.879.683l.7-1.931a38.63 38.63 0 0 0 2.314-12.036 2.922 2.922 0 0 0 .83.468 2.581 2.581 0 0 0 .335.1 3.971 3.971 0 0 0 .454.666l-.535 1.458a1 1 0 1 0 1.879.684l.342-.941a3.96 3.96 0 0 0 1.729.212 38.761 38.761 0 0 0 -5.468 10.074l-.7 1.932a1 1 0 1 0 1.879.684l.7-1.932a36.8 36.8 0 0 1 5.45-9.885 3.986 3.986 0 0 0 6.373-4.009 2.977 2.977 0 0 0 1.235-1.514 1 1 0 0 0 -1.881-.684.983.983 0 0 1 -.788.638 1 1 0 0 0 -.721 1.473 1.964 1.964 0 0 1 .142 1.648 1.98 1.98 0 0 1 -3.52.431l-.009-.013a1.989 1.989 0 0 1 -.293-.637 1 1 0 0 0 -1.566-.57 2.008 2.008 0 0 1 -1.874.274 1.987 1.987 0 0 1 -1.196-1.236 1 1 0 0 0 -.946-.676.939.939 0 0 1 -.335-.053.983.983 0 0 1 -.638-.79 1 1 0 0 0 -1.473-.718 1.992 1.992 0 0 1 -2.843-2.423 2 2 0 0 1 2.563-1.2 1 1 0 0 0 1.282-.6 2 2 0 0 1 2.565-1.2 1.954 1.954 0 0 1 .773.528 1 1 0 0 0 .718.322.949.949 0 0 0 .729-.3 2.988 2.988 0 0 1 5.079 2.62 1 1 0 1 0 1.969.354 4.986 4.986 0 0 0 -7.756-4.964 3.772 3.772 0 0 0 -.832-.424 4.008 4.008 0 0 0 -4.724 1.58 4 4 0 0 0 -1.858 7.729z"/><path d="m12 18h.118a5.412 5.412 0 0 0 .422.928 5.969 5.969 0 0 0 3.644 2.8 6.046 6.046 0 0 0 1.562.207 6.006 6.006 0 0 0 5.187-9l-1.984-3.435a1 1 0 0 0 -1.732 1l1.983 3.429a4 4 0 1 1 -7.357 2.814 1 1 0 0 0 -1.1-.786 6 6 0 1 1 4.457-8.957 1 1 0 0 0 1.733-1 8 8 0 1 0 -6.933 12z"/><path d="m9 10a3 3 0 1 0 3-3 3 3 0 0 0 -3 3zm4 0a1 1 0 1 1 -1-1 1 1 0 0 1 1 1z"/><path d="m26.8 14.2a4 4 0 0 0 5.465 1.465l1.731-1a4.008 4.008 0 0 0 1.468-5.465l-2.5-4.328-.5-.872a4 4 0 0 0 -5.464-1.464l-1.731 1a4 4 0 0 0 -1.469 5.464zm-.535-8.927 1.731-1a2 2 0 0 1 2.735.727l-1.731 1a1 1 0 1 0 1 1.732l1.732-1 1 1.733-1.732 1a1 1 0 1 0 1 1.735l1.733-1a2 2 0 0 1 -.733 2.729l-1.731 1a2 2 0 0 1 -2.733-.733l-3.001-5.196a2 2 0 0 1 .733-2.731z"/><path d="m31 19.556v-.556a1 1 0 0 0 -2 0v4.09a6.009 6.009 0 1 0 5.025 1.473 5 5 0 0 0 2.975-4.563 1 1 0 0 0 -1-1h-3a3.959 3.959 0 0 0 -2 .556zm-1 13.444a4 4 0 1 1 4-4 4 4 0 0 1 -4 4zm2-10h-1a2 2 0 0 1 2-2h1.829a3.006 3.006 0 0 1 -2.829 2z"/><circle cx="29" cy="30" r="1"/><circle cx="38" cy="16" r="1"/><circle cx="35" cy="35" r="1"/><circle cx="19" cy="25" r="1"/><circle cx="20" cy="3" r="1"/></g></g></g></svg>