<?xml version="1.0" encoding="iso-8859-1"?>
<!-- Generator: Adobe Illustrator 19.0.0, SVG Export Plug-In . SVG Version: 6.00 Build 0)  -->
<svg version="1.1" id="Capa_1" xmlns="http://www.w3.org/2000/svg" xmlns:xlink="http://www.w3.org/1999/xlink" x="0px" y="0px"
	 viewBox="0 0 511.928 511.928" style="enable-background:new 0 0 511.928 511.928;" xml:space="preserve">
<g>
	<path style="fill:#A4C2F7;" d="M106.348,418.049l79.917,79.917c8.434,7.707,21.512,7.142,29.25-1.263l249.24-247.373l8.223-190.437
		L106.348,418.049z"/>
	<path style="fill:#FFFFFF;" d="M97.371,401.019l-79.917-79.917c-7.707-8.434-7.142-21.512,1.263-29.25l247.372-249.24
		l190.437-8.223L97.371,401.019z"/>
	<path style="fill:#D4E1F4;" d="M178.59,482.24L32.861,336.511c-6.939-8.455-5.815-20.912,2.526-27.987L282.844,59.368
		l182.215-16.445l-17.152,190.041l-241.33,246.751C199.502,488.055,187.045,489.179,178.59,482.24z"/>
	<circle style="fill:#FFFFFF;" cx="379.418" cy="127.944" r="34.133"/>
	<g>
		<path style="fill:#428DFF;" d="M208.975,511.928c-7.975,0.012-15.625-3.155-21.258-8.8L13.075,328.486
			c-11.756-11.761-11.756-30.823,0-42.583l155.791-157.067c2.147-2.165,5.285-3.02,8.233-2.243c2.948,0.777,5.257,3.067,6.059,6.008
			s-0.027,6.087-2.174,8.251L25.167,297.944c-5.103,5.097-5.114,13.364-0.025,18.475l174.642,174.642c5.1,5.083,13.35,5.083,18.45,0
			l238.292-244.725V51.144H269.958l-39.817,40.142c-3.318,3.346-8.721,3.368-12.067,0.05c-3.346-3.318-3.368-8.721-0.05-12.067
			l44.816-45.192h210.75v219.192L230.383,503.044C224.714,508.737,217.009,511.935,208.975,511.928z"/>
		<circle style="fill:#428DFF;" cx="200.525" cy="110.878" r="8.533"/>
		<path style="fill:#428DFF;" d="M379.725,170.611c-23.564,0-42.667-19.103-42.667-42.667s19.103-42.667,42.667-42.667
			c23.564,0,42.667,19.103,42.667,42.667C422.364,151.497,403.278,170.583,379.725,170.611z M379.725,102.344
			c-14.138,0-25.6,11.462-25.6,25.6s11.462,25.6,25.6,25.6c14.138,0,25.6-11.462,25.6-25.6
			C405.31,113.812,393.857,102.36,379.725,102.344z"/>
		<path style="fill:#428DFF;" d="M379.725,136.478c-3.451-0.001-6.562-2.08-7.882-5.268c-1.32-3.188-0.591-6.858,1.849-9.298
			L493.159,2.445c3.341-3.281,8.701-3.256,12.012,0.054c3.311,3.311,3.335,8.671,0.054,12.012L385.758,133.977
			C384.16,135.58,381.989,136.48,379.725,136.478z"/>
	</g>
</g>
<g>
</g>
<g>
</g>
<g>
</g>
<g>
</g>
<g>
</g>
<g>
</g>
<g>
</g>
<g>
</g>
<g>
</g>
<g>
</g>
<g>
</g>
<g>
</g>
<g>
</g>
<g>
</g>
<g>
</g>
</svg>
