<svg id="Capa_1" enable-background="new 0 0 512 512" height="512" viewBox="0 0 512 512" width="512" xmlns="http://www.w3.org/2000/svg"><g><path d="m412.093 235.705-13.526 104.069 13.526 104.059v26.537c0 22.994-18.636 41.63-41.619 41.63h-228.948c-22.983 0-41.619-18.636-41.619-41.63v-26.537l22.612-91.047-22.612-117.08v-35.304c0-11.044 4.378-21.634 12.187-29.443l33.749-33.738c3.904-3.904 6.088-9.2 6.088-14.721v-39.25h208.138v39.25c0 5.522 2.184 10.817 6.088 14.721l33.749 33.738c7.809 7.809 12.187 18.399 12.187 29.443z" fill="#e7a561"/><path d="m412.093 235.705-13.526 104.069 13.526 104.059v26.537c0 22.994-18.636 41.63-41.619 41.63h-27.063c22.994 0 41.63-18.636 41.63-41.63v-259.276c0-11.033-4.389-21.623-12.187-29.432l-33.749-33.738c-3.904-3.904-6.099-9.2-6.099-14.721v-49.954h27.063v39.25c0 5.522 2.184 10.817 6.088 14.721l33.749 33.738c7.809 7.809 12.187 18.399 12.187 29.443z" fill="#e49542"/><path d="m99.902 235.707h312.195v208.13h-312.195z" fill="#e4f6ff"/><path d="m385.041 235.707h27.057v208.13h-27.057z" fill="#b1e4f9"/><path d="m370.472 83.252h-228.944c-5.747 0-10.407-4.659-10.407-10.407v-62.438c.001-5.748 4.66-10.407 10.407-10.407h228.943c5.747 0 10.406 4.659 10.406 10.407v62.439c.001 5.747-4.658 10.406-10.405 10.406z" fill="#e4f6ff"/><path d="m370.472 0h-21.854c5.747 0 10.406 4.659 10.406 10.407v62.439c0 5.747-4.659 10.407-10.406 10.407h21.854c5.747 0 10.406-4.659 10.406-10.407v-62.439c0-5.748-4.659-10.407-10.406-10.407z" fill="#b1e4f9"/><g><path d="m343.519 402.732h-185.445c-5.69 0-10.302-4.612-10.302-10.302v-12.697c0-5.69 4.612-10.302 10.302-10.302h185.445c5.69 0 10.302 4.612 10.302 10.302v12.697c0 5.689-4.612 10.302-10.302 10.302z" fill="#ffe07d"/></g><g><path d="m347.577 57.678c-4.268 0-7.726-3.459-7.726-7.726v-16.65c0-4.267 3.459-7.726 7.726-7.726s7.726 3.459 7.726 7.726v16.65c.001 4.266-3.458 7.726-7.726 7.726z" fill="#b1e4f9"/></g><g><path d="m301.789 57.678c-4.268 0-7.726-3.459-7.726-7.726v-16.65c0-4.267 3.459-7.726 7.726-7.726s7.726 3.459 7.726 7.726v16.65c0 4.266-3.459 7.726-7.726 7.726z" fill="#b1e4f9"/></g><g><path d="m164.423 57.678c-4.267 0-7.726-3.459-7.726-7.726v-16.65c0-4.267 3.459-7.726 7.726-7.726s7.726 3.459 7.726 7.726v16.65c0 4.266-3.459 7.726-7.726 7.726z" fill="#b1e4f9"/></g><g><path d="m210.211 57.678c-4.267 0-7.726-3.459-7.726-7.726v-16.65c0-4.267 3.459-7.726 7.726-7.726s7.726 3.459 7.726 7.726v16.65c.001 4.266-3.459 7.726-7.726 7.726z" fill="#b1e4f9"/></g><g><path d="m256 57.678c-4.267 0-7.726-3.459-7.726-7.726v-16.65c0-4.267 3.459-7.726 7.726-7.726 4.268 0 7.726 3.459 7.726 7.726v16.65c0 4.266-3.458 7.726-7.726 7.726z" fill="#b1e4f9"/></g><g fill="#e7a561"><path d="m256 261.802c-4.267 0-7.726 3.459-7.726 7.726v66.602c0 4.267 3.459 7.726 7.726 7.726 4.268 0 7.726-3.459 7.726-7.726v-66.602c0-4.266-3.458-7.726-7.726-7.726z"/><path d="m225.662 262.318c-4.05-1.346-8.423.847-9.768 4.897l-15.966 48.062-16.759-48.282c-1.399-4.032-5.802-6.164-9.833-4.766-4.031 1.399-6.164 5.802-4.766 9.833l22.791 65.656c1.308 3.678 4.797 6.138 8.696 6.138h.065c3.925-.027 7.411-2.543 8.691-6.31l21.746-65.46c1.345-4.049-.847-8.422-4.897-9.768z"/><path d="m333.809 269.529c0-4.267-3.459-7.726-7.726-7.726h-36.782c-4.268 0-7.726 3.459-7.726 7.726s3.459 7.726 7.726 7.726h10.59v58.875c0 4.267 3.459 7.726 7.726 7.726s7.726-3.459 7.726-7.726v-58.875h10.739c4.268 0 7.727-3.459 7.727-7.726z"/><circle cx="342.374" cy="331.967" r="11.447"/></g></g></svg>