<svg width="17" height="18" viewBox="0 0 17 18" fill="none" xmlns="http://www.w3.org/2000/svg">
<path fill-rule="evenodd" clip-rule="evenodd" d="M6.46544 7.11215C7.5059 6.85381 8.29012 5.70788 8.29012 4.33333C8.29012 2.76853 7.27378 1.5 6.02006 1.5C4.76634 1.5 3.75 2.76853 3.75 4.33333C3.75 5.78423 4.62376 6.98041 5.75034 7.14688C5.64176 8.64607 5.44082 10.2471 5.01114 11.6667C4.25442 14.1667 4.50674 16.5 6.02009 16.5C7.53343 16.5 8.03788 14.6667 7.02896 11.6667C6.83029 11.0759 6.63882 9.11783 6.46544 7.11215Z" fill="#A5B8E0"/>
<ellipse cx="6.02005" cy="4.5" rx="1.26114" ry="2" fill="#D9E9FF"/>
<ellipse cx="6.02011" cy="14.4999" rx="0.756686" ry="1.66667" fill="#D9E9FF"/>
<path fill-rule="evenodd" clip-rule="evenodd" d="M11.457 1.75074C11.4726 1.60806 11.5931 1.5 11.7366 1.5C11.8801 1.5 12.0006 1.60806 12.0162 1.75074L12.2411 3.80769H12.25C12.3395 3.80769 12.4262 3.81945 12.5088 3.8415C12.5053 3.75703 12.5081 3.67233 12.5173 3.58812L12.7196 1.73707C12.7344 1.60217 12.8483 1.5 12.984 1.5C13.1309 1.5 13.25 1.61908 13.25 1.76597V4.80014C13.25 4.80266 13.25 4.80517 13.25 4.80769V5.77472C13.25 6.32701 12.8023 6.77472 12.25 6.77472H12.0526C12.2358 8.90494 12.4409 11.0923 12.6543 11.7198C13.6632 14.6868 13.1587 16.5 11.6454 16.5C10.1321 16.5 9.87974 14.1923 10.6365 11.7198C11.1124 10.1647 11.3077 8.38943 11.4077 6.77472H11.2233C10.671 6.77472 10.2233 6.32701 10.2233 5.77472V5.18463V4.80769V1.76597C10.2233 1.61908 10.3423 1.5 10.4892 1.5C10.6249 1.5 10.7389 1.60217 10.7536 1.73707L10.956 3.58812C10.9652 3.67233 10.968 3.75704 10.9645 3.8415C11.047 3.81945 11.1338 3.80769 11.2233 3.80769H11.2322L11.457 1.75074Z" fill="#A5B8E0"/>
<ellipse cx="11.6452" cy="14.5219" rx="0.756686" ry="1.64835" fill="#D9E9FF"/>
</svg>
