<svg width="25" height="25" viewBox="0 0 25 25" fill="none" xmlns="http://www.w3.org/2000/svg">
<path fill-rule="evenodd" clip-rule="evenodd" d="M12.7108 7.07204C12.7108 7.07204 15.2168 6.89587 16.1605 5.35942C17.1043 3.82296 16.1283 1.50806 16.1283 1.50806C16.1283 1.50806 13.6223 1.68423 12.6785 3.22068C11.7348 4.75713 12.7108 7.07204 12.7108 7.07204ZM12.8438 24.1004C16.1658 25.869 22.1219 20.5621 22.1219 15.7357C22.1219 10.9529 20.0059 6.85841 13.6023 8.06454C12.765 8.22226 11.8984 8.21425 11.0661 8.0317C4.17678 6.5207 2.5448 10.9309 2.5448 15.7357C2.5448 20.574 8.05338 25.4556 11.7742 24.0229C12.1201 23.8898 12.5166 23.9262 12.8438 24.1004Z" fill="#225474"/>
</svg>
