<svg width="24" height="25" viewBox="0 0 24 25" fill="none" xmlns="http://www.w3.org/2000/svg">
<g opacity="0.998">
<path opacity="0.998" d="M15.047 1.67139C14.2736 1.73996 13.5054 1.85859 12.7472 2.02654C8.55528 2.96457 3.32779 6.09829 3.32779 11.4152C3.32206 13.3093 4.00871 15.1396 5.25743 16.5587C5.48945 12.3128 7.22824 8.29116 10.1585 5.22294C11.5565 3.74683 13.2138 2.5428 15.047 1.67139V1.67139Z" fill="#225474"/>
<path opacity="0.998" d="M6.53003 23.2001C6.53003 23.2857 6.5468 23.3705 6.5794 23.4496C6.612 23.5287 6.65981 23.6005 6.72005 23.661C6.78029 23.7215 6.85179 23.7696 6.9305 23.8023C7.00922 23.8351 7.09358 23.8519 7.17878 23.8519C7.26398 23.8519 7.34834 23.8351 7.42705 23.8023C7.50576 23.7696 7.57727 23.7215 7.63751 23.661C7.69775 23.6005 7.74556 23.5287 7.77816 23.4496C7.81076 23.3705 7.82753 23.2857 7.82753 23.2001V19.9055C7.37906 19.7318 6.94519 19.5222 6.53003 19.2788V23.2001Z" fill="#225474"/>
<path opacity="0.998" d="M20.6487 2.25644C20.6095 2.12074 20.5274 2.00152 20.4149 1.91674C20.3024 1.83196 20.1655 1.78621 20.0249 1.78638C16.5943 1.9917 13.3841 3.55327 11.0962 6.12972C8.20401 9.15534 6.56816 13.1746 6.52161 17.3693V17.7099C6.61864 17.7809 6.71635 17.8505 6.81478 17.9188C8.30702 18.9028 10.091 19.3404 11.8667 19.1582C13.6424 18.9759 15.3014 18.1849 16.5648 16.9181C17.3742 15.9194 17.945 14.7476 18.2334 13.4927C18.5217 12.2379 18.52 10.9333 18.2283 9.67918C17.9892 6.96329 17.7833 4.62553 20.37 2.98137C20.4878 2.9066 20.5785 2.79574 20.6287 2.66518C20.6788 2.53463 20.6859 2.39131 20.6487 2.25644Z" fill="#225474"/>
</g>
</svg>
