<svg xmlns="http://www.w3.org/2000/svg" width="8.34" height="10.617" viewBox="0 0 8.34 10.617"><defs><style>.a{opacity:0.998;}.b{fill:#56c596;}</style></defs><g class="a"><path class="b" d="M60.336,0A8.682,8.682,0,0,0,59.23.17C57.214.619,54.7,2.119,54.7,4.664a3.7,3.7,0,0,0,.928,2.462A8.511,8.511,0,0,1,57.985,1.7,7.922,7.922,0,0,1,60.336,0Z" transform="translate(-54.702 0)"/><path class="b" d="M128.574,406.758a.312.312,0,1,0,.624,0v-1.577a4.329,4.329,0,0,1-.624-.3Z" transform="translate(-127.036 -396.453)"/><path class="b" d="M135.364,2.846a.312.312,0,0,0-.3-.225A6.253,6.253,0,0,0,130.77,4.7a7.894,7.894,0,0,0-2.2,5.38v0h0v.163q.07.051.141.1a3.736,3.736,0,0,0,4.689-.479,4.034,4.034,0,0,0,.8-3.465c-.115-1.3-.214-2.419,1.03-3.206A.312.312,0,0,0,135.364,2.846Z" transform="translate(-127.036 -2.566)"/></g></svg>