<svg width="17" height="18" viewBox="0 0 17 18" fill="none" xmlns="http://www.w3.org/2000/svg">
<g opacity="0.998">
<path opacity="0.998" d="M9.63601 3.5C9.26408 3.53282 8.89464 3.58961 8.53002 3.67C6.51402 4.119 4.00002 5.619 4.00002 8.164C3.99726 9.07065 4.32748 9.94675 4.92801 10.626C5.0396 8.59368 5.87582 6.66865 7.28502 5.2C7.95735 4.49344 8.75438 3.91711 9.63601 3.5V3.5Z" fill="#56C596"/>
<path opacity="0.998" d="M5.54004 13.805C5.54004 13.8459 5.5481 13.8865 5.56378 13.9244C5.57946 13.9622 5.60245 13.9966 5.63142 14.0256C5.6604 14.0545 5.69478 14.0776 5.73264 14.0932C5.77049 14.1089 5.81106 14.117 5.85204 14.117C5.89301 14.117 5.93358 14.1089 5.97144 14.0932C6.00929 14.0776 6.04368 14.0545 6.07265 14.0256C6.10162 13.9966 6.12461 13.9622 6.14029 13.9244C6.15597 13.8865 6.16403 13.8459 6.16403 13.805V12.228C5.94836 12.1448 5.7397 12.0445 5.54004 11.928V13.805Z" fill="#56C596"/>
<path opacity="0.998" d="M12.33 3.77993C12.3111 3.71498 12.2717 3.65791 12.2176 3.61733C12.1635 3.57675 12.0976 3.55485 12.03 3.55493C10.3802 3.65321 8.83634 4.40068 7.73601 5.63393C6.34511 7.08219 5.5584 9.00606 5.53601 11.0139V11.1769C5.58268 11.2109 5.62967 11.2443 5.677 11.2769C6.39465 11.7479 7.2526 11.9574 8.10657 11.8702C8.96053 11.783 9.7584 11.4043 10.366 10.7979C10.7552 10.3199 11.0297 9.75901 11.1684 9.15834C11.3071 8.55768 11.3063 7.93322 11.166 7.33293C11.051 6.03293 10.952 4.91393 12.196 4.12693C12.2526 4.09114 12.2962 4.03808 12.3204 3.97558C12.3445 3.91309 12.3479 3.84449 12.33 3.77993Z" fill="#56C596"/>
</g>
</svg>
