<svg id="Layer_1" height="512" viewBox="0 0 512 512" width="512" xmlns="http://www.w3.org/2000/svg" data-name="Layer 1"><path d="m347.52 408.89-178.46-1.07c-39.27 8.76-64.96 23.29-64.96 39.73 0 26.76 68.01 48.45 151.9 48.45s151.9-21.69 151.9-48.45c0-15.79-23.7-29.82-60.38-38.66z" fill="#7d8595"/><path d="m251 136.71v311.59l38-12.8 39-216.235 12.335-116.075z" fill="#7db8c6"/><path d="m251 16v120.71l89.31-33.52z" fill="#a5e2fb"/><path d="m156.51 103.19 26.49 184.12v.01l46 152.68 22 8.3v-311.59z" fill="#a5e2fb"/><path d="m156.47 103.19 94.53 33.52v-120.71z" fill="#bbefff"/><path d="m352.56 183.71-14.27 74.57 59.13-10.14z" fill="#6ad3ce"/><path d="m338.29 258.28-36.84 192.49 34.66-5.12 61.31-197.51z" fill="#46a5a2"/><path d="m283.85 226.4 54.44 31.88 14.27-74.57z" fill="#78f4f0"/><path d="m283.85 226.4-10.28 207.28 27.88 17.09 36.84-192.49z" fill="#53d8d8"/><path d="m211 297-.047-.017.047.327z" fill="#8abece"/><path d="m156.51 103.19 26.49 184.12v-.31l27.953 9.983-26.443-183.793z" fill="#8abece"/><path d="m251 51.826v-35.826l-94.53 87.19 28.056 9.948z" fill="#a6d6e2"/><path d="m215.95 298.04-36.43 24.79 34 139.85 21.6-13.97z" fill="#4aafac"/><path d="m166.365 268.65 13.163 54.18 36.441-24.79z" fill="#55d8d8"/><path d="m179.52 322.83-46.09-4.73 56.25 141.65 23.84 2.93z" fill="#a0eaea"/><path d="m166.35 268.65-32.92 49.45 46.09 4.73z" fill="#8dfff9"/><path d="m157.622 320.583-24.192-2.483 56.25 141.65 23.84 2.93z" fill="#82bfbe"/><path d="m173.304 297.256-6.954-28.606-32.92 49.45 24.335 2.497z" fill="#7ae2da"/><g fill="#f4f8fc"><path d="m183.236 149.025a6 6 0 0 1 -5.928-5.124l-.533-3.609a6 6 0 1 1 11.871-1.754l.533 3.609a6.01 6.01 0 0 1 -5.943 6.878z"/><path d="m195.982 235.3a6 6 0 0 1 -5.928-5.124l-9.915-67.116a6 6 0 1 1 11.871-1.754l9.915 67.116a6.009 6.009 0 0 1 -5.943 6.878z"/></g></svg>