<svg id="Capa_1" enable-background="new 0 0 490.001 490.001" height="512" viewBox="0 0 490.001 490.001" width="512" xmlns="http://www.w3.org/2000/svg"><g><path d="m98.091 78.77h232v72.5h-232z" fill="#bdc0c9"/><path d="m343.091 105.27h-258v-88.201c0-9.426 7.642-17.068 17.068-17.068h223.864c9.426 0 17.068 7.642 17.068 17.068z" fill="#f5dc60"/><path d="m167.161 0c-9.43 0-17.07 7.64-17.07 17.07v88.2h-65v-88.2c0-9.43 7.64-17.07 17.07-17.07h65z" fill="#ddc448"/><path d="m342.72 490.001h-257.257c-21.045 0-38.105-17.06-38.105-38.105v-276.52c0-21.045 17.06-38.105 38.105-38.105h257.257c21.045 0 38.105 17.06 38.105 38.105v276.52c.001 21.045-17.06 38.105-38.105 38.105z" fill="#d6d8e0"/><path d="m154.187 490h-68.73c-21.04 0-38.1-17.06-38.1-38.1v-276.52c0-21.05 17.06-38.11 38.1-38.11h68.73c-21.04 0-38.1 17.06-38.1 38.11v276.52c0 21.04 17.06 38.1 38.1 38.1z" fill="#bdc0c9"/><circle cx="272.512" cy="273.562" fill="#de5866" r="70.209"/><path d="m85.092 63.77h258v15h-258z" fill="#ddc448"/><path d="m229.091 301.43c0 40.87-33.13 74-74 74-14.31 0-27.68-4.06-39-11.1-21.01-13.05-35-36.34-35-62.9s13.99-49.85 35-62.9c11.32-7.04 24.69-11.1 39-11.1 40.87 0 74 33.13 74 74z" fill="#f5dc60"/><circle cx="222.839" cy="380.231" fill="#77bf9a" r="58.166"/><path d="m116.091 238.53v125.8c-21.01-13.05-35-36.34-35-62.9s13.99-49.85 35-62.9z" fill="#ddc448"/><g fill="#fff"><path d="m149.89 273.099c6.073 0 8.93 2.589 9.26 8.357.058 1.387.793 5.914 7.824 5.914 5.412 0 7.826-2.476 7.826-8.027 0-12.182-10.408-20.689-25.312-20.689-15.535 0-24.811 9.312-24.811 24.91v29.244c0 15.831 9.007 24.91 24.71 24.91 14.962 0 25.412-8.756 25.412-21.292 0-5.477-2.519-8.027-7.927-8.027-6.562 0-7.583 4.074-7.716 5.792-.45 4.969-1.444 9.082-9.066 9.082-6.75 0-9.76-3.227-9.76-10.463v-29.244c.001-7.24 2.95-10.467 9.56-10.467z"/><path d="m301.888 270.093c3.89-3.5 6.047-9.093 6.047-15.991 0-13.195-7.671-19.886-22.8-19.886h-18.29c-4.186 0-7.223 2.531-7.223 6.017v66.527c0 3.373 3.105 5.917 7.223 5.917h20.4c14.509 0 22.499-8.383 22.499-23.604v-1.909c0-8.181-2.456-13.612-7.856-17.071zm-7.796 16.569v1.608c0 6.889-2.731 9.961-8.856 9.961h-10.062v-21.129h10.062c7.35.001 8.856 3.822 8.856 9.56zm-18.918-23.001v-14.999h9.258c6.958 0 7.851 3.82 7.851 7.147 0 5.503-2.288 7.851-7.649 7.851h-9.46z"/><path d="m237.795 345.016h-15.968c-3.635 0-6.483 2.333-6.483 5.311v59.808c0 2.978 2.848 5.311 6.483 5.311h15.968c14.326 0 22.541-8.15 22.541-22.361v-25.71c0-14.209-8.215-22.359-22.541-22.359zm0 57.463h-8.401v-44.496h8.401c5.793 0 8.491 2.985 8.491 9.393v25.71c0 6.408-2.698 9.393-8.491 9.393z"/></g><path d="m442.644 456.93c0 18.27-14.8 33.07-33.07 33.07h-74.85c-9.13 0-17.4-3.7-23.39-9.68-5.98-5.99-9.68-14.25-9.68-23.39 0-18.26 14.8-33.07 33.07-33.07h74.85c9.14 0 17.4 3.7 23.39 9.69 5.98 5.98 9.68 14.25 9.68 23.38z" fill="#de5866"/><path d="m409.574 468.667h-74.85c-9.13 0-17.4-3.7-23.39-9.68-3.535-3.541-6.264-7.879-7.913-12.72-1.14 3.347-1.767 6.931-1.767 10.664 0 9.14 3.7 17.4 9.68 23.39 5.99 5.98 14.26 9.68 23.39 9.68h74.85c18.27 0 33.07-14.8 33.07-33.07 0-3.733-.627-7.318-1.768-10.666-4.437 13.029-16.767 22.402-31.302 22.402z" fill="#c6475c"/><path d="m442.644 456.93c0 18.27-14.8 33.07-33.07 33.07h-37.43v-66.14h37.43c9.14 0 17.4 3.7 23.39 9.69 3.55 3.55 6.3 7.91 7.94 12.77 1.13 3.33 1.74 6.91 1.74 10.61z" fill="#f5dc60"/><path d="m442.644 456.93c0 18.27-14.8 33.07-33.07 33.07h-37.43v-21.33h37.43c14.54 0 26.87-9.38 31.3-22.41.01.02.01.04.03.06 1.13 3.33 1.74 6.91 1.74 10.61z" fill="#ddc448"/></g></svg>