<?xml version="1.0" encoding="iso-8859-1"?>
<!-- Generator: Adobe Illustrator 19.0.0, SVG Export Plug-In . SVG Version: 6.00 Build 0)  -->
<svg version="1.1" id="Capa_1" xmlns="http://www.w3.org/2000/svg" xmlns:xlink="http://www.w3.org/1999/xlink" x="0px" y="0px"
	 viewBox="0 0 512 512" style="enable-background:new 0 0 512 512;" xml:space="preserve">
<path style="fill:#FF6849;" d="M391,132H121V0h270V132z"/>
<g>
	<path style="fill:#FD4B2D;" d="M391,132H256V0h135V132z"/>
	<rect x="151" y="30" style="fill:#FD4B2D;" width="30" height="87"/>
	<rect x="211" y="30" style="fill:#FD4B2D;" width="30" height="87"/>
</g>
<g>
	<rect x="271" y="30" style="fill:#E8130F;" width="30" height="87"/>
	<rect x="331" y="30" style="fill:#E8130F;" width="30" height="87"/>
</g>
<path style="fill:#ACE3FC;" d="M406,512H106c-24.813,0-45-20.187-45-45V177c0-41.355,33.645-75,75-75h240c41.355,0,75,33.645,75,75
	v290C451,491.813,430.813,512,406,512z"/>
<path style="fill:#86D6F2;" d="M376,102H256v410h150c24.813,0,45-20.187,45-45V177C451,135.645,417.355,102,376,102z"/>
<path style="fill:#0A4EAF;" d="M451,417H61V197h390V417z"/>
<path style="fill:#063E8B;" d="M451,417H256V197h195V417z"/>
<polygon style="fill:#FFDC40;" points="256,377 256,322 216,322 256,237 256,292 296,292 "/>
<polygon style="fill:#FFAB15;" points="256,292 256,322 256,377 296,292 "/>
<g>
</g>
<g>
</g>
<g>
</g>
<g>
</g>
<g>
</g>
<g>
</g>
<g>
</g>
<g>
</g>
<g>
</g>
<g>
</g>
<g>
</g>
<g>
</g>
<g>
</g>
<g>
</g>
<g>
</g>
</svg>
