<svg width="24" height="25" viewBox="0 0 24 25" fill="none" xmlns="http://www.w3.org/2000/svg">
<rect x="7.75427" y="1.88745" width="8.49131" height="3.09418" rx="1.54709" fill="#225474"/>
<path fill-rule="evenodd" clip-rule="evenodd" d="M8.96585 6.44849C7.07659 6.44849 5.54504 7.98004 5.54504 9.8693V21.919C5.54504 23.1785 6.56608 24.1995 7.82558 24.1995H16.1744C17.4339 24.1995 18.4549 23.1785 18.4549 21.919V9.8693C18.4549 7.98004 16.9233 6.44849 15.0341 6.44849H8.96585ZM8.40573 10.8496C7.87909 10.8496 7.45216 11.2765 7.45216 11.8032V21.3389C7.45216 21.8655 7.87909 22.2924 8.40573 22.2924C8.93237 22.2924 9.3593 21.8655 9.3593 21.3389V11.8032C9.3593 11.2765 8.93237 10.8496 8.40573 10.8496Z" fill="#225474"/>
</svg>
