<svg width="33" height="33" viewBox="0 0 34 34" fill="none" xmlns="http://www.w3.org/2000/svg">
<path d="M28.3817 22.0113C28.2746 21.8823 28.1695 21.7533 28.0663 21.6288C26.6475 19.9127 25.7891 18.877 25.7891 14.0189C25.7891 11.5037 25.1874 9.43998 24.0014 7.89219C23.1269 6.74876 21.9448 5.88136 20.3867 5.24031C20.3666 5.22916 20.3487 5.21453 20.3338 5.19711C19.7734 3.32041 18.2398 2.06348 16.5101 2.06348C14.7805 2.06348 13.2475 3.32041 12.6871 5.19517C12.6721 5.21196 12.6545 5.22612 12.6348 5.23709C8.99882 6.73393 7.23176 9.60573 7.23176 14.0169C7.23176 18.877 6.37467 19.9127 4.95457 21.6269C4.85138 21.7514 4.74626 21.8778 4.63921 22.0093C4.36267 22.3428 4.18746 22.7486 4.13431 23.1785C4.08117 23.6085 4.15231 24.0447 4.33932 24.4355C4.73723 25.2739 5.58529 25.7943 6.55331 25.7943H26.474C27.4375 25.7943 28.2798 25.2745 28.679 24.44C28.8668 24.0491 28.9386 23.6126 28.8859 23.1821C28.8332 22.7516 28.6582 22.3453 28.3817 22.0113Z" fill="white"/>
<path d="M16.5095 30.9559C17.4415 30.9552 18.3558 30.7022 19.1556 30.2239C19.9554 29.7455 20.6108 29.0596 21.0523 28.2389C21.0731 28.1996 21.0834 28.1555 21.0821 28.1111C21.0809 28.0666 21.0681 28.0232 21.0452 27.9851C21.0222 27.947 20.9898 27.9155 20.951 27.8936C20.9122 27.8718 20.8685 27.8603 20.824 27.8604H12.1964C12.1518 27.8602 12.108 27.8716 12.0692 27.8934C12.0303 27.9152 11.9978 27.9467 11.9747 27.9848C11.9517 28.0229 11.9389 28.0664 11.9376 28.1109C11.9363 28.1554 11.9466 28.1995 11.9674 28.2389C12.4089 29.0595 13.0642 29.7453 13.8639 30.2237C14.6635 30.702 15.5777 30.9551 16.5095 30.9559Z" fill="white"/>
</svg>
