<svg width="33" height="33" viewBox="0 0 24 24" fill="none" xmlns="http://www.w3.org/2000/svg">
<path fill-rule="evenodd" clip-rule="evenodd" d="M4.58644 1.85621C3.13236 1.28901 1.57389 0.99707 0 0.99707V2.88645C1.31042 2.88645 2.60801 3.12952 3.81867 3.60178C5.02934 4.07403 6.12938 4.76623 7.05599 5.63884C7.98259 6.51146 8.71762 7.5474 9.21909 8.68753C9.72057 9.82766 9.97867 11.0496 9.97867 12.2837C9.97867 13.5178 9.72057 14.7397 9.21909 15.8799C8.71762 17.02 7.98259 18.0559 7.05599 18.9286C6.12938 19.8012 5.02934 20.4934 3.81867 20.9656C2.608 21.4379 1.31042 21.681 0 21.681V23.5703C1.57389 23.5703 3.13236 23.2784 4.58644 22.7112C6.04052 22.144 7.36174 21.3126 8.47464 20.2646C9.58755 19.2165 10.4704 17.9723 11.0727 16.6029C11.6329 15.3292 11.9402 13.9704 11.9804 12.594C12.0628 15.4749 13.2902 18.2212 15.4175 20.2646C17.621 22.3812 20.6097 23.5703 23.726 23.5703V21.681C21.1313 21.681 18.643 20.6909 16.8083 18.9286C14.9736 17.1662 13.9429 14.776 13.9429 12.2837C13.9429 9.79142 14.9736 7.40119 16.8083 5.63886C18.643 3.87653 21.1313 2.88646 23.7259 2.88645L23.7259 0.99707C20.6096 0.997081 17.621 2.18621 15.4175 4.30287C13.2902 6.34627 12.0628 9.09252 11.9804 11.9734C11.9402 10.597 11.6329 9.23822 11.0727 7.9645C10.4704 6.59514 9.58755 5.35091 8.47464 4.30285C7.36174 3.25479 6.04053 2.42342 4.58644 1.85621Z" fill="white"/>
</svg>
