<svg width="33" height="33" viewBox="0 0 26 31" fill="none" xmlns="http://www.w3.org/2000/svg">
<path d="M25.4984 26.6841L25.4888 26.7057C25.4553 26.7811 25.4219 26.8568 25.3884 26.9326C25.3116 27.1064 25.2345 27.2809 25.1559 27.4541C25.017 27.792 24.7891 28.0861 24.4961 28.3046C24.2032 28.5231 23.8565 28.6578 23.4931 28.6946C22.6382 28.8139 21.7672 28.684 20.9843 28.3204L20.9839 28.3202C20.5219 28.103 20.185 27.8186 19.9735 27.4534C19.7622 27.0884 19.6825 26.6535 19.7156 26.1462C19.7523 25.5328 19.9757 24.9452 20.3555 24.462C20.7353 23.9788 21.2536 23.6232 21.8413 23.4429C21.9171 23.4194 21.9881 23.3908 22.0755 23.3555C22.1027 23.3445 22.1315 23.3328 22.1626 23.3205C22.1568 22.9046 22.1696 22.4849 22.1823 22.0681C22.1904 21.8033 22.1984 21.5396 22.2016 21.2788C22.2103 20.5772 22.1849 19.8838 22.0376 19.1979C21.9386 18.8042 21.7544 18.437 21.4982 18.1223L21.4968 18.1206L21.4968 18.1206C21.369 17.957 21.2158 17.8716 21.0591 17.8526C20.9017 17.8335 20.7278 17.8799 20.5569 18.0042L20.5567 18.0043C20.2396 18.2338 19.9647 18.5165 19.744 18.84C19.0771 19.8375 18.7253 20.9631 18.5635 22.1542C18.4945 22.6628 18.4315 23.1744 18.3684 23.6866C18.269 24.4941 18.1693 25.3035 18.0452 26.1066C17.5564 29.2708 14.2461 30.9341 11.3881 29.4658C9.98631 28.7456 9.3551 27.5066 9.32766 26.011C9.30621 24.8434 9.38769 23.6726 9.46859 22.5101C9.47987 22.348 9.49114 22.186 9.50212 22.0243C9.54453 21.3974 9.6157 20.7703 9.68655 20.1459C9.72452 19.8114 9.76239 19.4776 9.7957 19.1451C9.803 19.0236 9.80476 18.9018 9.801 18.7802C9.45727 18.6574 9.11393 18.5404 8.77255 18.424C7.98133 18.1543 7.20054 17.8882 6.44933 17.5619L6.4493 17.5619C3.40135 16.2366 1.68865 13.8311 1.06897 10.6234C0.755914 9.05992 0.851168 7.44208 1.34549 5.9261L1.34556 5.92591C2.04346 3.79879 3.51946 2.39779 5.62784 1.67372L5.63008 1.67295L5.63009 1.67297C5.82048 1.61207 6.01671 1.57108 6.21557 1.55067C6.36634 1.53212 6.49046 1.51406 6.60167 1.46872C6.70889 1.425 6.80736 1.35426 6.89882 1.22307C7.04304 1.01618 7.23364 0.910166 7.44125 0.928973C7.64221 0.947178 7.82755 1.07993 7.97443 1.27923L7.97942 1.286L7.97915 1.28616C8.10943 1.49399 8.18175 1.73283 8.1888 1.97798L8.1888 1.97799C8.19582 2.22315 8.13727 2.46576 8.01911 2.6807L8.01487 2.68841L8.01458 2.68822C7.85861 2.9256 7.66937 3.07012 7.4257 3.06488C7.20642 3.06015 6.97342 2.93296 6.71711 2.71937C5.87515 2.84564 4.92228 3.35963 4.12551 4.14514C3.31459 4.94462 2.67441 6.01663 2.47875 7.22522M25.4984 26.6841L6.73957 16.119C7.16145 16.2938 7.59422 16.4421 8.02702 16.5905C8.42504 16.7269 8.82309 16.8633 9.21272 17.0204C10.5743 17.5693 11.9023 17.2936 13.03 16.5771C15.2946 15.1384 17.2473 13.3188 18.4809 10.8837C19.4836 8.90435 19.5004 6.88224 18.3747 4.91479M25.4984 26.6841L25.4984 26.6605L25.4996 25.5041L25.4996 25.4702L25.4808 25.4421C25.4693 25.4248 25.4568 25.4091 25.4463 25.396C25.4347 25.3817 25.4264 25.3718 25.4178 25.3607C25.4004 25.3379 25.3974 25.329 25.3971 25.3272L25.397 25.3269C25.2216 24.4794 24.6989 23.9358 23.9176 23.6288C23.8508 23.5967 23.7858 23.5612 23.7229 23.5224C24.0064 22.2929 24.0856 21.0247 23.9571 19.7692C23.8508 18.593 23.5251 17.485 22.5079 16.7024L22.4398 16.7909L22.5078 16.7024C21.8704 16.2121 21.1553 16.0151 20.3555 16.2419C19.4506 16.4982 18.8226 17.0935 18.328 17.8509C17.3093 19.4105 16.9678 21.1668 16.7641 22.9508L16.7641 22.9508C16.7346 23.2091 16.7073 23.4672 16.68 23.7247C16.599 24.49 16.5184 25.2511 16.3836 26.0036C16.2576 26.7061 16.0223 27.198 15.6557 27.5403C15.2884 27.8831 14.7761 28.0881 14.0711 28.1899C13.2555 28.3077 12.5845 28.1583 12.0974 27.7886C11.6108 27.4191 11.2917 26.8176 11.2035 25.999C11.1212 25.2161 11.0941 24.4283 11.1224 23.6418L11.1224 23.6415C11.1629 22.4381 11.232 21.2362 11.3011 20.0328C11.3253 19.6124 11.3495 19.1917 11.3725 18.7708C11.3817 18.7292 11.3942 18.6885 11.4099 18.649M25.4984 26.6841L11.4099 18.649M2.47875 7.22522L2.36861 7.20739M2.47875 7.22522L2.36861 7.20739M2.47875 7.22522C2.23978 8.70225 2.23312 10.1683 2.73596 11.5536L2.63108 11.5917L2.73596 11.5536C3.47009 13.5763 4.74252 15.171 6.78226 16.0159L6.78227 16.0159C7.18354 16.1822 7.59536 16.3245 8.01105 16.4671L8.06412 16.4853C8.46142 16.6214 8.86199 16.7587 9.25442 16.9169L9.25443 16.9169C10.5757 17.4495 11.8659 17.1846 12.9701 16.483L12.9701 16.483C15.2236 15.0513 17.1595 13.2453 18.3814 10.8333C19.3682 8.88525 19.3837 6.90301 18.2779 4.9702L18.3747 4.91479M2.36861 7.20739C2.7688 4.73542 4.98382 2.83667 6.751 2.60189M2.36861 7.20739L6.751 2.60189M18.3747 4.91479C17.6018 3.56355 16.382 2.83227 14.9113 2.45674C14.6607 2.39269 14.4679 2.42589 14.2972 2.65728C14.1067 2.91424 13.8319 3.04485 13.505 2.91036C13.1983 2.78401 13.0619 2.52281 13.0107 2.20957L13.665 0.896106C13.3365 0.949421 13.0966 1.06901 12.9673 1.30447C12.8428 1.53139 12.8372 1.83928 12.9006 2.22755L12.9006 2.22759C12.9554 2.56252 13.1069 2.86703 13.4625 3.01352L13.4625 3.01354C13.6496 3.09052 13.8287 3.09361 13.99 3.03561C14.1492 2.97836 14.2821 2.86495 14.3868 2.72373L14.387 2.72352C14.4614 2.6226 14.5333 2.57425 14.6053 2.55339C14.6796 2.53188 14.7683 2.53536 14.8837 2.56484L14.8837 2.56485C16.3339 2.93514 17.5239 3.6521 18.2779 4.97019L18.3747 4.91479ZM14.276 1.12518C14.3624 1.15277 14.4462 1.19403 14.5296 1.23511C14.652 1.29539 14.7737 1.3553 14.9016 1.3711L14.2115 17.6504M14.276 1.12518L14.31 1.01891C14.4051 1.04929 14.4982 1.09521 14.582 1.13649C14.6006 1.1457 14.6189 1.15469 14.6365 1.16322C14.7387 1.21251 14.8274 1.24952 14.9152 1.26037L14.9153 1.26037C17.0265 1.52201 18.6424 2.56697 19.7153 4.39066C21.1005 6.74523 20.9921 9.16883 19.9003 11.5801C19.2267 13.0678 18.1877 14.291 17.0105 15.3811C16.1287 16.198 15.2078 16.9728 14.2826 17.7363M14.276 1.12518C14.2474 1.11601 14.2182 1.10625 14.1887 1.09639C14.0207 1.04013 13.842 0.980312 13.6829 1.00623L14.31 1.0189M14.276 1.12518L14.31 1.0189M14.2826 17.7363C14.2826 17.7363 14.2825 17.7364 14.2825 17.7364L14.2115 17.6504M14.2826 17.7363C14.2827 17.7363 14.2827 17.7362 14.2828 17.7362L14.2115 17.6504M14.2826 17.7363C13.6302 18.278 12.8108 18.5782 11.9629 18.5859M14.2115 17.6504C13.5779 18.1764 12.7821 18.4676 11.9586 18.4744M11.9629 18.5859C11.964 18.5859 11.9651 18.5858 11.9661 18.5857L11.9586 18.4744M11.9629 18.5859C11.7776 18.5985 11.5931 18.6196 11.4099 18.649M11.9629 18.5859C11.9618 18.5859 11.9607 18.586 11.9595 18.586L11.9586 18.4744M11.9586 18.4744L11.4099 18.649M14.31 1.0189C14.2843 1.01069 14.257 1.00153 14.2285 0.992012C14.1577 0.968315 14.0802 0.942369 14.0053 0.923171C13.8986 0.895818 13.7809 0.877248 13.6651 0.896095L14.31 1.0189ZM6.751 2.60189C7.28731 3.06254 7.63019 3.07006 7.92134 2.62695C8.02991 2.42944 8.08373 2.20649 8.07727 1.98118L6.751 2.60189ZM21.5847 18.0519C21.2977 17.6847 20.8704 17.6382 20.4913 17.914L21.5847 18.0519ZM21.7048 26.8518C21.6207 26.8085 21.5471 26.7471 21.4897 26.6723C21.4321 26.5972 21.3918 26.5107 21.3717 26.4187C21.3355 26.1312 21.3759 25.8394 21.489 25.5726C21.6028 25.3045 21.7859 25.0714 22.0193 24.8976L22.02 24.8971C22.4139 24.5993 22.9425 24.6405 23.4903 25.0254C23.881 25.3005 24.0908 25.9254 23.9516 26.452L23.9516 26.452C23.8751 26.7418 23.7782 26.9156 23.6378 27.0285C23.4992 27.14 23.3028 27.2049 22.9976 27.2409C22.8698 27.2045 22.7431 27.1712 22.6177 27.1384C22.3027 27.0557 21.9966 26.9754 21.7048 26.8518Z" fill="white" stroke="white" stroke-width="0.223143"/>
<path d="M23.4762 26.0828L23.4762 26.0828C23.4726 26.2953 23.3871 26.498 23.2373 26.6486L23.1582 26.5699M23.4762 26.0828L21.883 26.0183C21.8893 26.2227 21.975 26.4167 22.1223 26.5588L22.0447 26.639C22.0447 26.639 22.0448 26.6391 22.0448 26.6391C22.2127 26.8013 22.4374 26.8916 22.6709 26.8908L22.6709 26.8908L22.6729 26.8907C22.8853 26.8861 23.0877 26.7992 23.2374 26.6485L23.1582 26.5699M23.4762 26.0828L23.4762 26.0805C23.4758 25.9639 23.4519 25.8482 23.4056 25.7407M23.4762 26.0828L22.6705 26.7792C22.854 26.7752 23.0289 26.7001 23.1582 26.5699M23.1582 26.5699C23.2877 26.4398 23.3616 26.2647 23.3646 26.081C23.3642 25.9792 23.3434 25.8783 23.3031 25.7848M23.3031 25.7848L23.4057 25.7408C23.4057 25.7408 23.4057 25.7408 23.4056 25.7407M23.3031 25.7848C23.263 25.6912 23.2042 25.6068 23.1305 25.5365C23.0568 25.4662 22.9695 25.4116 22.8742 25.3759C22.7788 25.3403 22.6772 25.3243 22.5754 25.3289L23.3031 25.7848ZM23.4056 25.7407C23.3596 25.6332 23.292 25.5363 23.2075 25.4557C23.1229 25.375 23.0227 25.3124 22.9134 25.2714L22.9131 25.2713C22.805 25.2311 22.6899 25.2126 22.5744 25.2173M23.4056 25.7407L22.5744 25.2173M22.5744 25.2173C22.4692 25.2149 22.3647 25.2339 22.267 25.2728L22.2669 25.2728C22.1682 25.3122 22.0783 25.3711 22.0029 25.4463L22.5744 25.2173Z" fill="white" stroke="white" stroke-width="0.223143"/>
</svg>
