<svg width="33" height="33" viewBox="0 0 39 29" fill="none" xmlns="http://www.w3.org/2000/svg">
<path d="M31.7181 3.35156H18.6215C18.1873 3.35156 17.7709 3.52406 17.4639 3.83111C17.1569 4.13816 16.9844 4.55461 16.9844 4.98884V8.2634C16.9844 8.69763 17.1569 9.11408 17.4639 9.42113C17.7709 9.72817 18.1873 9.90067 18.6215 9.90067V24.6362C18.6215 25.0704 18.7939 25.4869 19.1009 25.7939C19.408 26.101 19.8244 26.2735 20.2585 26.2735H30.081C30.5152 26.2735 30.9316 26.101 31.2386 25.7939C31.5456 25.4869 31.7181 25.0704 31.7181 24.6362V9.90067C32.1523 9.90067 32.5687 9.72817 32.8757 9.42113C33.1827 9.11408 33.3552 8.69763 33.3552 8.2634V4.98884C33.3552 4.55461 33.1827 4.13816 32.8757 3.83111C32.5687 3.52406 32.1523 3.35156 31.7181 3.35156ZM20.2585 13.1752H22.7141V21.3616H20.2585V13.1752ZM30.081 24.6362H20.2585V22.9989H24.3512V11.538H20.2585V9.90067H30.081V24.6362ZM18.6215 8.2634V4.98884H31.7181V8.2634H18.6215Z" fill="white"/>
<path d="M5.50327 18.1214C5.5524 18.0692 5.61134 18.0272 5.6767 17.9978C5.74207 17.9684 5.81258 17.9522 5.88423 17.95C5.95587 17.9479 6.02724 17.9598 6.09425 17.9853C6.16127 18.0107 6.22262 18.0491 6.27479 18.0982C8.78616 20.464 11.306 21.9033 14.2714 22.637C14.6715 21.5455 14.7069 20.3442 14.3614 19.1723C13.903 17.6173 12.8354 16.2626 11.275 15.2547C9.88204 14.3549 8.48976 14.1206 7.14284 13.8941C5.44358 13.6083 3.83847 13.3381 2.30668 11.7163C2.13614 11.5369 1.90387 11.4649 1.68183 11.5233C1.42806 11.5915 1.25787 11.792 1.17635 12.1236C0.985343 12.8995 1.10813 15.0742 1.64533 17.37C2.50792 21.0585 3.88451 22.9248 4.88763 23.8413C6.18373 25.0245 7.87616 25.6797 9.55802 25.6797C9.87504 25.6802 10.1917 25.657 10.5052 25.6102C11.9278 25.3946 13.1121 24.68 13.7796 23.6404C10.7272 22.8464 8.11969 21.3364 5.52544 18.894C5.47317 18.8448 5.43112 18.7857 5.40171 18.7202C5.3723 18.6547 5.3561 18.5841 5.35404 18.5123C5.35198 18.4405 5.3641 18.3691 5.38971 18.302C5.41532 18.2349 5.45391 18.1736 5.50327 18.1214Z" fill="white"/>
<path d="M15.9444 22.9714C15.3703 22.8831 14.8144 22.7722 14.2731 22.6382C14.1618 22.942 14.0233 23.2351 13.8594 23.5141C13.8345 23.5567 13.8082 23.599 13.7812 23.6406C14.4396 23.811 15.1063 23.9477 15.7786 24.0499C15.8501 24.0625 15.9235 24.0607 15.9943 24.0445C16.0651 24.0284 16.132 23.9983 16.191 23.9559C16.2501 23.9136 16.3001 23.8599 16.3381 23.798C16.3761 23.7361 16.4014 23.6673 16.4124 23.5955C16.4235 23.5237 16.4201 23.4504 16.4025 23.38C16.3849 23.3095 16.3533 23.2433 16.3098 23.1851C16.2662 23.127 16.2115 23.0782 16.1488 23.0415C16.0861 23.0048 16.0167 22.981 15.9447 22.9714H15.9444Z" fill="white"/>
<path d="M13.3083 6.81663L6.74676 1.89305C5.36146 0.85355 3.38879 1.13497 2.34942 2.52044C1.31001 3.90596 1.59145 5.87893 2.97675 6.91843L9.53826 11.842C10.9234 12.8814 12.8961 12.5999 13.9355 11.2143C14.9749 9.82887 14.6935 7.85606 13.3083 6.81663ZM6.66019 3.39274C4.91101 2.0802 4.09272 2.92084 4.08466 2.92968C3.97507 3.04711 3.79596 3.06101 3.67011 2.96658C3.66136 2.96001 3.65265 2.95284 3.64492 2.94465C3.51876 2.82735 3.5121 2.62997 3.6293 2.5043C3.67788 2.45216 4.84238 1.24907 7.03441 2.89391C7.17196 2.99713 7.19996 3.19251 7.09665 3.33022C6.99334 3.46792 6.79819 3.49565 6.6605 3.39233L6.66019 3.39274ZM10.0057 11.219L7.88777 9.62977L10.723 5.85047L12.8409 7.43967C13.8827 8.22146 14.0943 9.70518 13.3127 10.747C12.531 11.7889 11.0475 12.0007 10.0057 11.219Z" fill="white"/>
</svg>
