<svg width="33" height="33" viewBox="0 0 29 30" fill="none" xmlns="http://www.w3.org/2000/svg">
<path d="M14.9572 5.2739C13.7379 5.20209 12.5164 5.37117 11.3624 5.77149C10.2084 6.17181 9.14457 6.79553 8.2316 7.60704C6.3878 9.24596 5.27049 11.5503 5.12548 14.0131C4.98046 16.4759 5.81962 18.8955 7.45834 20.7395C9.09707 22.5835 11.4011 23.701 13.8636 23.846C14.0458 23.8563 14.2283 23.8563 14.4104 23.846C15.8426 23.8377 17.254 23.5024 18.5371 22.8658C18.7819 22.7427 18.9679 22.5273 19.054 22.267C19.1401 22.0068 19.1193 21.723 18.9962 21.4781C18.873 21.2331 18.6577 21.0472 18.3974 20.9611C18.1372 20.875 17.8535 20.8958 17.6086 21.0189C16.4763 21.5808 15.2163 21.8357 13.9546 21.7579C12.693 21.6802 11.4738 21.2726 10.419 20.576C9.36422 19.8793 8.51073 18.9179 7.94388 17.788C7.37702 16.658 7.11666 15.3991 7.1888 14.1369C7.24274 13.1879 7.48347 12.2589 7.89718 11.4031C8.31088 10.5473 8.88943 9.78161 9.59964 9.14991C10.3098 8.51822 11.1378 8.03295 12.0359 7.72193C12.934 7.41091 13.8847 7.28026 14.8334 7.33747C16.0881 7.41037 17.3021 7.80952 18.3553 8.49545C19.4085 9.18138 20.2645 10.1303 20.8387 11.2485C21.4128 12.3667 21.6852 13.6154 21.6289 14.8711C21.5727 16.1269 21.1897 17.3462 20.5179 18.4085C20.387 18.638 20.3491 18.9089 20.412 19.1655C20.4749 19.4221 20.6339 19.6448 20.8561 19.7877C21.0783 19.9305 21.3468 19.9827 21.6064 19.9334C21.8659 19.8842 22.0966 19.7372 22.251 19.5228C23.1039 18.1994 23.6013 16.6785 23.6954 15.1068C23.7693 13.8869 23.6018 12.6643 23.2023 11.5093C22.8028 10.3543 22.1793 9.28947 21.3675 8.37596C20.5557 7.46244 19.5716 6.71819 18.4715 6.18587C17.3715 5.65355 16.1772 5.34363 14.9572 5.2739Z" fill="white"/>
<path d="M27.6723 15.2658C27.5323 15.1568 27.4187 15.0177 27.3401 14.8586C27.2615 14.6996 27.2199 14.5249 27.2184 14.3475C27.2145 14.1693 27.2505 13.9926 27.3237 13.8302C27.3969 13.6677 27.5054 13.5237 27.6413 13.4085C28.1321 12.9857 28.4848 12.4255 28.654 11.8001C28.8232 11.1748 28.8011 10.5131 28.5905 9.90048C28.3808 9.26525 27.9838 8.7084 27.4516 8.30322C26.9194 7.89805 26.277 7.66353 25.609 7.63055C25.4089 7.62406 25.2127 7.57354 25.0344 7.48259C24.8561 7.39164 24.7 7.26249 24.5773 7.10434C24.475 6.96701 24.4029 6.80964 24.3655 6.64252C24.3282 6.4754 24.3265 6.30228 24.3607 6.13447C24.499 5.51011 24.4482 4.8587 24.2149 4.26331C23.9815 3.66792 23.5761 3.15553 23.0504 2.79149C22.5019 2.39757 21.8501 2.17299 21.1754 2.14549C20.5007 2.11798 19.8327 2.28876 19.2539 2.63672C19.0818 2.73482 18.8918 2.79726 18.695 2.8203C18.4983 2.84335 18.2989 2.82653 18.1088 2.77085C17.9339 2.7181 17.7719 2.62935 17.6334 2.5103C17.4948 2.39124 17.3826 2.24452 17.3041 2.07956C17.0323 1.48697 16.5917 0.987787 16.0375 0.644562C15.4832 0.301338 14.84 0.12934 14.1885 0.150121C13.5268 0.151473 12.8803 0.347976 12.3298 0.715032C11.7793 1.08209 11.3492 1.60339 11.0935 2.21369C11.0202 2.38196 10.9126 2.5331 10.7776 2.65745C10.6426 2.78181 10.4831 2.87665 10.3094 2.93594C10.1221 2.99785 9.92416 3.02153 9.72746 3.00558C9.53076 2.98963 9.33927 2.93437 9.1643 2.84308C8.57255 2.51906 7.89912 2.37478 7.22658 2.42793C6.55405 2.48108 5.91163 2.72935 5.37811 3.14229C4.8702 3.52779 4.48691 4.05419 4.27595 4.65595C4.06499 5.25772 4.03569 5.90825 4.1917 6.52655C4.24329 6.70049 4.2543 6.88395 4.2239 7.06282C4.19349 7.24169 4.12248 7.4112 4.01632 7.55833C3.90003 7.71451 3.75316 7.84537 3.58466 7.94293C3.41617 8.04049 3.22957 8.10272 3.03624 8.12581C2.37513 8.18426 1.74638 8.43822 1.2301 8.85534C0.713827 9.27245 0.333395 9.83383 0.137276 10.468C-0.0491668 11.0879 -0.0456203 11.7495 0.147458 12.3675C0.340537 12.9854 0.714291 13.5313 1.22052 13.9348C1.36052 14.0437 1.47408 14.1829 1.55269 14.3419C1.6313 14.5009 1.67292 14.6757 1.67445 14.853C1.67826 15.0312 1.64227 15.2079 1.56909 15.3703C1.49592 15.5328 1.3874 15.6768 1.25147 15.792C0.760705 16.2148 0.407953 16.775 0.238764 17.4004C0.0695759 18.0257 0.0917214 18.6874 0.302341 19.3C0.511976 19.9353 0.909022 20.4921 1.44122 20.8973C1.97341 21.3025 2.6158 21.537 3.28384 21.57C3.4839 21.5764 3.68007 21.627 3.85839 21.7179C4.0367 21.8089 4.19277 21.938 4.3155 22.0962C4.41778 22.2335 4.48994 22.3909 4.52727 22.558C4.5646 22.7251 4.56627 22.8982 4.53215 23.066C4.39383 23.6904 4.44459 24.3418 4.67794 24.9372C4.91129 25.5326 5.31666 26.045 5.84236 26.409C6.39086 26.8029 7.04273 27.0275 7.71744 27.055C8.39214 27.0825 9.06013 26.9117 9.63887 26.5638C9.81096 26.4657 10.001 26.4032 10.1978 26.3802C10.3945 26.3572 10.5939 26.374 10.784 26.4297C10.9589 26.4824 11.1209 26.5712 11.2594 26.6902C11.398 26.8093 11.5102 26.956 11.5887 27.1209C11.8634 27.707 12.3018 28.201 12.851 28.5433C13.4001 28.8857 14.0366 29.0618 14.6837 29.0504H14.7559C15.4175 29.049 16.0641 28.8525 16.6146 28.4855C17.1651 28.1184 17.5952 27.5971 17.8509 26.9868C17.9242 26.8185 18.0318 26.6674 18.1668 26.5431C18.3018 26.4187 18.4612 26.3239 18.6349 26.2646C18.8223 26.2027 19.0202 26.179 19.2169 26.1949C19.4136 26.2109 19.6051 26.2661 19.7801 26.3574C20.3718 26.6814 21.0453 26.8257 21.7178 26.7726C22.3903 26.7194 23.0328 26.4712 23.5663 26.0582C24.0779 25.6732 24.4645 25.1457 24.6774 24.5417C24.8903 23.9378 24.9201 23.2844 24.763 22.6636C24.7195 22.4973 24.7126 22.3235 24.7429 22.1543C24.7732 21.985 24.8399 21.8244 24.9384 21.6834C25.0547 21.5273 25.2015 21.3964 25.37 21.2988C25.5385 21.2013 25.7251 21.1391 25.9185 21.116C26.5749 21.042 27.1948 20.7752 27.6998 20.3491C28.2047 19.9231 28.5721 19.357 28.7555 18.7222C28.9397 18.1037 28.935 17.4443 28.742 16.8284C28.549 16.2126 28.1765 15.6685 27.6723 15.2658ZM26.8263 18.1444C26.7514 18.3958 26.6017 18.6183 26.3971 18.7824C26.1925 18.9465 25.9428 19.0443 25.6812 19.0627C25.1944 19.1159 24.7246 19.2723 24.303 19.5213C23.8813 19.7704 23.5177 20.1065 23.2361 20.5072C22.9601 20.886 22.7692 21.32 22.6766 21.7795C22.584 22.239 22.5919 22.7131 22.6997 23.1692C22.7539 23.4005 22.7398 23.6425 22.6592 23.8659C22.5787 24.0893 22.435 24.2846 22.2458 24.428C22.029 24.5953 21.7684 24.6961 21.4955 24.7181C21.2227 24.74 20.9493 24.6823 20.7086 24.5518C20.2835 24.3181 19.8141 24.1762 19.3307 24.1353C18.8473 24.0944 18.3608 24.1555 17.9025 24.3145C17.447 24.464 17.028 24.7075 16.6726 25.0292C16.3172 25.3509 16.0332 25.7437 15.8391 26.182C15.7295 26.415 15.557 26.6126 15.3411 26.7528C15.1252 26.893 14.8745 26.9701 14.6171 26.9755C14.3598 26.9809 14.106 26.9143 13.8845 26.7832C13.6629 26.6521 13.4824 26.4618 13.3632 26.2336C13.163 25.8084 12.876 25.4299 12.5206 25.1225C12.1652 24.815 11.7494 24.5855 11.2998 24.4486C10.9658 24.3451 10.6179 24.2929 10.2682 24.2939C9.64235 24.2922 9.02824 24.4636 8.49372 24.7891C8.25931 24.9296 7.98897 24.9987 7.7159 24.9877C7.44282 24.9767 7.1789 24.8861 6.95655 24.7272C6.75653 24.5966 6.60103 24.4082 6.51072 24.187C6.42042 23.9658 6.3996 23.7224 6.45104 23.4891C6.55132 23.0332 6.55161 22.561 6.45187 22.105C6.35213 21.649 6.15475 21.2201 5.87331 20.8477C5.57838 20.4574 5.20259 20.1355 4.77167 19.904C4.34076 19.6725 3.8649 19.5368 3.37669 19.5064C3.11515 19.4956 2.86296 19.4061 2.65312 19.2497C2.44327 19.0932 2.28555 18.877 2.2006 18.6294C2.12452 18.4013 2.11825 18.1558 2.18257 17.9242C2.2469 17.6926 2.37891 17.4854 2.56168 17.3293C2.93184 17.0207 3.22922 16.634 3.43254 16.197C3.63585 15.76 3.74008 15.2834 3.73777 14.8015C3.7316 14.3252 3.62018 13.8562 3.4115 13.4281C3.20282 13 2.90205 12.6234 2.53073 12.3252C2.33711 12.1816 2.19323 11.9811 2.11923 11.7517C2.04524 11.5222 2.04483 11.2754 2.11806 11.0458C2.19294 10.7944 2.34266 10.5718 2.54726 10.4078C2.75186 10.2437 3.00161 10.1459 3.26321 10.1275C3.74998 10.0743 4.21982 9.91792 4.64143 9.66884C5.06304 9.41976 5.42672 9.08367 5.70824 8.68297C5.97551 8.30014 6.15716 7.8642 6.24084 7.40484C6.32451 6.94548 6.30823 6.47348 6.19312 6.02097C6.13894 5.78972 6.15299 5.54773 6.23356 5.3243C6.31413 5.10088 6.45776 4.90562 6.64705 4.76219C6.86376 4.59488 7.12438 4.49412 7.39726 4.47214C7.67015 4.45016 7.94354 4.50791 8.18422 4.63838C8.60932 4.87211 9.07873 5.014 9.5621 5.05488C10.0455 5.09575 10.532 5.03471 10.9903 4.87569C11.4363 4.71997 11.8452 4.47367 12.1914 4.15228C12.5376 3.83089 12.8136 3.44136 13.0021 3.00816C13.1166 2.77771 13.2931 2.58379 13.5118 2.44823C13.7306 2.31267 13.9828 2.24085 14.2401 2.24085C14.4974 2.24085 14.7496 2.31267 14.9683 2.44823C15.187 2.58379 15.3636 2.77771 15.4781 3.00816C15.6782 3.43334 15.9652 3.81185 16.3206 4.11929C16.676 4.42673 17.0919 4.65628 17.5414 4.79315C18.0052 4.93587 18.4938 4.97932 18.9755 4.92066C19.4572 4.86199 19.9212 4.70253 20.3372 4.45266C20.5707 4.30952 20.8415 4.23899 21.1152 4.25001C21.3889 4.26103 21.6531 4.35311 21.8744 4.51457C22.0744 4.64518 22.2299 4.83361 22.3202 5.05479C22.4105 5.27597 22.4313 5.5194 22.3799 5.75271C22.2796 6.20858 22.2793 6.68078 22.379 7.13677C22.4788 7.59276 22.6762 8.02171 22.9576 8.39407C23.2525 8.78437 23.6283 9.1063 24.0592 9.33781C24.4901 9.56932 24.966 9.70495 25.4542 9.73539C25.7157 9.74615 25.9679 9.83563 26.1778 9.99211C26.3876 10.1486 26.5454 10.3648 26.6303 10.6124C26.7064 10.8404 26.7127 11.086 26.6483 11.3176C26.584 11.5492 26.452 11.7563 26.2692 11.9125C25.9085 12.226 25.6208 12.6149 25.4266 13.0516C25.2323 13.4884 25.1361 13.9624 25.1447 14.4403C25.1509 14.9166 25.2623 15.3855 25.471 15.8136C25.6797 16.2418 25.9804 16.6184 26.3518 16.9166C26.5464 17.0486 26.6961 17.2369 26.7809 17.4563C26.8657 17.6757 26.8816 17.9158 26.8263 18.1444Z" fill="white"/>
<path d="M17.6817 11.8034L13.2559 16.2401L10.8934 13.867C10.7972 13.7708 10.683 13.6945 10.5573 13.6424C10.4316 13.5904 10.2969 13.5636 10.1609 13.5636C10.0248 13.5636 9.89014 13.5904 9.76446 13.6424C9.63879 13.6945 9.52459 13.7708 9.4284 13.867C9.33221 13.9632 9.25591 14.0774 9.20385 14.2031C9.15179 14.3288 9.125 14.4635 9.125 14.5996C9.125 14.7356 9.15179 14.8703 9.20385 14.996C9.25591 15.1217 9.33221 15.2359 9.4284 15.3321L12.5234 18.4275C12.6193 18.5242 12.7334 18.601 12.8591 18.6533C12.9848 18.7057 13.1197 18.7327 13.2559 18.7327C13.392 18.7327 13.5269 18.7057 13.6526 18.6533C13.7783 18.601 13.8924 18.5242 13.9883 18.4275L19.1466 13.2686C19.2428 13.1724 19.3191 13.0582 19.3712 12.9325C19.4232 12.8068 19.45 12.6721 19.45 12.536C19.45 12.4 19.4232 12.2652 19.3712 12.1395C19.3191 12.0138 19.2428 11.8996 19.1466 11.8034C19.0504 11.7072 18.9362 11.6309 18.8106 11.5789C18.6849 11.5268 18.5502 11.5 18.4141 11.5C18.2781 11.5 18.1434 11.5268 18.0177 11.5789C17.8921 11.6309 17.7779 11.7072 17.6817 11.8034Z" fill="white"/>
</svg>
