<svg width="20" height="20" viewBox="0 0 20 20" fill="none" xmlns="http://www.w3.org/2000/svg">
<rect x="0.314465" y="0.314465" width="19.3711" height="19.3711" rx="9.68553" fill="#FFF5F5" stroke="#E63946" stroke-width="0.628931"/>
<path d="M10.8134 12.2239H9.61693L9.52379 4.73682H10.9137L10.8134 12.2239ZM9.47363 14.5022C9.47363 14.2873 9.53811 14.1082 9.66708 13.9649C9.80082 13.8168 9.99665 13.7428 10.2546 13.7428C10.5125 13.7428 10.7083 13.8168 10.8421 13.9649C10.9758 14.1082 11.0427 14.2873 11.0427 14.5022C11.0427 14.7172 10.9758 14.8963 10.8421 15.0396C10.7083 15.1781 10.5125 15.2473 10.2546 15.2473C9.99665 15.2473 9.80082 15.1781 9.66708 15.0396C9.53811 14.8963 9.47363 14.7172 9.47363 14.5022Z" fill="#E63946"/>
</svg>
