<svg xmlns="http://www.w3.org/2000/svg" xmlns:xlink="http://www.w3.org/1999/xlink" width="370" height="104.5" viewBox="0 0 370 104.5"><defs><style>.a,.c,.d{fill:#fff;}.a{opacity:0.7;}.b,.i,.k,.m{fill:none;}.b{stroke:#f2f2f2;stroke-width:2px;}.c{stroke:#848484;stroke-dasharray:1 4;}.c,.d{opacity:0.997;}.d{stroke:#d1d1d1;}.e,.g{fill:#56c596;}.e,.f{font-size:13px;font-family:Roboto-Medium, Roboto;font-weight:500;}.f{fill:#484848;}.h{fill:#b1b1b1;}.i{stroke:#c1c1c1;stroke-width:1.5px;}.i,.k{stroke-linecap:round;}.j{fill:#7598b1;}.k{stroke:#fff;}.l{stroke:none;}.n{filter:url(#g);}.o{filter:url(#e);}.p{filter:url(#c);}.q{filter:url(#a);}</style><filter id="a" x="8" y="2.5" width="169" height="50" filterUnits="userSpaceOnUse"><feOffset dy="1" input="SourceAlpha"/><feGaussianBlur stdDeviation="1.5" result="b"/><feFlood flood-color="#b4b4b4" flood-opacity="0.306"/><feComposite operator="in" in2="b"/><feComposite in="SourceGraphic"/></filter><filter id="c" x="184" y="2.5" width="177" height="50" filterUnits="userSpaceOnUse"><feOffset dy="1" input="SourceAlpha"/><feGaussianBlur stdDeviation="1.5" result="d"/><feFlood flood-color="#b4b4b4" flood-opacity="0.306"/><feComposite operator="in" in2="d"/><feComposite in="SourceGraphic"/></filter><filter id="e" x="0" y="54.5" width="185" height="50" filterUnits="userSpaceOnUse"><feOffset dy="1" input="SourceAlpha"/><feGaussianBlur stdDeviation="1.5" result="f"/><feFlood flood-color="#b4b4b4" flood-opacity="0.306"/><feComposite operator="in" in2="f"/><feComposite in="SourceGraphic"/></filter><filter id="g" x="175" y="54.5" width="195" height="50" filterUnits="userSpaceOnUse"><feOffset dy="1" input="SourceAlpha"/><feGaussianBlur stdDeviation="1.5" result="h"/><feFlood flood-color="#b4b4b4" flood-opacity="0.306"/><feComposite operator="in" in2="h"/><feComposite in="SourceGraphic"/></filter></defs><g transform="translate(-606.5 -1117)"><rect class="a" width="185" height="53" rx="26.5" transform="translate(786 1117)"/><rect class="a" width="175" height="53" rx="26.5" transform="translate(611 1117)"/><g transform="translate(-109 -415)"><g class="b" transform="translate(720 1532)"><rect class="l" width="176" height="53" rx="26.5"/><rect class="m" x="1" y="1" width="174" height="51" rx="25.5"/></g><g class="b" transform="translate(896 1532)"><rect class="l" width="184" height="53" rx="26.5"/><rect class="m" x="1" y="1" width="182" height="51" rx="25.5"/></g><g class="q" transform="matrix(1, 0, 0, 1, 715.5, 1532)"><g class="c" transform="translate(13.5 7)"><rect class="l" width="158" height="39" rx="19.5"/><rect class="m" x="-0.5" y="-0.5" width="159" height="40" rx="20"/></g></g><g class="p" transform="matrix(1, 0, 0, 1, 715.5, 1532)"><g class="d" transform="translate(189.5 7)"><rect class="l" width="166" height="39" rx="19.5"/><rect class="m" x="-0.5" y="-0.5" width="167" height="40" rx="20"/></g></g><text class="e" transform="translate(765 1563)"><tspan x="0" y="0" xml:space="preserve">+  Add another</tspan></text><text class="f" transform="translate(987 1563)"><tspan x="-36.267" y="0">Ginko biloba</tspan></text><path class="g" d="M25.429,53H25.2a24,24,0,0,1-9.808-2.082,25.089,25.089,0,0,1-8.009-5.68,26.541,26.541,0,0,1-5.4-8.423,27.866,27.866,0,0,1,0-20.631,26.541,26.541,0,0,1,5.4-8.423,25.065,25.065,0,0,1,8.009-5.679A23.979,23.979,0,0,1,25.2,0h.231V2.692a23.04,23.04,0,0,0-8.211,2.041,23.455,23.455,0,0,0-6.981,4.9,24.1,24.1,0,0,0,0,33.729,23.449,23.449,0,0,0,6.981,4.9,23.047,23.047,0,0,0,8.211,2.041V53Z" transform="translate(896.16 1585) rotate(180)"/><path class="h" d="M25.429,52.7H25.2A24.086,24.086,0,0,1,15.39,50.63a25.081,25.081,0,0,1-8.01-5.648,26.368,26.368,0,0,1-5.4-8.376,27.55,27.55,0,0,1,0-20.513,26.379,26.379,0,0,1,5.4-8.376A25.08,25.08,0,0,1,15.39,2.07,24.1,24.1,0,0,1,25.2,0h.232V2.678a23.143,23.143,0,0,0-7.72,1.82A23.692,23.692,0,0,0,5.2,17.12a23.829,23.829,0,0,0,5.038,26A23.413,23.413,0,0,0,17.709,48.2a23.156,23.156,0,0,0,7.72,1.821V52.7Z" transform="translate(895.231 1532)"/><path class="g" d="M60.336,0A8.682,8.682,0,0,0,59.23.17C57.214.619,54.7,2.119,54.7,4.664a3.7,3.7,0,0,0,.928,2.462A8.511,8.511,0,0,1,57.985,1.7,7.922,7.922,0,0,1,60.336,0Z" transform="translate(868.958 1554)"/><path class="g" d="M128.574,406.758a.312.312,0,1,0,.624,0v-1.577a4.329,4.329,0,0,1-.624-.3Z" transform="translate(796.624 1157.547)"/><path class="g" d="M135.364,2.846a.312.312,0,0,0-.3-.225A6.253,6.253,0,0,0,130.77,4.7a7.894,7.894,0,0,0-2.2,5.38v0h0v.163q.07.051.141.1a3.736,3.736,0,0,0,4.689-.479,4.034,4.034,0,0,0,.8-3.465c-.115-1.3-.214-2.419,1.03-3.206A.312.312,0,0,0,135.364,2.846Z" transform="translate(796.624 1551.434)"/><line class="i" x1="8" y2="8" transform="translate(1044 1555)"/><line class="i" x2="8" y2="8" transform="translate(1044 1555)"/><g class="o" transform="matrix(1, 0, 0, 1, 715.5, 1532)"><g class="d" transform="translate(5.5 59)"><rect class="l" width="174" height="39" rx="19.5"/><rect class="m" x="-0.5" y="-0.5" width="175" height="40" rx="20"/></g></g><g class="n" transform="matrix(1, 0, 0, 1, 715.5, 1532)"><g class="d" transform="translate(180.5 59)"><rect class="l" width="184" height="39" rx="19.5"/><rect class="m" x="-0.5" y="-0.5" width="185" height="40" rx="20"/></g></g><text class="f" transform="translate(808 1615)"><tspan x="-24.861" y="0">Warfarin</tspan></text><text class="f" transform="translate(987 1615)"><tspan x="-36.927" y="0">Paracetamol</tspan></text><g transform="translate(712 1399)"><line class="i" x1="8" y2="8" transform="translate(332 208)"/><line class="i" x2="8" y2="8" transform="translate(332 208)"/></g><g transform="translate(532 1399)"><line class="i" x1="8" y2="8" transform="translate(332 208)"/><line class="i" x2="8" y2="8" transform="translate(332 208)"/></g><g transform="translate(742 1604.382)"><g transform="translate(8.412 0) rotate(45)"><path class="j" d="M0,0H5.948a0,0,0,0,1,0,0V2.779A2.974,2.974,0,0,1,2.974,5.753h0A2.974,2.974,0,0,1,0,2.779V0A0,0,0,0,1,0,0Z" transform="translate(0 6.143)"/><path class="j" d="M0,0H5.948a0,0,0,0,1,0,0V2.779A2.974,2.974,0,0,1,2.974,5.753h0A2.974,2.974,0,0,1,0,2.779V0A0,0,0,0,1,0,0Z" transform="translate(5.948 5.753) rotate(180)"/><line class="k" y2="1.755" transform="translate(1.121 2.877)"/></g></g><g transform="translate(920 1604.382)"><g transform="translate(8.412 0) rotate(45)"><path class="j" d="M0,0H5.948a0,0,0,0,1,0,0V2.779A2.974,2.974,0,0,1,2.974,5.753h0A2.974,2.974,0,0,1,0,2.779V0A0,0,0,0,1,0,0Z" transform="translate(0 6.143)"/><path class="j" d="M0,0H5.948a0,0,0,0,1,0,0V2.779A2.974,2.974,0,0,1,2.974,5.753h0A2.974,2.974,0,0,1,0,2.779V0A0,0,0,0,1,0,0Z" transform="translate(5.948 5.753) rotate(180)"/><line class="k" y2="1.755" transform="translate(1.121 2.877)"/></g></g></g></g></svg>