<svg xmlns="http://www.w3.org/2000/svg" width="429.65" height="182" viewBox="0 0 429.65 182">
  <g id="Group_5754" data-name="Group 5754" transform="translate(-6449 -5997)">
    <g id="Group_5746" data-name="Group 5746">
      <path id="Path_2278" data-name="Path 2278" d="M190.28,40.5H18.9a16.978,16.978,0,0,1-7.153-1.573A18.306,18.306,0,0,1,5.91,34.639a20.119,20.119,0,0,1-3.935-6.357,21.711,21.711,0,0,1,0-15.565A20.118,20.118,0,0,1,5.91,6.361a18.307,18.307,0,0,1,5.839-4.288A16.979,16.979,0,0,1,18.9.5H190.28a16.977,16.977,0,0,1,7.152,1.573,18.306,18.306,0,0,1,5.839,4.288,20.107,20.107,0,0,1,3.935,6.357,21.712,21.712,0,0,1,0,15.565,20.107,20.107,0,0,1-3.935,6.357,18.306,18.306,0,0,1-5.839,4.288A16.977,16.977,0,0,1,190.28,40.5Z" transform="translate(6448.468 6084)" fill="#fff" opacity="0.997"/>
      <path id="Path_2279" data-name="Path 2279" d="M18.8,1C8.931,1,.931,9.73.931,20.5S8.931,40,18.8,40H189.85c9.869,0,17.869-8.73,17.869-19.5S199.719,1,189.85,1Zm0-1H189.85a17.353,17.353,0,0,1,7.322,1.614,18.736,18.736,0,0,1,5.976,4.4,20.628,20.628,0,0,1,4.026,6.515,22.285,22.285,0,0,1,0,15.95,20.628,20.628,0,0,1-4.026,6.515,18.736,18.736,0,0,1-5.976,4.4A17.352,17.352,0,0,1,189.85,41H18.8a17.355,17.355,0,0,1-7.323-1.614A18.738,18.738,0,0,1,5.5,34.99a20.626,20.626,0,0,1-4.026-6.515,22.285,22.285,0,0,1,0-15.95A20.626,20.626,0,0,1,5.5,6.01a18.738,18.738,0,0,1,5.976-4.4A17.355,17.355,0,0,1,18.8,0Z" transform="translate(6449 6084)" fill="#efefef" opacity="0.997"/>
      <path id="Path_2280" data-name="Path 2280" d="M190.462,14.5a6,6,0,1,0,6,6A6,6,0,0,0,190.462,14.5Zm-7.333,6a7.334,7.334,0,1,1,7.333,7.333A7.333,7.333,0,0,1,183.129,20.5Z" transform="translate(6419 6084)" fill="#225474" fill-rule="evenodd"/>
      <path id="Path_2281" data-name="Path 2281" d="M190.462,19.833a.667.667,0,0,1,.667.667v2.667a.666.666,0,1,1-1.333,0V20.5A.666.666,0,0,1,190.462,19.833Z" transform="translate(6419 6084)" fill="#235575" fill-rule="evenodd"/>
      <path id="Path_2282" data-name="Path 2282" d="M191.129,17.833a.666.666,0,1,1-.667-.667A.667.667,0,0,1,191.129,17.833Z" transform="translate(6419 6084)" fill="#235575"/>
      <path id="Path_2283" data-name="Path 2283" d="M219.49,16l-8.516,8" transform="translate(6419 6084)" fill="none" stroke="#235575" stroke-linecap="round" stroke-width="1.5"/>
      <path id="Path_2284" data-name="Path 2284" d="M210.974,16l8.516,8" transform="translate(6419 6084)" fill="none" stroke="#235575" stroke-linecap="round" stroke-width="1.5"/>
      <text id="Warfarin" transform="translate(6542 6109)" fill="#484848" font-size="13" font-family="Roboto-Medium, Roboto" font-weight="500"><tspan x="-24.861" y="0">Warfarin</tspan></text>
      <path id="fill" d="M12.426,2.36a3.791,3.791,0,0,0-5.361,0L2.777,6.649a3.79,3.79,0,0,0,5.361,5.361l4.288-4.288A3.79,3.79,0,0,0,12.426,2.36ZM10.054,8.925,5.817,4.689,5.105,5.4,9.341,9.637Z" transform="translate(6464.333 6097.315)" fill="#225474" fill-rule="evenodd"/>
    </g>
    <g id="Group_5751" data-name="Group 5751" transform="translate(0 54)">
      <path id="Path_2278-2" data-name="Path 2278" d="M190.28,40.5H18.9a16.978,16.978,0,0,1-7.153-1.573A18.306,18.306,0,0,1,5.91,34.639a20.119,20.119,0,0,1-3.935-6.357,21.711,21.711,0,0,1,0-15.565A20.118,20.118,0,0,1,5.91,6.361a18.307,18.307,0,0,1,5.839-4.288A16.979,16.979,0,0,1,18.9.5H190.28a16.977,16.977,0,0,1,7.152,1.573,18.306,18.306,0,0,1,5.839,4.288,20.107,20.107,0,0,1,3.935,6.357,21.712,21.712,0,0,1,0,15.565,20.107,20.107,0,0,1-3.935,6.357,18.306,18.306,0,0,1-5.839,4.288A16.977,16.977,0,0,1,190.28,40.5Z" transform="translate(6448.468 6084)" fill="#fff" opacity="0.997"/>
      <path id="Path_2279-2" data-name="Path 2279" d="M18.8,1C8.931,1,.931,9.73.931,20.5S8.931,40,18.8,40H189.85c9.869,0,17.869-8.73,17.869-19.5S199.719,1,189.85,1Zm0-1H189.85a17.353,17.353,0,0,1,7.322,1.614,18.736,18.736,0,0,1,5.976,4.4,20.628,20.628,0,0,1,4.026,6.515,22.285,22.285,0,0,1,0,15.95,20.628,20.628,0,0,1-4.026,6.515,18.736,18.736,0,0,1-5.976,4.4A17.352,17.352,0,0,1,189.85,41H18.8a17.355,17.355,0,0,1-7.323-1.614A18.738,18.738,0,0,1,5.5,34.99a20.626,20.626,0,0,1-4.026-6.515,22.285,22.285,0,0,1,0-15.95A20.626,20.626,0,0,1,5.5,6.01a18.738,18.738,0,0,1,5.976-4.4A17.355,17.355,0,0,1,18.8,0Z" transform="translate(6449 6084)" fill="#efefef" opacity="0.997"/>
      <path id="Path_2280-2" data-name="Path 2280" d="M190.462,14.5a6,6,0,1,0,6,6A6,6,0,0,0,190.462,14.5Zm-7.333,6a7.334,7.334,0,1,1,7.333,7.333A7.333,7.333,0,0,1,183.129,20.5Z" transform="translate(6419 6084)" fill="#225474" fill-rule="evenodd"/>
      <path id="Path_2281-2" data-name="Path 2281" d="M190.462,19.833a.667.667,0,0,1,.667.667v2.667a.666.666,0,1,1-1.333,0V20.5A.666.666,0,0,1,190.462,19.833Z" transform="translate(6419 6084)" fill="#235575" fill-rule="evenodd"/>
      <path id="Path_2282-2" data-name="Path 2282" d="M191.129,17.833a.666.666,0,1,1-.667-.667A.667.667,0,0,1,191.129,17.833Z" transform="translate(6419 6084)" fill="#235575"/>
      <path id="Path_2283-2" data-name="Path 2283" d="M219.49,16l-8.516,8" transform="translate(6419 6084)" fill="none" stroke="#235575" stroke-linecap="round" stroke-width="1.5"/>
      <path id="Path_2284-2" data-name="Path 2284" d="M210.974,16l8.516,8" transform="translate(6419 6084)" fill="none" stroke="#235575" stroke-linecap="round" stroke-width="1.5"/>
      <text id="Acetaminophen" transform="translate(6542 6109)" fill="#484848" font-size="13" font-family="Roboto-Medium, Roboto" font-weight="500"><tspan x="-45.897" y="0">Acetaminophen</tspan></text>
      <path id="fill-2" data-name="fill" d="M12.426,2.36a3.791,3.791,0,0,0-5.361,0L2.777,6.649a3.79,3.79,0,0,0,5.361,5.361l4.288-4.288A3.79,3.79,0,0,0,12.426,2.36ZM10.054,8.925,5.817,4.689,5.105,5.4,9.341,9.637Z" transform="translate(6464.333 6097.315)" fill="#225474" fill-rule="evenodd"/>
    </g>
    <g id="Group_5750" data-name="Group 5750" transform="translate(218)">
      <path id="Path_2278-3" data-name="Path 2278" d="M190.28,40.5H18.9a16.978,16.978,0,0,1-7.153-1.573A18.306,18.306,0,0,1,5.91,34.639a20.119,20.119,0,0,1-3.935-6.357,21.711,21.711,0,0,1,0-15.565A20.118,20.118,0,0,1,5.91,6.361a18.307,18.307,0,0,1,5.839-4.288A16.979,16.979,0,0,1,18.9.5H190.28a16.977,16.977,0,0,1,7.152,1.573,18.306,18.306,0,0,1,5.839,4.288,20.107,20.107,0,0,1,3.935,6.357,21.712,21.712,0,0,1,0,15.565,20.107,20.107,0,0,1-3.935,6.357,18.306,18.306,0,0,1-5.839,4.288A16.977,16.977,0,0,1,190.28,40.5Z" transform="translate(6448.468 6084)" fill="#fff" opacity="0.997"/>
      <path id="Path_2279-3" data-name="Path 2279" d="M18.8,1C8.931,1,.931,9.73.931,20.5S8.931,40,18.8,40H189.85c9.869,0,17.869-8.73,17.869-19.5S199.719,1,189.85,1Zm0-1H189.85a17.353,17.353,0,0,1,7.322,1.614,18.736,18.736,0,0,1,5.976,4.4,20.628,20.628,0,0,1,4.026,6.515,22.285,22.285,0,0,1,0,15.95,20.628,20.628,0,0,1-4.026,6.515,18.736,18.736,0,0,1-5.976,4.4A17.352,17.352,0,0,1,189.85,41H18.8a17.355,17.355,0,0,1-7.323-1.614A18.738,18.738,0,0,1,5.5,34.99a20.626,20.626,0,0,1-4.026-6.515,22.285,22.285,0,0,1,0-15.95A20.626,20.626,0,0,1,5.5,6.01a18.738,18.738,0,0,1,5.976-4.4A17.355,17.355,0,0,1,18.8,0Z" transform="translate(6449 6084)" fill="#efefef" opacity="0.997"/>
      <path id="Path_2280-3" data-name="Path 2280" d="M190.462,14.5a6,6,0,1,0,6,6A6,6,0,0,0,190.462,14.5Zm-7.333,6a7.334,7.334,0,1,1,7.333,7.333A7.333,7.333,0,0,1,183.129,20.5Z" transform="translate(6419 6084)" fill="#225474" fill-rule="evenodd"/>
      <path id="Path_2281-3" data-name="Path 2281" d="M190.462,19.833a.667.667,0,0,1,.667.667v2.667a.666.666,0,1,1-1.333,0V20.5A.666.666,0,0,1,190.462,19.833Z" transform="translate(6419 6084)" fill="#235575" fill-rule="evenodd"/>
      <path id="Path_2282-3" data-name="Path 2282" d="M191.129,17.833a.666.666,0,1,1-.667-.667A.667.667,0,0,1,191.129,17.833Z" transform="translate(6419 6084)" fill="#235575"/>
      <path id="Path_2283-3" data-name="Path 2283" d="M219.49,16l-8.516,8" transform="translate(6419 6084)" fill="none" stroke="#235575" stroke-linecap="round" stroke-width="1.5"/>
      <path id="Path_2284-3" data-name="Path 2284" d="M210.974,16l8.516,8" transform="translate(6419 6084)" fill="none" stroke="#235575" stroke-linecap="round" stroke-width="1.5"/>
      <text id="Panax_ginseng" data-name="Panax ginseng" transform="translate(6542 6109)" fill="#484848" font-size="13" font-family="Roboto-Medium, Roboto" font-weight="500"><tspan x="-42.758" y="0">Panax ginseng</tspan></text>
      <g id="fill-3" data-name="fill" transform="translate(6468 6098.849)" opacity="0.998">
        <path id="Path_2285" data-name="Path 2285" d="M9.65.943a9.7,9.7,0,0,0-1.241.192c-2.262.506-5.082,2.2-5.082,5.065A4.182,4.182,0,0,0,4.369,8.975,9.615,9.615,0,0,1,7.013,2.859,8.889,8.889,0,0,1,9.65.943Z" transform="translate(-3.328 -0.943)" fill="#225474" opacity="0.998"/>
        <path id="Path_2286" data-name="Path 2286" d="M6.53,20.666a.352.352,0,0,0,.1.249A.35.35,0,0,0,7.2,20.8a.353.353,0,0,0,.027-.135V18.889a4.847,4.847,0,0,1-.7-.338Z" transform="translate(-4.802 -9.051)" fill="#225474" opacity="0.998"/>
        <path id="Path_2287" data-name="Path 2287" d="M14.143,1.312a.35.35,0,0,0-.337-.254A7,7,0,0,0,8.99,3.4,8.919,8.919,0,0,0,6.522,9.465v.184q.079.058.158.113a4.176,4.176,0,0,0,5.26-.54,4.563,4.563,0,0,0,.9-3.905C12.709,3.851,12.6,2.59,13.993,1.7a.352.352,0,0,0,.15-.391Z" transform="translate(-4.798 -0.996)" fill="#225474" opacity="0.998"/>
      </g>
    </g>
    <g id="Group_5753" data-name="Group 5753" transform="translate(218 54)">
      <path id="Path_2278-4" data-name="Path 2278" d="M190.28,40.5H18.9a16.978,16.978,0,0,1-7.153-1.573A18.306,18.306,0,0,1,5.91,34.639a20.119,20.119,0,0,1-3.935-6.357,21.711,21.711,0,0,1,0-15.565A20.118,20.118,0,0,1,5.91,6.361a18.307,18.307,0,0,1,5.839-4.288A16.979,16.979,0,0,1,18.9.5H190.28a16.977,16.977,0,0,1,7.152,1.573,18.306,18.306,0,0,1,5.839,4.288,20.107,20.107,0,0,1,3.935,6.357,21.712,21.712,0,0,1,0,15.565,20.107,20.107,0,0,1-3.935,6.357,18.306,18.306,0,0,1-5.839,4.288A16.977,16.977,0,0,1,190.28,40.5Z" transform="translate(6448.468 6084)" fill="#fff" opacity="0.997"/>
      <path id="Path_2279-4" data-name="Path 2279" d="M18.8,1C8.931,1,.931,9.73.931,20.5S8.931,40,18.8,40H189.85c9.869,0,17.869-8.73,17.869-19.5S199.719,1,189.85,1Zm0-1H189.85a17.353,17.353,0,0,1,7.322,1.614,18.736,18.736,0,0,1,5.976,4.4,20.628,20.628,0,0,1,4.026,6.515,22.285,22.285,0,0,1,0,15.95,20.628,20.628,0,0,1-4.026,6.515,18.736,18.736,0,0,1-5.976,4.4A17.352,17.352,0,0,1,189.85,41H18.8a17.355,17.355,0,0,1-7.323-1.614A18.738,18.738,0,0,1,5.5,34.99a20.626,20.626,0,0,1-4.026-6.515,22.285,22.285,0,0,1,0-15.95A20.626,20.626,0,0,1,5.5,6.01a18.738,18.738,0,0,1,5.976-4.4A17.355,17.355,0,0,1,18.8,0Z" transform="translate(6449 6084)" fill="#efefef" opacity="0.997"/>
      <path id="Path_2280-4" data-name="Path 2280" d="M190.462,14.5a6,6,0,1,0,6,6A6,6,0,0,0,190.462,14.5Zm-7.333,6a7.334,7.334,0,1,1,7.333,7.333A7.333,7.333,0,0,1,183.129,20.5Z" transform="translate(6419 6084)" fill="#225474" fill-rule="evenodd"/>
      <path id="Path_2281-4" data-name="Path 2281" d="M190.462,19.833a.667.667,0,0,1,.667.667v2.667a.666.666,0,1,1-1.333,0V20.5A.666.666,0,0,1,190.462,19.833Z" transform="translate(6419 6084)" fill="#235575" fill-rule="evenodd"/>
      <path id="Path_2282-4" data-name="Path 2282" d="M191.129,17.833a.666.666,0,1,1-.667-.667A.667.667,0,0,1,191.129,17.833Z" transform="translate(6419 6084)" fill="#235575"/>
      <path id="Path_2283-4" data-name="Path 2283" d="M219.49,16l-8.516,8" transform="translate(6419 6084)" fill="none" stroke="#235575" stroke-linecap="round" stroke-width="1.5"/>
      <path id="Path_2284-4" data-name="Path 2284" d="M210.974,16l8.516,8" transform="translate(6419 6084)" fill="none" stroke="#235575" stroke-linecap="round" stroke-width="1.5"/>
      <text id="Hypericum" transform="translate(6542 6109)" fill="#484848" font-size="13" font-family="Roboto-Medium, Roboto" font-weight="500"><tspan x="-31.545" y="0">Hypericum</tspan></text>
      <g id="fill-4" data-name="fill" transform="translate(6468 6098.849)" opacity="0.998">
        <path id="Path_2285-2" data-name="Path 2285" d="M9.65.943a9.7,9.7,0,0,0-1.241.192c-2.262.506-5.082,2.2-5.082,5.065A4.182,4.182,0,0,0,4.369,8.975,9.615,9.615,0,0,1,7.013,2.859,8.889,8.889,0,0,1,9.65.943Z" transform="translate(-3.328 -0.943)" fill="#225474" opacity="0.998"/>
        <path id="Path_2286-2" data-name="Path 2286" d="M6.53,20.666a.352.352,0,0,0,.1.249A.35.35,0,0,0,7.2,20.8a.353.353,0,0,0,.027-.135V18.889a4.847,4.847,0,0,1-.7-.338Z" transform="translate(-4.802 -9.051)" fill="#225474" opacity="0.998"/>
        <path id="Path_2287-2" data-name="Path 2287" d="M14.143,1.312a.35.35,0,0,0-.337-.254A7,7,0,0,0,8.99,3.4,8.919,8.919,0,0,0,6.522,9.465v.184q.079.058.158.113a4.176,4.176,0,0,0,5.26-.54,4.563,4.563,0,0,0,.9-3.905C12.709,3.851,12.6,2.59,13.993,1.7a.352.352,0,0,0,.15-.391Z" transform="translate(-4.798 -0.996)" fill="#225474" opacity="0.998"/>
      </g>
    </g>
    <g id="search_bar_05" data-name="search bar 05" transform="translate(6450.378 5995.656)">
      <path id="Path_2289" data-name="Path 2289" d="M396.054,4.344H32.84C16.526,4.344,3.622,16.61,3.622,31.383s12.9,27.039,29.218,27.039H396.054c16.314,0,29.218-12.266,29.218-27.039S412.368,4.344,396.054,4.344Z" transform="translate(0)" fill="#fff" stroke="#ecf0f3" stroke-width="6" opacity="0.997"/>
      <g id="Group_5745" data-name="Group 5745" transform="translate(6.622 7.344)" opacity="0.997">
        <path id="Path_2290" data-name="Path 2290" d="M32.484,7.344H396.41c14.283,0,25.862,10.762,25.862,24.039S410.693,55.422,396.41,55.422H32.484C18.2,55.422,6.622,44.66,6.622,31.383S18.2,7.344,32.484,7.344Z" transform="translate(-6.622 -7.344)" fill="#fff"/>
        <path id="Path_2291" data-name="Path 2291" d="M32.423,7.844H396.471c13.944,0,25.3,10.512,25.3,23.539s-11.357,23.539-25.3,23.539H32.423c-13.943,0-25.3-10.512-25.3-23.539S18.48,7.844,32.423,7.844Z" transform="translate(-6.622 -7.344)" fill="none" stroke="#225474" stroke-width="1"/>
      </g>
      <path id="Path_2292" data-name="Path 2292" d="M42.08,31.044h2.775v1.2H42.08v3.145H40.808V32.24H38.033v-1.2h2.775V28.139H42.08Zm16.96,2.741H54.87l-.936,2.6H52.58l3.8-9.953h1.148l3.808,9.953H59.99Zm-3.773-1.08H58.65l-1.7-4.655Zm6.9-.082a4.318,4.318,0,0,1,.807-2.734,2.741,2.741,0,0,1,4.17-.15V25.883h1.265v10.5H67.249l-.061-.793a2.576,2.576,0,0,1-2.112.93,2.535,2.535,0,0,1-2.1-1.053,4.395,4.395,0,0,1-.807-2.748Zm1.265.144a3.281,3.281,0,0,0,.52,1.969,1.68,1.68,0,0,0,1.435.711,1.845,1.845,0,0,0,1.757-1.08v-3.4A1.859,1.859,0,0,0,65.4,29.923a1.687,1.687,0,0,0-1.449.718A3.612,3.612,0,0,0,63.435,32.767Zm6.638-.144a4.318,4.318,0,0,1,.807-2.734,2.741,2.741,0,0,1,4.17-.15V25.883h1.265v10.5H75.152l-.062-.793a2.575,2.575,0,0,1-2.112.93,2.535,2.535,0,0,1-2.1-1.053,4.395,4.395,0,0,1-.807-2.748Zm1.265.144a3.281,3.281,0,0,0,.52,1.969,1.68,1.68,0,0,0,1.436.711,1.845,1.845,0,0,0,1.757-1.08v-3.4a1.859,1.859,0,0,0-1.743-1.046,1.688,1.688,0,0,0-1.449.718A3.613,3.613,0,0,0,71.337,32.767Zm14.984,3.616a2.657,2.657,0,0,1-.178-.779,2.821,2.821,0,0,1-2.105.916,2.633,2.633,0,0,1-1.8-.615,2.016,2.016,0,0,1-.7-1.572,2.085,2.085,0,0,1,.875-1.791,4.141,4.141,0,0,1,2.475-.643h1.23v-.581a1.409,1.409,0,0,0-.4-1.053,1.585,1.585,0,0,0-1.169-.4,1.844,1.844,0,0,0-1.135.342,1.007,1.007,0,0,0-.458.827H81.694a1.74,1.74,0,0,1,.39-1.066,2.7,2.7,0,0,1,1.066-.82,3.612,3.612,0,0,1,1.483-.3,2.914,2.914,0,0,1,2,.643,2.294,2.294,0,0,1,.752,1.757v3.4a4.163,4.163,0,0,0,.26,1.62v.109Zm-2.1-.964a2.223,2.223,0,0,0,1.128-.308,1.861,1.861,0,0,0,.772-.8V32.794h-.991q-2.324,0-2.324,1.36a1.151,1.151,0,0,0,.4.93A1.524,1.524,0,0,0,84.223,35.419Zm6.344-6.433.041.93a2.7,2.7,0,0,1,2.215-1.066q2.345,0,2.365,2.646v4.888H93.923V31.488a1.692,1.692,0,0,0-.369-1.183,1.454,1.454,0,0,0-1.114-.383,1.825,1.825,0,0,0-1.08.328,2.227,2.227,0,0,0-.725.861v5.271H89.371v-7.4Zm6.193,3.63a4.4,4.4,0,0,1,.424-1.955,3.218,3.218,0,0,1,1.189-1.34,3.256,3.256,0,0,1,1.743-.472,3.108,3.108,0,0,1,2.44,1.046,4.017,4.017,0,0,1,.937,2.782v.089a4.4,4.4,0,0,1-.417,1.941,3.119,3.119,0,0,1-1.183,1.333,3.256,3.256,0,0,1-1.764.479,3.122,3.122,0,0,1-2.44-1.046,4.012,4.012,0,0,1-.93-2.768Zm1.271.15a3.178,3.178,0,0,0,.567,1.976,1.941,1.941,0,0,0,3.063-.007,3.478,3.478,0,0,0,.567-2.119,3.133,3.133,0,0,0-.581-1.969,1.914,1.914,0,0,0-3.042-.014A3.434,3.434,0,0,0,98.032,32.767Zm8.763-5.571v1.791h1.381v.978h-1.381v4.587a1.039,1.039,0,0,0,.185.67.785.785,0,0,0,.629.219,3.054,3.054,0,0,0,.6-.082v1.025a3.658,3.658,0,0,1-.97.137,1.578,1.578,0,0,1-1.279-.513,2.2,2.2,0,0,1-.43-1.456V29.964h-1.347v-.978h1.347V27.2Zm4.129,2.687a2.69,2.69,0,0,1,2.188-1.032q2.345,0,2.365,2.646v4.888h-1.265V31.488a1.687,1.687,0,0,0-.369-1.183,1.453,1.453,0,0,0-1.114-.383,1.825,1.825,0,0,0-1.08.328,2.226,2.226,0,0,0-.725.861v5.271H109.66v-10.5h1.264Zm9.516,6.638a3.237,3.237,0,0,1-2.447-.984,3.679,3.679,0,0,1-.944-2.646v-.232a4.447,4.447,0,0,1,.417-1.962,3.289,3.289,0,0,1,1.176-1.353,2.959,2.959,0,0,1,1.641-.492,2.77,2.77,0,0,1,2.242.95,4.115,4.115,0,0,1,.8,2.721v.526h-5.011a2.649,2.649,0,0,0,.636,1.771,2.023,2.023,0,0,0,1.558.67,2.2,2.2,0,0,0,1.135-.273,2.861,2.861,0,0,0,.814-.725l.772.6A3.106,3.106,0,0,1,120.44,36.52Zm-.157-6.631a1.68,1.68,0,0,0-1.285.56,2.687,2.687,0,0,0-.643,1.559h3.7v-.1a2.4,2.4,0,0,0-.519-1.49A1.585,1.585,0,0,0,120.283,29.889Zm8.087.232a3.8,3.8,0,0,0-.622-.048,1.667,1.667,0,0,0-1.689,1.06v5.25h-1.265v-7.4h1.231l.02.854a1.97,1.97,0,0,1,1.764-.991,1.3,1.3,0,0,1,.561.1Zm5.906-.239a2.688,2.688,0,0,1,2.187-1.032q2.346,0,2.366,2.646v4.888h-1.265V31.488a1.7,1.7,0,0,0-.369-1.183,1.455,1.455,0,0,0-1.114-.383,1.826,1.826,0,0,0-1.081.328,2.232,2.232,0,0,0-.724.861v5.271h-1.265v-10.5h1.265Zm9.516,6.638a3.239,3.239,0,0,1-2.448-.984,3.678,3.678,0,0,1-.943-2.646v-.232a4.447,4.447,0,0,1,.417-1.962,3.275,3.275,0,0,1,1.176-1.353,2.956,2.956,0,0,1,1.64-.492,2.769,2.769,0,0,1,2.242.95,4.11,4.11,0,0,1,.8,2.721v.526h-5.01a2.654,2.654,0,0,0,.635,1.771,2.025,2.025,0,0,0,1.559.67,2.205,2.205,0,0,0,1.135-.273,2.844,2.844,0,0,0,.813-.725l.773.6A3.107,3.107,0,0,1,143.792,36.52Zm-.158-6.631a1.682,1.682,0,0,0-1.285.56,2.693,2.693,0,0,0-.642,1.559h3.705v-.1a2.4,2.4,0,0,0-.52-1.49A1.583,1.583,0,0,0,143.634,29.889Zm8.087.232a3.788,3.788,0,0,0-.622-.048,1.666,1.666,0,0,0-1.688,1.06v5.25h-1.265v-7.4h1.23l.021.854a1.97,1.97,0,0,1,1.764-.991,1.288,1.288,0,0,1,.56.1Zm7.431,2.646a4.416,4.416,0,0,1-.779,2.727,2.494,2.494,0,0,1-2.092,1.025,2.578,2.578,0,0,1-2.167-.991l-.062.854H152.89v-10.5h1.265V29.8a2.562,2.562,0,0,1,2.112-.95,2.5,2.5,0,0,1,2.112,1.019,4.515,4.515,0,0,1,.773,2.789Zm-1.265-.144a3.415,3.415,0,0,0-.5-2,1.651,1.651,0,0,0-1.435-.7,1.856,1.856,0,0,0-1.8,1.162v3.2a1.908,1.908,0,0,0,1.811,1.162,1.643,1.643,0,0,0,1.415-.7A3.628,3.628,0,0,0,157.887,32.623Zm6.59,4.614H163.39l4.156-10.808h1.08Zm8.682-4.614a4.322,4.322,0,0,1,.806-2.734,2.742,2.742,0,0,1,4.17-.15V25.883H179.4v10.5h-1.162l-.062-.793a2.575,2.575,0,0,1-2.112.93,2.537,2.537,0,0,1-2.1-1.053,4.4,4.4,0,0,1-.806-2.748Zm1.264.144a3.284,3.284,0,0,0,.52,1.969,1.679,1.679,0,0,0,1.435.711,1.844,1.844,0,0,0,1.757-1.08v-3.4a1.858,1.858,0,0,0-1.743-1.046,1.686,1.686,0,0,0-1.449.718A3.615,3.615,0,0,0,174.423,32.767Zm10.521-2.646a3.8,3.8,0,0,0-.622-.048,1.667,1.667,0,0,0-1.689,1.06v5.25h-1.264v-7.4h1.23l.021.854a1.967,1.967,0,0,1,1.763-.991,1.3,1.3,0,0,1,.561.1Zm5.735,5.53a2.685,2.685,0,0,1-2.167.868,2.314,2.314,0,0,1-1.8-.684,3,3,0,0,1-.623-2.037V28.986h1.265v4.778q0,1.682,1.367,1.682a1.893,1.893,0,0,0,1.928-1.08v-5.38h1.265v7.4h-1.2Zm2.858-3.028a4.333,4.333,0,0,1,.8-2.748,2.755,2.755,0,0,1,4.232-.068l.061-.82h1.156v7.219a3,3,0,0,1-.855,2.263,3.128,3.128,0,0,1-2.283.827,3.8,3.8,0,0,1-1.565-.342,2.686,2.686,0,0,1-1.169-.936l.656-.759a2.472,2.472,0,0,0,1.989,1,1.928,1.928,0,0,0,1.436-.52,1.979,1.979,0,0,0,.519-1.463v-.636a2.6,2.6,0,0,1-2.071.875,2.537,2.537,0,0,1-2.106-1.046A4.586,4.586,0,0,1,193.537,32.623Zm1.271.144a3.331,3.331,0,0,0,.513,1.969,1.668,1.668,0,0,0,1.435.711,1.853,1.853,0,0,0,1.757-1.087V30.982a1.873,1.873,0,0,0-1.743-1.06,1.68,1.68,0,0,0-1.442.718A3.607,3.607,0,0,0,194.808,32.767Z" fill="#225474"/>
    </g>
  </g>
</svg>
