<svg width="100" height="100" viewBox="0 0 60 60" fill="none" xmlns="http://www.w3.org/2000/svg">
              <g style="mix-blend-mode: multiply" filter="url(#filter0_d_2193_2053)">
                <path
                  fill-rule="evenodd"
                  clip-rule="evenodd"
                  d="M45.5289 30.7907C45.3623 30.6611 45.2272 30.4955 45.1337 30.3063C45.0401 30.1171 44.9906 29.9092 44.9888 29.6981C44.9842 29.4862 45.0271 29.2759 45.1141 29.0827C45.2012 28.8894 45.3303 28.718 45.4921 28.581C46.076 28.078 46.4958 27.4114 46.6971 26.6674C46.8984 25.9234 46.8721 25.1362 46.6215 24.4073C46.372 23.6515 45.8996 22.989 45.2663 22.5069C44.633 22.0249 43.8687 21.7459 43.0738 21.7066C42.8357 21.6989 42.6023 21.6388 42.3901 21.5306C42.1779 21.4224 41.9922 21.2687 41.8462 21.0806C41.7245 20.9172 41.6386 20.7299 41.5942 20.5311C41.5498 20.3323 41.5478 20.1263 41.5884 19.9266C41.753 19.1838 41.6926 18.4088 41.4149 17.7004C41.1373 16.992 40.6549 16.3824 40.0294 15.9493C39.3767 15.4806 38.601 15.2134 37.7982 15.1807C36.9954 15.148 36.2005 15.3512 35.5119 15.7651C35.3071 15.8819 35.0809 15.9561 34.8468 15.9836C34.6127 16.011 34.3755 15.991 34.1493 15.9247C33.9412 15.862 33.7485 15.7564 33.5836 15.6147C33.4187 15.4731 33.2852 15.2985 33.1918 15.1023C32.8684 14.3972 32.3441 13.8033 31.6846 13.395C31.0251 12.9866 30.2598 12.782 29.4845 12.8067C28.6972 12.8083 27.9279 13.0421 27.2728 13.4788C26.6178 13.9155 26.1061 14.5357 25.8018 15.2618C25.7145 15.462 25.5865 15.6419 25.4258 15.7898C25.2652 15.9378 25.0755 16.0506 24.8688 16.1211C24.6458 16.1948 24.4104 16.223 24.1763 16.204C23.9423 16.185 23.7144 16.1193 23.5062 16.0107C22.8021 15.6252 22.0008 15.4535 21.2005 15.5167C20.4002 15.58 19.6358 15.8754 19.001 16.3667C18.3966 16.8253 17.9405 17.4516 17.6895 18.1676C17.4385 18.8835 17.4036 19.6575 17.5893 20.3931C17.6507 20.6001 17.6638 20.8183 17.6276 21.0311C17.5914 21.244 17.5069 21.4456 17.3806 21.6207C17.2422 21.8065 17.0675 21.9622 16.867 22.0783C16.6665 22.1943 16.4444 22.2684 16.2144 22.2959C15.4277 22.3654 14.6796 22.6675 14.0653 23.1638C13.4509 23.6601 12.9983 24.328 12.7649 25.0824C12.5431 25.8201 12.5473 26.6072 12.777 27.3424C13.0068 28.0776 13.4515 28.7271 14.0539 29.2071C14.2205 29.3367 14.3556 29.5023 14.4491 29.6915C14.5426 29.8807 14.5922 30.0886 14.594 30.2996C14.5985 30.5116 14.5557 30.7218 14.4686 30.9151C14.3816 31.1084 14.2524 31.2797 14.0907 31.4167C13.5067 31.9198 13.087 32.5864 12.8857 33.3304C12.6844 34.0744 12.7107 34.8616 12.9613 35.5905C13.2108 36.3463 13.6832 37.0088 14.3165 37.4908C14.9497 37.9729 15.7141 38.2519 16.509 38.2912C16.7471 38.2989 16.9805 38.359 17.1927 38.4672C17.4048 38.5754 17.5906 38.7291 17.7366 38.9172C17.8583 39.0806 17.9442 39.2679 17.9886 39.4667C18.033 39.6655 18.035 39.8715 17.9944 40.0711C17.8298 40.814 17.8902 41.589 18.1679 42.2974C18.4455 43.0057 18.9279 43.6154 19.5534 44.0485C20.2061 44.5172 20.9817 44.7844 21.7846 44.8171C22.5874 44.8498 23.3822 44.6466 24.0709 44.2326C24.2757 44.1159 24.5018 44.0416 24.736 44.0142C24.9701 43.9868 25.2073 44.0068 25.4335 44.073C25.6416 44.1358 25.8343 44.2414 25.9992 44.383C26.1641 44.5247 26.2976 44.6993 26.391 44.8955C26.7178 45.5927 27.2395 46.1805 27.893 46.5878C28.5464 46.9951 29.3038 47.2047 30.0737 47.1911H30.1597C30.9469 47.1895 31.7163 46.9557 32.3713 46.519C33.0264 46.0823 33.5381 45.462 33.8424 44.7359C33.9296 44.5357 34.0577 44.3559 34.2183 44.208C34.3789 44.06 34.5687 43.9472 34.7753 43.8766C34.9983 43.803 35.2338 43.7748 35.4678 43.7938C35.7019 43.8128 35.9298 43.8785 36.138 43.9871C36.8421 44.3726 37.6434 44.5443 38.4437 44.481C39.2439 44.4178 40.0083 44.1224 40.6432 43.6311C41.252 43.1731 41.7119 42.5454 41.9653 41.8269C42.2186 41.1084 42.2541 40.331 42.0671 39.5924C42.0154 39.3945 42.0072 39.1877 42.0432 38.9863C42.0793 38.785 42.1586 38.5939 42.2758 38.4262C42.4142 38.2404 42.589 38.0847 42.7895 37.9686C42.99 37.8525 43.212 37.7785 43.442 37.751C44.2232 37.6631 44.9608 37.3456 45.5616 36.8387C46.1624 36.3318 46.5996 35.6582 46.8179 34.9031C47.037 34.1672 47.0315 33.3826 46.8018 32.6499C46.5722 31.9172 46.1289 31.2698 45.5289 30.7907ZM44.5223 34.2156C44.4332 34.5147 44.2551 34.7795 44.0116 34.9747C43.7681 35.1699 43.471 35.2862 43.1597 35.3082C42.5805 35.3714 42.0214 35.5575 41.5197 35.8538C41.0181 36.1502 40.5853 36.55 40.2503 37.0268C39.9218 37.4774 39.6947 37.9938 39.5845 38.5405C39.4744 39.0871 39.4837 39.6512 39.612 40.1939C39.6765 40.469 39.6597 40.757 39.5639 41.0228C39.468 41.2886 39.2971 41.5209 39.0719 41.6916C38.814 41.8906 38.5039 42.0105 38.1792 42.0366C37.8545 42.0628 37.5292 41.9941 37.2428 41.8389C36.737 41.5608 36.1784 41.392 35.6032 41.3433C35.0281 41.2947 34.4491 41.3673 33.9038 41.5565C33.3618 41.7344 32.8633 42.0242 32.4404 42.4069C32.0174 42.7896 31.6796 43.2569 31.4486 43.7784C31.3182 44.0556 31.1129 44.2908 30.856 44.4576C30.5991 44.6244 30.3008 44.7161 29.9946 44.7225C29.6883 44.7289 29.3864 44.6496 29.1228 44.4937C28.8591 44.3377 28.6443 44.1113 28.5024 43.8398C28.2643 43.334 27.9227 42.8836 27.4999 42.5178C27.077 42.1521 26.5822 41.8789 26.0473 41.7161C25.6498 41.593 25.2359 41.5309 24.8197 41.532C24.075 41.53 23.3443 41.7339 22.7083 42.1212C22.4293 42.2884 22.1077 42.3705 21.7827 42.3574C21.4578 42.3443 21.1438 42.2366 20.8792 42.0475C20.6412 41.8921 20.4561 41.668 20.3487 41.4048C20.2412 41.1417 20.2165 40.852 20.2777 40.5745C20.397 40.0321 20.3973 39.4703 20.2787 38.9278C20.16 38.3852 19.9251 37.8749 19.5902 37.4319C19.2393 36.9675 18.7921 36.5845 18.2794 36.309C17.7666 36.0336 17.2004 35.8722 16.6195 35.836C16.3083 35.8232 16.0082 35.7168 15.7585 35.5306C15.5088 35.3444 15.3211 35.0872 15.2201 34.7926C15.1295 34.5213 15.1221 34.2291 15.1986 33.9536C15.2752 33.678 15.4322 33.4316 15.6497 33.2458C16.0902 32.8786 16.444 32.4186 16.6859 31.8986C16.9279 31.3787 17.0519 30.8117 17.0491 30.2383C17.0418 29.6717 16.9092 29.1137 16.6609 28.6043C16.4126 28.095 16.0547 27.6469 15.6129 27.2921C15.3825 27.1213 15.2113 26.8827 15.1232 26.6097C15.0352 26.3368 15.0347 26.0431 15.1219 25.7699C15.2109 25.4708 15.3891 25.206 15.6326 25.0108C15.876 24.8156 16.1732 24.6993 16.4845 24.6774C17.0637 24.6141 17.6227 24.428 18.1244 24.1317C18.6261 23.8353 19.0588 23.4355 19.3938 22.9587C19.7118 22.5033 19.928 21.9846 20.0276 21.4381C20.1271 20.8915 20.1078 20.33 19.9708 19.7916C19.9063 19.5165 19.923 19.2285 20.0189 18.9627C20.1148 18.6969 20.2857 18.4646 20.5109 18.294C20.7688 18.0949 21.0789 17.975 21.4036 17.9489C21.7283 17.9227 22.0536 17.9914 22.34 18.1466C22.8458 18.4247 23.4044 18.5935 23.9795 18.6422C24.5547 18.6908 25.1337 18.6182 25.679 18.429C26.2097 18.2437 26.6962 17.9507 27.1082 17.5683C27.5202 17.1859 27.8486 16.7225 28.0728 16.2071C28.209 15.9329 28.4191 15.7022 28.6794 15.5409C28.9396 15.3796 29.2397 15.2942 29.5459 15.2942C29.852 15.2942 30.1521 15.3796 30.4124 15.5409C30.6726 15.7022 30.8827 15.9329 31.019 16.2071C31.2571 16.7129 31.5987 17.1633 32.0215 17.529C32.4444 17.8948 32.9392 18.1679 33.4741 18.3308C34.026 18.5006 34.6074 18.5523 35.1806 18.4825C35.7538 18.4127 36.3058 18.223 36.8008 17.9257C37.0787 17.7554 37.4009 17.6715 37.7266 17.6846C38.0522 17.6977 38.3666 17.8072 38.6299 17.9993C38.8679 18.1547 39.053 18.3789 39.1604 18.6421C39.2679 18.9052 39.2926 19.1949 39.2314 19.4724C39.1121 20.0148 39.1118 20.5766 39.2305 21.1191C39.3491 21.6617 39.584 22.172 39.9189 22.615C40.2698 23.0794 40.717 23.4624 41.2297 23.7378C41.7425 24.0133 42.3087 24.1746 42.8896 24.2109C43.2008 24.2237 43.5009 24.3301 43.7506 24.5163C44.0003 24.7025 44.188 24.9597 44.2891 25.2543C44.3796 25.5256 44.387 25.8177 44.3105 26.0933C44.234 26.3689 44.0769 26.6153 43.8594 26.8011C43.4301 27.1741 43.0879 27.6368 42.8567 28.1564C42.6255 28.676 42.5111 29.24 42.5214 29.8086C42.5287 30.3752 42.6613 30.9332 42.9096 31.4425C43.1579 31.9519 43.5158 32.4 43.9576 32.7548C44.1892 32.9119 44.3674 33.1359 44.4683 33.3969C44.5692 33.658 44.588 33.9436 44.5223 34.2156ZM30.442 18.9463C28.9911 18.8609 27.5376 19.062 26.1645 19.5383C24.7914 20.0146 23.5255 20.7567 22.4392 21.7222C20.2452 23.6721 18.9158 26.4137 18.7432 29.3439C18.5706 32.274 19.5692 35.1527 21.5191 37.3467C23.469 39.5406 26.2106 40.8701 29.1408 41.0427C29.3575 41.0549 29.5747 41.0549 29.7914 41.0427C31.4956 41.0327 33.175 40.6339 34.7017 39.8765C34.9931 39.73 35.2143 39.4737 35.3168 39.1641C35.4192 38.8544 35.3945 38.5168 35.248 38.2254C35.1015 37.934 34.8452 37.7128 34.5356 37.6103C34.2259 37.5079 33.8883 37.5326 33.5969 37.6791C32.2495 38.3477 30.7503 38.6509 29.249 38.5584C27.7478 38.4659 26.2971 37.981 25.042 37.1521C23.7869 36.3233 22.7713 35.1795 22.0968 33.8351C21.4223 32.4907 21.1125 30.9928 21.1984 29.4912C21.2625 28.3621 21.549 27.2567 22.0413 26.2386C22.5335 25.2204 23.2219 24.3094 24.067 23.5578C24.9121 22.8063 25.8972 22.2289 26.9659 21.8589C28.0346 21.4888 29.1658 21.3334 30.2947 21.4015C31.7877 21.4882 33.2322 21.9631 34.4854 22.7792C35.7387 23.5953 36.7572 24.7243 37.4404 26.0547C38.1235 27.3851 38.4477 28.8707 38.3807 30.3647C38.3138 31.8587 37.8581 33.3094 37.0586 34.5734C36.9029 34.8464 36.8578 35.1688 36.9327 35.474C37.0076 35.7793 37.1967 36.0442 37.4611 36.2142C37.7255 36.3842 38.045 36.4463 38.3539 36.3876C38.6627 36.329 38.9372 36.1542 39.121 35.8991C40.1358 34.3246 40.7277 32.515 40.8396 30.6451C40.9276 29.1937 40.7282 27.7392 40.2529 26.365C39.7775 24.9907 39.0356 23.7239 38.0696 22.637C37.1037 21.5502 35.9326 20.6647 34.6237 20.0313C33.3148 19.398 31.8937 19.0293 30.442 18.9463ZM28.5635 31.9461L33.8298 26.6676C33.9443 26.5531 34.0801 26.4623 34.2297 26.4004C34.3792 26.3384 34.5395 26.3065 34.7014 26.3065C34.8632 26.3065 35.0235 26.3384 35.1731 26.4004C35.3226 26.4623 35.4585 26.5531 35.573 26.6676C35.6874 26.782 35.7782 26.9179 35.8401 27.0674C35.9021 27.217 35.934 27.3773 35.934 27.5391C35.934 27.701 35.9021 27.8613 35.8401 28.0108C35.7782 28.1604 35.6874 28.2963 35.573 28.4107L29.4351 34.5486C29.321 34.6637 29.1852 34.755 29.0356 34.8173C28.886 34.8796 28.7255 34.9117 28.5635 34.9117C28.4014 34.9117 28.241 34.8796 28.0914 34.8173C27.9418 34.755 27.806 34.6637 27.6919 34.5486L24.0092 30.8659C23.8947 30.7514 23.8039 30.6155 23.742 30.466C23.68 30.3164 23.6482 30.1562 23.6482 29.9943C23.6482 29.8324 23.68 29.6721 23.742 29.5226C23.8039 29.373 23.8947 29.2372 24.0092 29.1227C24.1236 29.0083 24.2595 28.9175 24.4091 28.8555C24.5586 28.7936 24.7189 28.7617 24.8808 28.7617C25.0426 28.7617 25.2029 28.7936 25.3525 28.8555C25.502 28.9175 25.6379 29.0083 25.7523 29.1227L28.5635 31.9461Z"
                  fill="url(#paint0_linear_2193_2053)"
                />
              </g>
              <defs>
                <filter id="filter0_d_2193_2053" x="-2.1346" y="-1.93147" width="63.8512" height="63.861" filterUnits="userSpaceOnUse" color-interpolation-filters="sRGB">
                  <feFlood flood-opacity="0" result="BackgroundImageFix" />
                  <feColorMatrix in="SourceAlpha" type="matrix" values="0 0 0 0 0 0 0 0 0 0 0 0 0 0 0 0 0 0 127 0" result="hardAlpha" />
                  <feOffset />
                  <feGaussianBlur stdDeviation="6.14054" />
                  <feComposite in2="hardAlpha" operator="out" />
                  <feColorMatrix type="matrix" values="0 0 0 0 0 0 0 0 0 0 0 0 0 0 0 0 0 0 0.1 0" />
                  <feBlend mode="normal" in2="BackgroundImageFix" result="effect1_dropShadow_2193_2053" />
                  <feBlend mode="normal" in="SourceGraphic" in2="effect1_dropShadow_2193_2053" result="shape" />
                </filter>
                <linearGradient id="paint0_linear_2193_2053" x1="12.6016" y1="29.9982" x2="46.4282" y2="29.9982" gradientUnits="userSpaceOnUse">
                  <stop stop-color="#235775" />
                  <stop offset="1" stop-color="#54C394" />
                </linearGradient>
              </defs>
            </svg>