<svg width="100" height="100" viewBox="0 0 55 60" fill="none" xmlns="http://www.w3.org/2000/svg">
<g style="mix-blend-mode:multiply" filter="url(#filter0_d_2193_2074)">
<path fill-rule="evenodd" clip-rule="evenodd" d="M41.5107 36.0537C41.576 36.1331 41.642 36.2134 41.7086 36.2936C42.0385 36.6921 42.2473 37.1768 42.3101 37.6903C42.373 38.2038 42.2873 38.7246 42.0633 39.1909C41.5871 40.1864 40.5823 40.8064 39.433 40.8064H15.6697C14.515 40.8064 13.5033 40.1856 13.0287 39.1855C12.8056 38.7193 12.7207 38.199 12.7841 37.6861C12.8475 37.1732 13.0565 36.6892 13.3864 36.2913C13.4983 36.1538 13.6085 36.0209 13.7169 35.8903C13.7321 35.8718 13.7474 35.8535 13.7626 35.8351C15.4566 33.7903 16.479 32.5548 16.479 26.7572C16.479 21.4952 18.5869 18.0694 22.9243 16.2838C22.9477 16.2707 22.9688 16.2538 22.9866 16.2338C23.6552 13.9974 25.4838 12.498 27.5471 12.498C29.6104 12.498 31.4398 13.9974 32.1084 16.2361C32.1262 16.2569 32.1475 16.2744 32.1714 16.2877C34.0301 17.0524 35.4403 18.0871 36.4834 19.4511C37.8982 21.2974 38.616 23.7592 38.616 26.7596C38.616 32.5518 39.6389 33.789 41.3298 35.8343L41.3324 35.8374C41.3913 35.9085 41.4507 35.9808 41.5107 36.0537ZM30.7036 46.0903C29.7496 46.6609 28.6589 46.9627 27.5472 46.9636C26.4356 46.9626 25.3451 46.6607 24.3912 46.0901C23.4372 45.5195 22.6555 44.7014 22.1289 43.7225C22.1041 43.6755 22.0918 43.6229 22.0933 43.5698C22.0949 43.5167 22.1101 43.4649 22.1376 43.4194C22.1651 43.3739 22.2039 43.3363 22.2503 43.3103C22.2966 43.2843 22.3489 43.2707 22.402 43.2709H32.6939C32.7469 43.2709 32.7991 43.2845 32.8454 43.3106C32.8916 43.3367 32.9303 43.3743 32.9577 43.4197C32.9851 43.4652 33.0003 43.5169 33.0018 43.57C33.0033 43.623 32.991 43.6756 32.9662 43.7225C32.4395 44.7015 31.6577 45.5197 30.7036 46.0903Z" fill="url(#paint0_linear_2193_2074)"/>
</g>
<defs>
<filter id="filter0_d_2193_2074" x="0.482592" y="0.216967" width="54.6501" height="59.5641" filterUnits="userSpaceOnUse" color-interpolation-filters="sRGB">
<feFlood flood-opacity="0" result="BackgroundImageFix"/>
<feColorMatrix in="SourceAlpha" type="matrix" values="0 0 0 0 0 0 0 0 0 0 0 0 0 0 0 0 0 0 127 0" result="hardAlpha"/>
<feOffset/>
<feGaussianBlur stdDeviation="6.14054"/>
<feComposite in2="hardAlpha" operator="out"/>
<feColorMatrix type="matrix" values="0 0 0 0 0 0 0 0 0 0 0 0 0 0 0 0 0 0 0.1 0"/>
<feBlend mode="normal" in2="BackgroundImageFix" result="effect1_dropShadow_2193_2074"/>
<feBlend mode="normal" in="SourceGraphic" in2="effect1_dropShadow_2193_2074" result="shape"/>
</filter>
<linearGradient id="paint0_linear_2193_2074" x1="12.7637" y1="29.7308" x2="41.8571" y2="29.7308" gradientUnits="userSpaceOnUse">
<stop stop-color="#235775"/>
<stop offset="1" stop-color="#54C394"/>
</linearGradient>
</defs>
</svg>
