<svg width="100" height="100" viewBox="0 0 66 56" fill="none" xmlns="http://www.w3.org/2000/svg">
<g style="mix-blend-mode:multiply" filter="url(#filter0_d_2193_2066)">
<path d="M50.9527 14.9922H35.3645C34.8478 14.9922 34.3521 15.1975 33.9867 15.5629C33.6213 15.9283 33.416 16.4239 33.416 16.9407V20.8378C33.416 21.3545 33.6213 21.8501 33.9867 22.2156C34.3521 22.581 34.8478 22.7863 35.3645 22.7863V40.323C35.3645 40.8397 35.5698 41.3354 35.9352 41.7008C36.3007 42.0662 36.7963 42.2715 37.3131 42.2715H49.0042C49.521 42.2715 50.0166 42.0662 50.382 41.7008C50.7474 41.3354 50.9527 40.8397 50.9527 40.323V22.7863C51.4695 22.7863 51.9651 22.581 52.3305 22.2156C52.6959 21.8501 52.9012 21.3545 52.9012 20.8378V16.9407C52.9012 16.4239 52.6959 15.9283 52.3305 15.5629C51.9651 15.1975 51.4695 14.9922 50.9527 14.9922ZM37.3131 26.6833H40.2358V36.4259H37.3131V26.6833ZM49.0042 40.323H37.3131V38.3744H42.1844V24.7348H37.3131V22.7863H49.0042V40.323ZM35.3645 20.8378V16.9407H50.9527V20.8378H35.3645Z" fill="url(#paint0_linear_2193_2066)"/>
<path d="M19.5082 32.4918C19.5667 32.4297 19.6368 32.3797 19.7146 32.3447C19.7924 32.3097 19.8764 32.2904 19.9616 32.2878C20.0469 32.2852 20.1318 32.2995 20.2116 32.3298C20.2913 32.36 20.3644 32.4057 20.4265 32.4642C23.4154 35.2798 26.4145 36.9929 29.9438 37.8661C30.4199 36.567 30.4622 35.1373 30.0509 33.7425C29.5053 31.8918 28.2348 30.2794 26.3776 29.0799C24.7197 28.009 23.0626 27.7301 21.4596 27.4606C19.4372 27.1204 17.5268 26.7989 15.7037 24.8686C15.5008 24.6551 15.2243 24.5694 14.96 24.6389C14.658 24.72 14.4555 24.9587 14.3584 25.3533C14.1311 26.2768 14.2773 28.8651 14.9166 31.5975C15.9432 35.9874 17.5816 38.2087 18.7755 39.2994C20.3181 40.7077 22.3324 41.4875 24.3341 41.4875C24.7114 41.4881 25.0882 41.4604 25.4614 41.4047C27.1545 41.1481 28.564 40.2977 29.3584 39.0603C25.7256 38.1153 22.6222 36.3182 19.5346 33.4113C19.4724 33.3527 19.4224 33.2824 19.3873 33.2045C19.3523 33.1265 19.3331 33.0424 19.3306 32.957C19.3282 32.8716 19.3426 32.7865 19.3731 32.7067C19.4035 32.6269 19.4495 32.5538 19.5082 32.4918Z" fill="url(#paint1_linear_2193_2066)"/>
<path d="M31.9319 38.2638C31.2487 38.1587 30.587 38.0267 29.9428 37.8672C29.8103 38.2288 29.6455 38.5777 29.4504 38.9096C29.4207 38.9604 29.3895 39.0107 29.3574 39.0603C30.141 39.2631 30.9344 39.4257 31.7346 39.5474C31.8198 39.5624 31.907 39.5602 31.9913 39.541C32.0756 39.5218 32.1552 39.4859 32.2255 39.4355C32.2958 39.3852 32.3553 39.3213 32.4005 39.2476C32.4457 39.174 32.4758 39.092 32.489 39.0066C32.5021 38.9211 32.4981 38.8339 32.4771 38.75C32.4561 38.6662 32.4186 38.5873 32.3668 38.5182C32.3149 38.449 32.2498 38.3908 32.1752 38.3472C32.1006 38.3035 32.018 38.2751 31.9323 38.2638H31.9319Z" fill="url(#paint2_linear_2193_2066)"/>
<path d="M28.9251 18.9098L21.1154 13.0503C19.4665 11.8132 17.1186 12.1481 15.8814 13.7969C14.6443 15.4458 14.9793 17.7939 16.6281 19.031L24.4379 24.8905C26.0865 26.1274 28.4345 25.7924 29.6717 24.1435C30.9088 22.4947 30.5739 20.1468 28.9251 18.9098ZM21.0123 14.835C18.9304 13.273 17.9564 14.2734 17.9468 14.284C17.8164 14.4237 17.6032 14.4402 17.4534 14.3279C17.443 14.32 17.4326 14.3115 17.4234 14.3018C17.2732 14.1622 17.2653 13.9273 17.4048 13.7777C17.4626 13.7156 18.8487 12.2839 21.4577 14.2414C21.6214 14.3642 21.6548 14.5967 21.5318 14.7606C21.4088 14.9245 21.1766 14.9575 21.0127 14.8345L21.0123 14.835ZM24.9942 24.149L22.4734 22.2577L25.848 17.76L28.3688 19.6513C29.6089 20.5817 29.8607 22.3475 28.9304 23.5873C28 24.8273 26.2343 25.0794 24.9942 24.149Z" fill="url(#paint3_linear_2193_2066)"/>
</g>
<defs>
<filter id="filter0_d_2193_2066" x="-1.78108" y="-3.93147" width="75.2633" height="63.861" filterUnits="userSpaceOnUse" color-interpolation-filters="sRGB">
<feFlood flood-opacity="0" result="BackgroundImageFix"/>
<feColorMatrix in="SourceAlpha" type="matrix" values="0 0 0 0 0 0 0 0 0 0 0 0 0 0 0 0 0 0 127 0" result="hardAlpha"/>
<feOffset/>
<feGaussianBlur stdDeviation="6.14054"/>
<feComposite in2="hardAlpha" operator="out"/>
<feColorMatrix type="matrix" values="0 0 0 0 0 0 0 0 0 0 0 0 0 0 0 0 0 0 0.1 0"/>
<feBlend mode="normal" in2="BackgroundImageFix" result="effect1_dropShadow_2193_2066"/>
<feBlend mode="normal" in="SourceGraphic" in2="effect1_dropShadow_2193_2066" result="shape"/>
</filter>
<linearGradient id="paint0_linear_2193_2066" x1="33.416" y1="28.6318" x2="52.5895" y2="28.6318" gradientUnits="userSpaceOnUse">
<stop stop-color="#235775"/>
<stop offset="1" stop-color="#54C394"/>
</linearGradient>
<linearGradient id="paint1_linear_2193_2066" x1="14.2578" y1="33.0514" x2="30.0753" y2="33.0514" gradientUnits="userSpaceOnUse">
<stop stop-color="#235775"/>
<stop offset="1" stop-color="#54C394"/>
</linearGradient>
<linearGradient id="paint2_linear_2193_2066" x1="29.3574" y1="38.7122" x2="32.4463" y2="38.7122" gradientUnits="userSpaceOnUse">
<stop stop-color="#235775"/>
<stop offset="1" stop-color="#54C394"/>
</linearGradient>
<linearGradient id="paint3_linear_2193_2066" x1="15.8814" y1="13.797" x2="29.451" y2="23.978" gradientUnits="userSpaceOnUse">
<stop stop-color="#235775"/>
<stop offset="1" stop-color="#54C394"/>
</linearGradient>
</defs>
</svg>
