<svg width="100" height="100" viewBox="0 0 56 60" fill="none" xmlns="http://www.w3.org/2000/svg">
<g style="mix-blend-mode:multiply" filter="url(#filter0_d_2193_2061)">
<mask id="path-2-outside-1_2193_2061" maskUnits="userSpaceOnUse" x="12.4551" y="11.8047" width="31" height="36" fill="black">
<rect fill="white" x="12.4551" y="11.8047" width="31" height="36"/>
<path fill-rule="evenodd" clip-rule="evenodd" d="M42.3619 43.6146C42.4019 43.5242 42.4418 43.4339 42.4819 43.3436L42.4832 41.9674C42.4702 41.9479 42.4547 41.929 42.4392 41.91C42.4062 41.8695 42.3732 41.829 42.3639 41.7835C42.165 40.8228 41.5763 40.2084 40.6801 39.8575C40.5658 39.8029 40.4556 39.7402 40.3506 39.67C40.7022 38.1924 40.8027 36.6659 40.6479 35.155C40.5229 33.7703 40.1422 32.4962 38.9741 31.5977C38.2429 31.0353 37.4345 30.8156 36.5294 31.0721C35.493 31.3656 34.7689 32.0473 34.1911 32.9319C32.9962 34.761 32.5924 36.8254 32.3504 38.9438C32.3156 39.2488 32.2833 39.5544 32.2509 39.86C32.1543 40.7721 32.0576 41.6847 31.8963 42.5854C31.5902 44.2919 30.7399 45.0487 29.0321 45.2953C27.0393 45.5831 25.6838 44.5737 25.4679 42.5706C25.3693 41.6326 25.3368 40.6887 25.3707 39.7463C25.4189 38.3124 25.5013 36.8797 25.5836 35.447C25.6126 34.9435 25.6416 34.4399 25.669 33.9363C25.687 33.851 25.7152 33.7684 25.7529 33.6899C25.9998 33.6477 26.2488 33.6182 26.4987 33.6013C27.4789 33.5932 28.4261 33.2467 29.1802 32.6206C30.281 31.7123 31.3748 30.7921 32.4216 29.8225C33.8155 28.5319 35.0386 27.0901 35.8304 25.3415C37.116 22.5026 37.2392 19.6649 35.6168 16.9073C34.361 14.7732 32.4744 13.5527 30.0016 13.2463C29.8494 13.2275 29.7046 13.1562 29.5589 13.0845C29.4596 13.0356 29.3598 12.9865 29.257 12.9537C29.2229 12.9428 29.1882 12.9311 29.1532 12.9194C28.9532 12.8525 28.7405 12.7813 28.5511 12.8121C27.8063 12.9329 27.6018 13.3308 27.7509 14.2442C27.812 14.617 27.9742 14.9279 28.3393 15.0782C28.7284 15.2383 29.0555 15.0829 29.2823 14.7771C29.4854 14.5017 29.7149 14.4622 30.0132 14.5384C31.7637 14.9853 33.2156 15.8556 34.1356 17.4638C35.4754 19.8053 35.4554 22.2118 34.262 24.5675C32.7936 27.4656 30.4694 29.6311 27.7739 31.3433C26.4317 32.196 24.8511 32.5241 23.2304 31.8708C22.7666 31.684 22.2928 31.5216 21.8191 31.3592C21.3039 31.1827 20.7888 31.0061 20.2867 30.7981C17.8172 29.7753 16.2801 27.8442 15.3965 25.41C14.7874 23.7322 14.7977 21.9624 15.0841 20.1922C15.5604 17.2503 18.1969 14.9905 20.3003 14.7111C20.9386 15.2594 21.3467 15.2683 21.6933 14.741C21.8225 14.5059 21.8866 14.2406 21.8789 13.9724C21.8712 13.7043 21.7921 13.4431 21.6496 13.2158C21.3254 12.776 20.8894 12.7098 20.5852 13.1461C20.3381 13.5004 20.0347 13.5481 19.6779 13.592C19.4498 13.6153 19.2249 13.6623 19.0066 13.7321C16.5333 14.5813 14.8093 16.2195 13.9926 18.7085C13.4112 20.4911 13.2992 22.3936 13.6675 24.2321C14.3977 28.0122 16.411 30.8357 19.9941 32.3936C20.8833 32.7797 21.804 33.0935 22.743 33.4134C23.1784 33.5618 23.6177 33.7115 24.0597 33.8704C24.0686 34.0502 24.0676 34.2304 24.0567 34.4101C24.0166 34.8105 23.9712 35.2103 23.9258 35.6101C23.8417 36.351 23.7576 37.0917 23.7073 37.8351C23.6943 38.0279 23.6808 38.2208 23.6674 38.4138C23.5711 39.7978 23.4746 41.185 23.5 42.5683C23.5319 44.3071 24.2618 45.7329 25.8804 46.5643C29.2027 48.271 33.0444 46.3391 33.6122 42.6643C33.7597 41.7098 33.8777 40.7509 33.9958 39.792C34.0709 39.1819 34.146 38.5718 34.2287 37.9628C34.4232 36.5309 34.8472 35.1705 35.6553 33.9622C35.9266 33.5643 36.2648 33.2166 36.6549 32.9343C37.106 32.6061 37.6147 32.6615 37.9563 33.0984C38.2741 33.4887 38.5023 33.944 38.6248 34.4322C38.8708 35.5765 38.8355 36.7323 38.8002 37.8881C38.7842 38.412 38.7682 38.9359 38.7784 39.4588C38.7122 39.4843 38.6526 39.5084 38.597 39.5308C38.489 39.5744 38.3963 39.6118 38.3009 39.6413C37.6272 39.8479 37.0331 40.2555 36.5976 40.8094C36.1621 41.3633 35.9061 42.0369 35.8641 42.7402C35.7878 43.9102 36.2344 44.6989 37.2976 45.1987C38.207 45.621 39.2189 45.7717 40.2119 45.6326C40.6215 45.5917 41.0122 45.4401 41.3422 45.194C41.6723 44.9478 41.9289 44.6164 42.085 44.2355C42.1787 44.0292 42.2703 43.8219 42.3619 43.6146ZM40.902 43.1295C40.7133 43.8441 40.3997 44.0832 39.6258 44.1696V44.1691C39.4722 44.1249 39.3171 44.0842 39.1621 44.0436C38.7815 43.9438 38.4009 43.844 38.0429 43.6918C37.9236 43.6311 37.8193 43.5445 37.7379 43.4386C37.6563 43.3323 37.5995 43.2093 37.5717 43.0784C37.5245 42.7111 37.5756 42.3381 37.7202 41.9972C37.8647 41.6565 38.0975 41.3601 38.3943 41.1392C38.9259 40.7373 39.6214 40.8119 40.3008 41.2892C40.8172 41.6526 41.0799 42.4563 40.902 43.1295ZM39.9762 43.0802C40.1303 42.9254 40.2182 42.717 40.2219 42.4983C40.2214 42.3772 40.1967 42.2572 40.1487 42.1458C40.101 42.0344 40.031 41.934 39.9432 41.8503C39.8555 41.7667 39.7516 41.7017 39.6382 41.6592C39.5246 41.6169 39.4036 41.5978 39.2825 41.6033C39.1739 41.6003 39.0657 41.6196 38.9645 41.6598C38.8636 41.7001 38.7718 41.7603 38.6947 41.8371C38.6177 41.9137 38.557 42.0053 38.5163 42.106C38.4759 42.2069 38.4559 42.3151 38.4584 42.4238C38.4659 42.667 38.5679 42.8979 38.7431 43.067C38.9182 43.2361 39.1523 43.3302 39.3957 43.3293C39.6141 43.3245 39.8223 43.2352 39.9762 43.0802Z"/>
</mask>
<path fill-rule="evenodd" clip-rule="evenodd" d="M42.3619 43.6146C42.4019 43.5242 42.4418 43.4339 42.4819 43.3436L42.4832 41.9674C42.4702 41.9479 42.4547 41.929 42.4392 41.91C42.4062 41.8695 42.3732 41.829 42.3639 41.7835C42.165 40.8228 41.5763 40.2084 40.6801 39.8575C40.5658 39.8029 40.4556 39.7402 40.3506 39.67C40.7022 38.1924 40.8027 36.6659 40.6479 35.155C40.5229 33.7703 40.1422 32.4962 38.9741 31.5977C38.2429 31.0353 37.4345 30.8156 36.5294 31.0721C35.493 31.3656 34.7689 32.0473 34.1911 32.9319C32.9962 34.761 32.5924 36.8254 32.3504 38.9438C32.3156 39.2488 32.2833 39.5544 32.2509 39.86C32.1543 40.7721 32.0576 41.6847 31.8963 42.5854C31.5902 44.2919 30.7399 45.0487 29.0321 45.2953C27.0393 45.5831 25.6838 44.5737 25.4679 42.5706C25.3693 41.6326 25.3368 40.6887 25.3707 39.7463C25.4189 38.3124 25.5013 36.8797 25.5836 35.447C25.6126 34.9435 25.6416 34.4399 25.669 33.9363C25.687 33.851 25.7152 33.7684 25.7529 33.6899C25.9998 33.6477 26.2488 33.6182 26.4987 33.6013C27.4789 33.5932 28.4261 33.2467 29.1802 32.6206C30.281 31.7123 31.3748 30.7921 32.4216 29.8225C33.8155 28.5319 35.0386 27.0901 35.8304 25.3415C37.116 22.5026 37.2392 19.6649 35.6168 16.9073C34.361 14.7732 32.4744 13.5527 30.0016 13.2463C29.8494 13.2275 29.7046 13.1562 29.5589 13.0845C29.4596 13.0356 29.3598 12.9865 29.257 12.9537C29.2229 12.9428 29.1882 12.9311 29.1532 12.9194C28.9532 12.8525 28.7405 12.7813 28.5511 12.8121C27.8063 12.9329 27.6018 13.3308 27.7509 14.2442C27.812 14.617 27.9742 14.9279 28.3393 15.0782C28.7284 15.2383 29.0555 15.0829 29.2823 14.7771C29.4854 14.5017 29.7149 14.4622 30.0132 14.5384C31.7637 14.9853 33.2156 15.8556 34.1356 17.4638C35.4754 19.8053 35.4554 22.2118 34.262 24.5675C32.7936 27.4656 30.4694 29.6311 27.7739 31.3433C26.4317 32.196 24.8511 32.5241 23.2304 31.8708C22.7666 31.684 22.2928 31.5216 21.8191 31.3592C21.3039 31.1827 20.7888 31.0061 20.2867 30.7981C17.8172 29.7753 16.2801 27.8442 15.3965 25.41C14.7874 23.7322 14.7977 21.9624 15.0841 20.1922C15.5604 17.2503 18.1969 14.9905 20.3003 14.7111C20.9386 15.2594 21.3467 15.2683 21.6933 14.741C21.8225 14.5059 21.8866 14.2406 21.8789 13.9724C21.8712 13.7043 21.7921 13.4431 21.6496 13.2158C21.3254 12.776 20.8894 12.7098 20.5852 13.1461C20.3381 13.5004 20.0347 13.5481 19.6779 13.592C19.4498 13.6153 19.2249 13.6623 19.0066 13.7321C16.5333 14.5813 14.8093 16.2195 13.9926 18.7085C13.4112 20.4911 13.2992 22.3936 13.6675 24.2321C14.3977 28.0122 16.411 30.8357 19.9941 32.3936C20.8833 32.7797 21.804 33.0935 22.743 33.4134C23.1784 33.5618 23.6177 33.7115 24.0597 33.8704C24.0686 34.0502 24.0676 34.2304 24.0567 34.4101C24.0166 34.8105 23.9712 35.2103 23.9258 35.6101C23.8417 36.351 23.7576 37.0917 23.7073 37.8351C23.6943 38.0279 23.6808 38.2208 23.6674 38.4138C23.5711 39.7978 23.4746 41.185 23.5 42.5683C23.5319 44.3071 24.2618 45.7329 25.8804 46.5643C29.2027 48.271 33.0444 46.3391 33.6122 42.6643C33.7597 41.7098 33.8777 40.7509 33.9958 39.792C34.0709 39.1819 34.146 38.5718 34.2287 37.9628C34.4232 36.5309 34.8472 35.1705 35.6553 33.9622C35.9266 33.5643 36.2648 33.2166 36.6549 32.9343C37.106 32.6061 37.6147 32.6615 37.9563 33.0984C38.2741 33.4887 38.5023 33.944 38.6248 34.4322C38.8708 35.5765 38.8355 36.7323 38.8002 37.8881C38.7842 38.412 38.7682 38.9359 38.7784 39.4588C38.7122 39.4843 38.6526 39.5084 38.597 39.5308C38.489 39.5744 38.3963 39.6118 38.3009 39.6413C37.6272 39.8479 37.0331 40.2555 36.5976 40.8094C36.1621 41.3633 35.9061 42.0369 35.8641 42.7402C35.7878 43.9102 36.2344 44.6989 37.2976 45.1987C38.207 45.621 39.2189 45.7717 40.2119 45.6326C40.6215 45.5917 41.0122 45.4401 41.3422 45.194C41.6723 44.9478 41.9289 44.6164 42.085 44.2355C42.1787 44.0292 42.2703 43.8219 42.3619 43.6146ZM40.902 43.1295C40.7133 43.8441 40.3997 44.0832 39.6258 44.1696V44.1691C39.4722 44.1249 39.3171 44.0842 39.1621 44.0436C38.7815 43.9438 38.4009 43.844 38.0429 43.6918C37.9236 43.6311 37.8193 43.5445 37.7379 43.4386C37.6563 43.3323 37.5995 43.2093 37.5717 43.0784C37.5245 42.7111 37.5756 42.3381 37.7202 41.9972C37.8647 41.6565 38.0975 41.3601 38.3943 41.1392C38.9259 40.7373 39.6214 40.8119 40.3008 41.2892C40.8172 41.6526 41.0799 42.4563 40.902 43.1295ZM39.9762 43.0802C40.1303 42.9254 40.2182 42.717 40.2219 42.4983C40.2214 42.3772 40.1967 42.2572 40.1487 42.1458C40.101 42.0344 40.031 41.934 39.9432 41.8503C39.8555 41.7667 39.7516 41.7017 39.6382 41.6592C39.5246 41.6169 39.4036 41.5978 39.2825 41.6033C39.1739 41.6003 39.0657 41.6196 38.9645 41.6598C38.8636 41.7001 38.7718 41.7603 38.6947 41.8371C38.6177 41.9137 38.557 42.0053 38.5163 42.106C38.4759 42.2069 38.4559 42.3151 38.4584 42.4238C38.4659 42.667 38.5679 42.8979 38.7431 43.067C38.9182 43.2361 39.1523 43.3302 39.3957 43.3293C39.6141 43.3245 39.8223 43.2352 39.9762 43.0802Z" fill="url(#paint0_linear_2193_2061)"/>
<path d="M42.4819 43.3436L42.7592 43.4668L42.7853 43.4081L42.7853 43.3439L42.4819 43.3436ZM42.3619 43.6146L42.6395 43.7372L42.6395 43.7372L42.3619 43.6146ZM42.4832 41.9674L42.7867 41.9677L42.7868 41.8755L42.7356 41.7988L42.4832 41.9674ZM42.4392 41.91L42.6744 41.7181L42.6744 41.7181L42.4392 41.91ZM42.3639 41.7835L42.6613 41.7228L42.6611 41.722L42.3639 41.7835ZM40.6801 39.8575L40.5495 40.1314L40.5593 40.1361L40.5695 40.1401L40.6801 39.8575ZM40.3506 39.67L40.0553 39.5997L40.0065 39.8049L40.1819 39.9222L40.3506 39.67ZM40.6479 35.155L40.3456 35.1823L40.346 35.1859L40.6479 35.155ZM38.9741 31.5977L39.1592 31.3571L39.1591 31.3571L38.9741 31.5977ZM36.5294 31.0721L36.6121 31.3641L36.6122 31.3641L36.5294 31.0721ZM34.1911 32.9319L34.4452 33.0979L34.4452 33.0979L34.1911 32.9319ZM32.3504 38.9438L32.0489 38.9093L32.0489 38.9094L32.3504 38.9438ZM32.2509 39.86L32.5527 39.892V39.892L32.2509 39.86ZM31.8963 42.5854L32.195 42.639L32.195 42.6389L31.8963 42.5854ZM29.0321 45.2953L29.0755 45.5957H29.0755L29.0321 45.2953ZM25.4679 42.5706L25.1661 42.6023L25.1662 42.6031L25.4679 42.5706ZM25.3707 39.7463L25.6739 39.7572L25.674 39.7565L25.3707 39.7463ZM25.5836 35.447L25.8866 35.4644L25.5836 35.447ZM25.669 33.9363L25.3721 33.8738L25.3673 33.8966L25.366 33.9198L25.669 33.9363ZM25.7529 33.6899L25.7017 33.3908L25.5472 33.4172L25.4793 33.5585L25.7529 33.6899ZM26.4987 33.6013L26.4962 33.2978L26.4873 33.2979L26.4783 33.2985L26.4987 33.6013ZM29.1802 32.6206L28.9871 32.3865L28.9864 32.3871L29.1802 32.6206ZM32.4216 29.8225L32.2154 29.5998L32.2153 29.5998L32.4216 29.8225ZM35.8304 25.3415L36.1069 25.4667L36.1069 25.4667L35.8304 25.3415ZM35.6168 16.9073L35.8784 16.7534L35.8784 16.7534L35.6168 16.9073ZM30.0016 13.2463L30.0389 12.9452L30.0388 12.9451L30.0016 13.2463ZM29.5589 13.0845L29.4248 13.3568V13.3568L29.5589 13.0845ZM29.257 12.9537L29.1646 13.2427L29.1647 13.2428L29.257 12.9537ZM29.1532 12.9194L29.0568 13.2072L29.0568 13.2072L29.1532 12.9194ZM28.5511 12.8121L28.5997 13.1117L28.5999 13.1116L28.5511 12.8121ZM27.7509 14.2442L27.4514 14.2931L27.4514 14.2932L27.7509 14.2442ZM28.3393 15.0782L28.2237 15.3589L28.2238 15.3589L28.3393 15.0782ZM29.2823 14.7771L29.526 14.9578L29.5265 14.9572L29.2823 14.7771ZM30.0132 14.5384L29.9381 14.8324L29.9382 14.8324L30.0132 14.5384ZM34.1356 17.4638L33.8722 17.6145L33.8722 17.6145L34.1356 17.4638ZM34.262 24.5675L34.5327 24.7046L34.5327 24.7046L34.262 24.5675ZM27.7739 31.3433L27.6112 31.0872L27.6112 31.0872L27.7739 31.3433ZM23.2304 31.8708L23.3438 31.5894L23.3438 31.5893L23.2304 31.8708ZM21.8191 31.3592L21.7207 31.6463H21.7207L21.8191 31.3592ZM20.2867 30.7981L20.4028 30.5177L20.4028 30.5177L20.2867 30.7981ZM15.3965 25.41L15.6818 25.3065L15.6818 25.3065L15.3965 25.41ZM15.0841 20.1922L14.7845 20.1437L14.7845 20.1437L15.0841 20.1922ZM20.3003 14.7111L20.498 14.4809L20.395 14.3924L20.2603 14.4103L20.3003 14.7111ZM21.6933 14.741L21.9469 14.9076L21.9535 14.8976L21.9592 14.8872L21.6933 14.741ZM21.8789 13.9724L22.1823 13.9637V13.9637L21.8789 13.9724ZM21.6496 13.2158L21.9067 13.0546L21.9007 13.0449L21.8939 13.0357L21.6496 13.2158ZM20.5852 13.1461L20.8341 13.3197L20.8341 13.3197L20.5852 13.1461ZM19.6779 13.592L19.7087 13.894L19.7149 13.8932L19.6779 13.592ZM19.0066 13.7321L18.9141 13.443L18.908 13.445L19.0066 13.7321ZM13.9926 18.7085L13.7042 18.6139L13.704 18.6144L13.9926 18.7085ZM13.6675 24.2321L13.9655 24.1745L13.965 24.1725L13.6675 24.2321ZM19.9941 32.3936L19.8731 32.6719L19.8732 32.6719L19.9941 32.3936ZM22.743 33.4134L22.6451 33.7007L22.743 33.4134ZM24.0597 33.8704L24.3628 33.8554L24.3528 33.6533L24.1624 33.5848L24.0597 33.8704ZM24.0567 34.4101L24.3589 34.4404L24.3596 34.4285L24.0567 34.4101ZM23.9258 35.6101L24.2274 35.6443L23.9258 35.6101ZM23.7073 37.8351L24.0101 37.8556L24.0101 37.8556L23.7073 37.8351ZM23.6674 38.4138L23.3646 38.3928L23.6674 38.4138ZM23.5 42.5683L23.8034 42.5628V42.5628L23.5 42.5683ZM25.8804 46.5643L26.0191 46.2944H26.0191L25.8804 46.5643ZM33.6122 42.6643L33.3122 42.6179L33.3122 42.6179L33.6122 42.6643ZM33.9958 39.792L34.297 39.829L33.9958 39.792ZM34.2287 37.9628L33.928 37.9219L33.928 37.922L34.2287 37.9628ZM35.6553 33.9622L35.4046 33.7912L35.403 33.7934L35.6553 33.9622ZM36.6549 32.9343L36.8328 33.1802L36.8334 33.1797L36.6549 32.9343ZM37.9563 33.0984L37.7172 33.2854L37.721 33.29L37.9563 33.0984ZM38.6248 34.4322L38.9216 34.3684L38.9191 34.3584L38.6248 34.4322ZM38.8002 37.8881L39.1035 37.8973V37.8973L38.8002 37.8881ZM38.7784 39.4588L38.8875 39.742L39.086 39.6656L39.0818 39.4529L38.7784 39.4588ZM38.597 39.5308L38.7106 39.8122L38.7106 39.8122L38.597 39.5308ZM38.3009 39.6413L38.3899 39.9315L38.3907 39.9312L38.3009 39.6413ZM35.8641 42.7402L36.167 42.7599L36.1671 42.7582L35.8641 42.7402ZM37.2976 45.1987L37.1685 45.4734L37.1698 45.474L37.2976 45.1987ZM40.2119 45.6326L40.1817 45.3304L40.1698 45.3321L40.2119 45.6326ZM41.3422 45.194L41.5237 45.4372H41.5237L41.3422 45.194ZM42.085 44.2355L41.8085 44.1099L41.8042 44.1204L42.085 44.2355ZM39.6258 44.1696H39.3223V44.5088L39.6594 44.4712L39.6258 44.1696ZM40.902 43.1295L40.6086 43.052L40.6085 43.0521L40.902 43.1295ZM39.6258 44.1691H39.9292V43.9407L39.7097 43.8775L39.6258 44.1691ZM39.1621 44.0436L39.239 43.75H39.239L39.1621 44.0436ZM38.0429 43.6918L37.9053 43.9623L37.9146 43.9671L37.9242 43.9711L38.0429 43.6918ZM37.7379 43.4386L37.4971 43.6233L37.4972 43.6235L37.7379 43.4386ZM37.5717 43.0784L37.2708 43.1171L37.2723 43.1293L37.2749 43.1413L37.5717 43.0784ZM37.7202 41.9972L37.4408 41.8786L37.4408 41.8787L37.7202 41.9972ZM38.3943 41.1392L38.5755 41.3826L38.5773 41.3813L38.3943 41.1392ZM40.3008 41.2892L40.4755 41.041L40.4753 41.0408L40.3008 41.2892ZM40.2219 42.4983L40.5254 42.5034L40.5254 42.4972L40.2219 42.4983ZM39.9762 43.0802L39.7611 42.8661L39.7608 42.8664L39.9762 43.0802ZM40.1487 42.1458L39.8698 42.2653L39.87 42.2658L40.1487 42.1458ZM39.9432 41.8503L40.1526 41.6307L39.9432 41.8503ZM39.6382 41.6592L39.7447 41.375L39.744 41.3747L39.6382 41.6592ZM39.2825 41.6033L39.2742 41.9066L39.2852 41.9069L39.2962 41.9064L39.2825 41.6033ZM38.9645 41.6598L38.8524 41.3779L38.8521 41.3779L38.9645 41.6598ZM38.6947 41.8371L38.9087 42.0524L38.909 42.052L38.6947 41.8371ZM38.5163 42.106L38.2349 41.9923L38.2346 41.9931L38.5163 42.106ZM38.4584 42.4238L38.1549 42.4307L38.155 42.4331L38.4584 42.4238ZM38.7431 43.067L38.954 42.8487L38.9539 42.8486L38.7431 43.067ZM39.3957 43.3293L39.3968 43.6328L39.4023 43.6327L39.3957 43.3293ZM42.2045 43.2204C42.1643 43.311 42.1242 43.4016 42.0843 43.4919L42.6395 43.7372C42.6795 43.6468 42.7193 43.5567 42.7592 43.4668L42.2045 43.2204ZM42.1797 41.9671L42.1784 43.3433L42.7853 43.3439L42.7867 41.9677L42.1797 41.9671ZM42.2041 42.1018C42.2214 42.1231 42.2273 42.1307 42.2309 42.136L42.7356 41.7988C42.7131 41.7652 42.688 41.7348 42.6744 41.7181L42.2041 42.1018ZM42.0665 41.8442C42.0937 41.9773 42.1845 42.0777 42.2041 42.1018L42.6744 41.7181C42.6657 41.7074 42.66 41.7004 42.6549 41.6939C42.6501 41.6876 42.6479 41.6845 42.6472 41.6834C42.6465 41.6823 42.6485 41.6851 42.6512 41.6912C42.6541 41.6975 42.6583 41.7082 42.6612 41.7228L42.0665 41.8442ZM40.5695 40.1401C41.3829 40.4586 41.8913 40.9975 42.0667 41.845L42.6611 41.722C42.4388 40.6481 41.7698 39.9582 40.7908 39.5749L40.5695 40.1401ZM40.1819 39.9222C40.299 40.0006 40.422 40.0705 40.5495 40.1314L40.8108 39.5836C40.7097 39.5353 40.6121 39.4798 40.5193 39.4177L40.1819 39.9222ZM40.346 35.1859C40.4973 36.663 40.3991 38.1552 40.0553 39.5997L40.6458 39.7402C41.0053 38.2295 41.108 36.6688 40.9498 35.1241L40.346 35.1859ZM38.7891 31.8382C39.8589 32.6612 40.2238 33.8327 40.3456 35.1823L40.9501 35.1277C40.8219 33.7079 40.4254 32.3312 39.1592 31.3571L38.7891 31.8382ZM36.6122 31.3641C37.4099 31.1379 38.1208 31.3242 38.7891 31.8382L39.1591 31.3571C38.365 30.7463 37.459 30.4932 36.4466 30.7802L36.6122 31.3641ZM34.4452 33.0979C34.9978 32.2517 35.6686 31.6313 36.6121 31.3641L36.4467 30.7801C35.3174 31.0999 34.5399 31.8429 33.937 32.766L34.4452 33.0979ZM32.6519 38.9782C32.8926 36.8709 33.2905 34.8655 34.4452 33.0979L33.937 32.7659C32.7019 34.6566 32.2921 36.78 32.0489 38.9093L32.6519 38.9782ZM32.5527 39.892C32.5851 39.5862 32.6173 39.2818 32.6519 38.9782L32.0489 38.9094C32.0139 39.2158 31.9814 39.5226 31.9491 39.8281L32.5527 39.892ZM32.195 42.6389C32.3586 41.7257 32.4563 40.8022 32.5527 39.892L31.9491 39.8281C31.8523 40.7419 31.7567 41.6437 31.5976 42.5319L32.195 42.6389ZM29.0755 45.5957C29.963 45.4676 30.6704 45.201 31.1969 44.7097C31.725 44.2168 32.0349 43.5315 32.195 42.639L31.5976 42.5318C31.4516 43.3457 31.1833 43.8921 30.7828 44.266C30.3806 44.6413 29.809 44.8765 28.9887 44.995L29.0755 45.5957ZM25.1662 42.6031C25.2808 43.6669 25.7037 44.5051 26.4002 45.0338C27.0956 45.5616 28.0206 45.748 29.0755 45.5957L28.9887 44.995C28.0509 45.1304 27.3017 44.956 26.7671 44.5503C26.2337 44.1454 25.8708 43.4774 25.7696 42.5381L25.1662 42.6031ZM25.0674 39.7354C25.033 40.692 25.066 41.6502 25.1661 42.6023L25.7697 42.5389C25.6726 41.615 25.6406 40.6853 25.6739 39.7572L25.0674 39.7354ZM25.2807 35.4296C25.1983 36.8617 25.1157 38.298 25.0674 39.7361L25.674 39.7565C25.7221 38.3269 25.8042 36.8977 25.8866 35.4644L25.2807 35.4296ZM25.366 33.9198C25.3386 34.4229 25.3096 34.926 25.2807 35.4296L25.8866 35.4644C25.9156 34.9609 25.9446 34.457 25.9721 33.9529L25.366 33.9198ZM25.4793 33.5585C25.4311 33.6588 25.3951 33.7645 25.3721 33.8738L25.966 33.9989C25.9789 33.9375 25.9992 33.878 26.0264 33.8214L25.4793 33.5585ZM26.4783 33.2985C26.2181 33.3161 25.9589 33.3468 25.7017 33.3908L25.804 33.9891C26.0407 33.9486 26.2794 33.9203 26.5192 33.9041L26.4783 33.2985ZM28.9864 32.3871C28.2861 32.9685 27.4064 33.2903 26.4962 33.2978L26.5012 33.9048C27.5514 33.8961 28.5662 33.5249 29.3741 32.8541L28.9864 32.3871ZM32.2153 29.5998C31.1752 30.5634 30.0869 31.479 28.9871 32.3865L29.3734 32.8547C30.4751 31.9455 31.5744 31.0209 32.6278 30.0451L32.2153 29.5998ZM35.554 25.2164C34.7849 26.9147 33.5926 28.3247 32.2154 29.5998L32.6277 30.0452C34.0383 28.7392 35.2923 27.2654 36.1069 25.4667L35.554 25.2164ZM35.3552 17.0612C36.9176 19.7167 36.8077 22.4477 35.554 25.2164L36.1069 25.4667C37.4243 22.5574 37.5609 19.613 35.8784 16.7534L35.3552 17.0612ZM29.9643 13.5475C32.3454 13.8426 34.1483 15.01 35.3552 17.0612L35.8784 16.7534C34.5738 14.5364 32.6034 13.2629 30.0389 12.9452L29.9643 13.5475ZM29.4248 13.3568C29.5604 13.4235 29.7521 13.5213 29.9644 13.5475L30.0388 12.9451C29.9466 12.9338 29.8487 12.8889 29.6929 12.8122L29.4248 13.3568ZM29.1647 13.2428C29.2423 13.2675 29.3217 13.306 29.4248 13.3568L29.6929 12.8122C29.5975 12.7652 29.4774 12.7055 29.3494 12.6646L29.1647 13.2428ZM29.0568 13.2072C29.0916 13.2188 29.1282 13.2311 29.1646 13.2427L29.3495 12.6646C29.3177 12.6544 29.2849 12.6435 29.2495 12.6316L29.0568 13.2072ZM28.5999 13.1116C28.7005 13.0953 28.8359 13.1332 29.0568 13.2072L29.2495 12.6316C29.0705 12.5717 28.7805 12.4673 28.5023 12.5126L28.5999 13.1116ZM28.0505 14.1953C27.9779 13.7509 28.008 13.5113 28.0818 13.377C28.1428 13.2659 28.2699 13.1652 28.5997 13.1117L28.5025 12.5125C28.0875 12.5799 27.7399 12.7385 27.5497 13.0849C27.3723 13.4081 27.3748 13.8241 27.4514 14.2931L28.0505 14.1953ZM28.4549 14.7976C28.2228 14.7021 28.1018 14.509 28.0504 14.1952L27.4514 14.2932C27.5221 14.7251 27.7257 15.1537 28.2237 15.3589L28.4549 14.7976ZM29.0385 14.5963C28.9508 14.7145 28.8575 14.7849 28.769 14.8168C28.6862 14.8465 28.585 14.8512 28.4548 14.7976L28.2238 15.3589C28.4827 15.4654 28.7396 15.4723 28.9743 15.3879C29.2033 15.3056 29.387 15.1454 29.526 14.9578L29.0385 14.5963ZM30.0884 14.2443C29.9121 14.1993 29.7201 14.1786 29.5276 14.2344C29.3291 14.2919 29.1693 14.419 29.0381 14.5969L29.5265 14.9572C29.5984 14.8597 29.6549 14.8294 29.6965 14.8174C29.7441 14.8036 29.816 14.8012 29.9381 14.8324L30.0884 14.2443ZM34.399 17.3131C33.4275 15.6148 31.8945 14.7055 30.0883 14.2443L29.9382 14.8324C31.6329 15.2651 33.0038 16.0965 33.8722 17.6145L34.399 17.3131ZM34.5327 24.7046C35.7693 22.2638 35.7927 19.7487 34.399 17.313L33.8722 17.6145C35.1581 19.8618 35.1415 22.1598 33.9913 24.4303L34.5327 24.7046ZM27.9366 31.5995C30.6625 29.868 33.0324 27.6656 34.5327 24.7046L33.9913 24.4303C32.5548 27.2655 30.2763 29.3942 27.6112 31.0872L27.9366 31.5995ZM23.1169 32.1523C24.8474 32.8498 26.5309 32.4926 27.9366 31.5995L27.6112 31.0872C26.3326 31.8995 24.8547 32.1983 23.3438 31.5894L23.1169 32.1523ZM21.7207 31.6463C22.1957 31.8091 22.6619 31.9689 23.1169 32.1523L23.3438 31.5893C22.8714 31.399 22.39 31.2341 21.9175 31.0721L21.7207 31.6463ZM20.1705 31.0785C20.6829 31.2907 21.2071 31.4703 21.7207 31.6463L21.9175 31.0721C21.4008 30.8951 20.8947 30.7215 20.4028 30.5177L20.1705 31.0785ZM15.1112 25.5136C16.0171 28.0093 17.6058 30.0163 20.1706 31.0785L20.4028 30.5177C18.0285 29.5344 16.543 27.6791 15.6818 25.3065L15.1112 25.5136ZM14.7845 20.1437C14.4935 21.942 14.478 23.7692 15.1112 25.5136L15.6818 25.3065C15.0968 23.6953 15.1018 21.9827 15.3837 20.2407L14.7845 20.1437ZM20.2603 14.4103C19.1274 14.5608 17.8847 15.2358 16.869 16.2371C15.85 17.2416 15.0347 18.5982 14.7845 20.1437L15.3837 20.2407C15.6098 18.8443 16.3509 17.6001 17.2951 16.6694C18.2425 15.7354 19.3698 15.1409 20.3403 15.012L20.2603 14.4103ZM21.4397 14.5743C21.2947 14.7949 21.1896 14.8276 21.1127 14.826C20.9995 14.8235 20.8076 14.7468 20.498 14.4809L20.1026 14.9414C20.4313 15.2237 20.7627 15.4255 21.0997 15.4328C21.4731 15.4408 21.7453 15.2144 21.9469 14.9076L21.4397 14.5743ZM21.5755 13.9811C21.5817 14.1952 21.5305 14.4071 21.4274 14.5947L21.9592 14.8872C22.1145 14.6047 22.1915 14.2859 22.1823 13.9637L21.5755 13.9811ZM21.3925 13.377C21.5062 13.5584 21.5694 13.767 21.5755 13.9811L22.1823 13.9637C22.173 13.6416 22.0779 13.3277 21.9067 13.0546L21.3925 13.377ZM20.8341 13.3197C20.9415 13.1656 21.031 13.15 21.0825 13.1546C21.1521 13.1609 21.2724 13.2155 21.4053 13.3958L21.8939 13.0357C21.7027 12.7763 21.4428 12.5778 21.1373 12.5502C20.8136 12.5208 20.533 12.6903 20.3362 12.9726L20.8341 13.3197ZM19.7149 13.8932C19.8895 13.8717 20.0933 13.8456 20.2873 13.7665C20.4928 13.6827 20.6771 13.5449 20.8341 13.3197L20.3362 12.9725C20.2462 13.1016 20.1552 13.1648 20.0581 13.2044C19.9494 13.2488 19.823 13.2684 19.6408 13.2908L19.7149 13.8932ZM19.099 14.0211C19.2973 13.9577 19.5016 13.9151 19.7087 13.8939L19.647 13.2901C19.3981 13.3155 19.1524 13.3668 18.9141 13.443L19.099 14.0211ZM14.2809 18.8031C15.0658 16.4112 16.7148 14.8399 19.1051 14.0191L18.908 13.445C16.3518 14.3228 14.5528 16.0277 13.7042 18.6139L14.2809 18.8031ZM13.965 24.1725C13.607 22.3851 13.7159 20.5356 14.2811 18.8026L13.704 18.6144C13.1065 20.4466 12.9914 22.402 13.3699 24.2917L13.965 24.1725ZM20.1151 32.1152C16.6346 30.602 14.679 27.8685 13.9654 24.1745L13.3695 24.2897C14.1164 28.1559 16.1875 31.0694 19.8731 32.6719L20.1151 32.1152ZM22.8409 33.1262C21.8998 32.8055 20.9909 32.4956 20.115 32.1152L19.8732 32.6719C20.7756 33.0638 21.7082 33.3814 22.6451 33.7007L22.8409 33.1262ZM24.1624 33.5848C23.7176 33.4249 23.2759 33.2744 22.8409 33.1262L22.6451 33.7007C23.0809 33.8492 23.5178 33.9981 23.957 34.156L24.1624 33.5848ZM24.3596 34.4285C24.3712 34.2376 24.3722 34.0463 24.3628 33.8554L23.7566 33.8854C23.7649 34.054 23.764 34.2231 23.7538 34.3918L24.3596 34.4285ZM24.2274 35.6443C24.2727 35.2449 24.3183 34.8431 24.3587 34.4404L23.7547 34.3799C23.7149 34.7779 23.6697 35.1758 23.6243 35.5758L24.2274 35.6443ZM24.0101 37.8556C24.0599 37.1202 24.1431 36.3864 24.2274 35.6443L23.6243 35.5758C23.5403 36.3157 23.4554 37.0632 23.4046 37.8146L24.0101 37.8556ZM23.9701 38.4349C23.9836 38.242 23.997 38.0488 24.0101 37.8556L23.4046 37.8145C23.3915 38.0071 23.3781 38.1997 23.3646 38.3928L23.9701 38.4349ZM23.8034 42.5628C23.7783 41.195 23.8737 39.8211 23.9701 38.4349L23.3646 38.3928C23.2685 39.7745 23.1708 41.175 23.1965 42.5739L23.8034 42.5628ZM26.0191 46.2944C24.5147 45.5216 23.8336 44.2075 23.8034 42.5628L23.1965 42.5739C23.2302 44.4067 24.0089 45.9441 25.7417 46.8342L26.0191 46.2944ZM33.3122 42.6179C32.7766 46.0849 29.1601 47.9079 26.0191 46.2944L25.7417 46.8342C29.2454 48.6341 33.3122 46.5933 33.9121 42.7106L33.3122 42.6179ZM33.6946 39.7549C33.5764 40.7146 33.4589 41.6688 33.3122 42.6179L33.9121 42.7106C34.0604 41.7507 34.179 40.7872 34.297 39.829L33.6946 39.7549ZM33.928 37.922C33.845 38.5332 33.7696 39.1452 33.6946 39.7549L34.297 39.829C34.3721 39.2187 34.447 38.6105 34.5294 38.0036L33.928 37.922ZM35.403 33.7934C34.5628 35.0498 34.127 36.4574 33.928 37.9219L34.5294 38.0037C34.7195 36.6044 35.1316 35.2912 35.9076 34.1309L35.403 33.7934ZM36.477 32.6885C36.0585 32.9913 35.6957 33.3643 35.4046 33.7912L35.906 34.1331C36.1576 33.7643 36.4712 33.4419 36.8328 33.1802L36.477 32.6885ZM38.1954 32.9115C37.982 32.6385 37.7002 32.4666 37.3832 32.4282C37.0679 32.39 36.7527 32.4879 36.4763 32.6889L36.8334 33.1797C37.0082 33.0525 37.1729 33.0141 37.3102 33.0307C37.4457 33.0472 37.589 33.1214 37.7172 33.2853L38.1954 32.9115ZM38.9191 34.3584C38.7858 33.827 38.5375 33.3315 38.1917 32.9068L37.721 33.29C38.0107 33.6458 38.2187 34.0609 38.3304 34.5061L38.9191 34.3584ZM39.1035 37.8973C39.1386 36.7476 39.1765 35.5547 38.9215 34.3684L38.3281 34.496C38.565 35.5982 38.5323 36.7169 38.4969 37.8788L39.1035 37.8973ZM39.0818 39.4529C39.0718 38.9389 39.0875 38.4225 39.1035 37.8973L38.4969 37.8788C38.4809 38.4015 38.4646 38.933 38.475 39.4647L39.0818 39.4529ZM38.7106 39.8122C38.7663 39.7897 38.8239 39.7665 38.8875 39.742L38.6694 39.1756C38.6006 39.2021 38.5389 39.227 38.4834 39.2494L38.7106 39.8122ZM38.3907 39.9312C38.5003 39.8972 38.605 39.8548 38.7106 39.8122L38.4835 39.2494C38.373 39.2939 38.2923 39.3263 38.2111 39.3514L38.3907 39.9312ZM36.8362 40.9969C37.2334 40.4916 37.7754 40.1199 38.3899 39.9315L38.2119 39.3512C37.479 39.5759 36.8327 40.0193 36.359 40.6218L36.8362 40.9969ZM36.1671 42.7582C36.2053 42.1168 36.4389 41.5023 36.8362 40.9969L36.359 40.6218C35.8853 41.2243 35.6068 41.9571 35.5612 42.7221L36.1671 42.7582ZM37.4267 44.9241C36.9366 44.6937 36.6131 44.4088 36.4162 44.0687C36.2189 43.728 36.1316 43.3022 36.167 42.7599L35.5613 42.7204C35.5203 43.3482 35.6181 43.9018 35.8909 44.3729C36.164 44.8446 36.5954 45.204 37.1685 45.4734L37.4267 44.9241ZM40.1698 45.3321C39.2347 45.4631 38.2818 45.3212 37.4255 44.9235L37.1698 45.474C38.1322 45.9209 39.2031 46.0804 40.254 45.9332L40.1698 45.3321ZM41.1608 44.9507C40.8749 45.1639 40.5365 45.2952 40.1818 45.3307L40.2421 45.9346C40.7065 45.8882 41.1495 45.7163 41.5237 45.4372L41.1608 44.9507ZM41.8042 44.1204C41.6689 44.4505 41.4466 44.7375 41.1608 44.9507L41.5237 45.4372C41.8979 45.1581 42.1888 44.7824 42.3658 44.3506L41.8042 44.1204ZM42.0843 43.4919C41.9926 43.6995 41.9017 43.9054 41.8087 44.11L42.3613 44.361C42.4558 44.1531 42.548 43.9443 42.6395 43.7372L42.0843 43.4919ZM39.6594 44.4712C40.065 44.4259 40.407 44.3361 40.6736 44.1216C40.9448 43.9034 41.0936 43.5927 41.1954 43.207L40.6085 43.0521C40.5217 43.381 40.4194 43.5471 40.2931 43.6487C40.1622 43.754 39.9604 43.8269 39.5921 43.868L39.6594 44.4712ZM39.3223 44.1691V44.1696H39.9292V44.1691H39.3223ZM39.0851 44.3371C39.2407 44.378 39.3923 44.4177 39.5418 44.4608L39.7097 43.8775C39.5521 43.8321 39.3935 43.7905 39.239 43.75L39.0851 44.3371ZM37.9242 43.9711C38.306 44.1334 38.7083 44.2383 39.0851 44.3371L39.239 43.75C38.8547 43.6492 38.4959 43.5545 38.1616 43.4125L37.9242 43.9711ZM37.4972 43.6235C37.6062 43.7654 37.7458 43.8812 37.9053 43.9623L38.1805 43.4213C38.1014 43.3811 38.0323 43.3237 37.9786 43.2537L37.4972 43.6235ZM37.2749 43.1413C37.312 43.3168 37.3882 43.4813 37.4971 43.6233L37.9787 43.2539C37.9244 43.1832 37.8869 43.1018 37.8686 43.0155L37.2749 43.1413ZM37.4408 41.8787C37.2752 42.2692 37.2166 42.6965 37.2708 43.1171L37.8727 43.0396C37.8323 42.7257 37.8761 42.407 37.9996 42.1156L37.4408 41.8787ZM38.2131 40.8957C37.873 41.1489 37.6064 41.4884 37.4408 41.8786L37.9995 42.1157C38.1231 41.8245 38.322 41.5713 38.5755 41.3826L38.2131 40.8957ZM40.4753 41.0408C39.7334 40.5196 38.8864 40.3867 38.2113 40.8971L38.5773 41.3813C38.9654 41.0879 39.5095 41.1041 40.1263 41.5375L40.4753 41.0408ZM41.1954 43.2071C41.4014 42.4276 41.1089 41.4868 40.4755 41.041L40.1261 41.5373C40.5255 41.8184 40.7585 42.485 40.6086 43.052L41.1954 43.2071ZM39.9184 42.4933C39.9161 42.6336 39.8597 42.767 39.7611 42.8661L40.1912 43.2943C40.4009 43.0837 40.5204 42.8003 40.5253 42.5034L39.9184 42.4933ZM39.87 42.2658C39.9016 42.3393 39.9181 42.4189 39.9184 42.4994L40.5254 42.4972C40.5248 42.3354 40.4917 42.175 40.4274 42.0258L39.87 42.2658ZM39.7338 42.07C39.7921 42.1255 39.8383 42.192 39.8698 42.2653L40.4276 42.0262C40.3636 41.8768 40.2698 41.7424 40.1526 41.6307L39.7338 42.07ZM39.5317 41.9433C39.607 41.9715 39.6758 42.0147 39.7338 42.07L40.1526 41.6307C40.0352 41.5187 39.8963 41.4318 39.7447 41.375L39.5317 41.9433ZM39.2962 41.9064C39.3764 41.9028 39.4567 41.9154 39.5324 41.9436L39.744 41.3747C39.5924 41.3183 39.4309 41.2928 39.2688 41.3001L39.2962 41.9064ZM39.0767 41.9418C39.1398 41.9167 39.207 41.9048 39.2742 41.9066L39.2908 41.2999C39.1407 41.2958 38.9915 41.3225 38.8524 41.3779L39.0767 41.9418ZM38.909 42.052C38.9568 42.0044 39.014 41.9668 39.0769 41.9418L38.8521 41.3779C38.7133 41.4333 38.5867 41.5163 38.4805 41.6222L38.909 42.052ZM38.7977 42.2197C38.8231 42.1569 38.8609 42.0999 38.9087 42.0524L38.4808 41.6219C38.3745 41.7276 38.2909 41.8538 38.2349 41.9923L38.7977 42.2197ZM38.7618 42.4168C38.7602 42.3499 38.7725 42.2825 38.798 42.2189L38.2346 41.9931C38.1792 42.1314 38.1515 42.2803 38.155 42.4307L38.7618 42.4168ZM38.9539 42.8486C38.8357 42.7346 38.7668 42.5787 38.7617 42.4144L38.155 42.4331C38.1649 42.7552 38.3001 43.0612 38.5324 43.2854L38.9539 42.8486ZM39.3946 43.0258C39.2302 43.0264 39.0721 42.9629 38.954 42.8487L38.5323 43.2852C38.7642 43.5093 39.0744 43.634 39.3968 43.6328L39.3946 43.0258ZM39.7608 42.8664C39.6623 42.9656 39.529 43.0228 39.3891 43.0259L39.4023 43.6327C39.6992 43.6262 39.9823 43.5048 40.1916 43.294L39.7608 42.8664Z" fill="url(#paint1_linear_2193_2061)" mask="url(#path-2-outside-1_2193_2061)"/>
</g>
<defs>
<filter id="filter0_d_2193_2061" x="-1.28303" y="-1.93147" width="58.5036" height="63.861" filterUnits="userSpaceOnUse" color-interpolation-filters="sRGB">
<feFlood flood-opacity="0" result="BackgroundImageFix"/>
<feColorMatrix in="SourceAlpha" type="matrix" values="0 0 0 0 0 0 0 0 0 0 0 0 0 0 0 0 0 0 127 0" result="hardAlpha"/>
<feOffset/>
<feGaussianBlur stdDeviation="6.14054"/>
<feComposite in2="hardAlpha" operator="out"/>
<feColorMatrix type="matrix" values="0 0 0 0 0 0 0 0 0 0 0 0 0 0 0 0 0 0 0.1 0"/>
<feBlend mode="normal" in2="BackgroundImageFix" result="effect1_dropShadow_2193_2061"/>
<feBlend mode="normal" in="SourceGraphic" in2="effect1_dropShadow_2193_2061" result="shape"/>
</filter>
<linearGradient id="paint0_linear_2193_2061" x1="13.4551" y1="29.9982" x2="42.0188" y2="29.9982" gradientUnits="userSpaceOnUse">
<stop stop-color="#235775"/>
<stop offset="1" stop-color="#54C394"/>
</linearGradient>
<linearGradient id="paint1_linear_2193_2061" x1="13.4551" y1="29.9982" x2="42.0188" y2="29.9982" gradientUnits="userSpaceOnUse">
<stop stop-color="#235775"/>
<stop offset="1" stop-color="#54C394"/>
</linearGradient>
</defs>
</svg>
