<svg width="3584" height="571" viewBox="0 0 3584 571" fill="none" xmlns="http://www.w3.org/2000/svg">
<g clip-path="url(#clip0_2179_8627)">
<path fill-rule="evenodd" clip-rule="evenodd" d="M182.968 2.94719C170.418 15.0187 3.65419 178.05 1.74026 319.472C0.745867 396.92 49.9683 502.666 183.714 502.914V502.662C317.145 501.778 366.183 396.528 364.942 319.224C363.028 178.041 196.264 15.0184 183.714 2.94718V2.23389C183.714 2.23389 183.588 2.35359 183.341 2.58937C183.095 2.35359 182.968 2.23389 182.968 2.23389V2.94719ZM182.968 464.146V463.942C182.968 463.942 328.398 457.488 322.68 309.046C318.343 191.379 191.129 70.6798 183.341 63.3972C175.553 70.68 48.3397 191.387 44.0019 309.294C38.524 451.51 171.779 463.399 182.968 464.146Z" fill="#225474"/>
<path d="M322.68 181.953C321.686 180.215 321.686 176.492 319.946 176.74C301.798 179.222 283.402 188.159 283.402 188.159L283.153 188.655C284.396 190.889 285.888 193.62 287.379 196.102C306.77 231.351 321.437 270.323 322.929 309.047C327.404 424.474 240.394 454.013 201.364 461.46L188.935 502.666C197.138 502.666 199.127 502.17 206.834 501.425C322.68 489.51 365.936 391.956 364.942 319.224C364.445 273.798 346.794 226.138 322.68 181.953Z" fill="#349C9E"/>
<path fill-rule="evenodd" clip-rule="evenodd" d="M528.797 139.522L529.265 139.009C529.265 139.009 529.278 139.178 529.3 139.51C529.442 139.506 529.514 139.505 529.514 139.505L529.315 139.723C530.289 154.332 544.353 389.194 449.714 495.715C398.546 553.505 291.04 598.408 191.918 508.848L191.669 509.12C92.9758 418.764 128.028 307.557 180.979 251.209C278.508 147.573 514.131 139.901 528.797 139.522ZM488.022 184.44C477.727 184.568 302.017 187.984 219.264 272.06C119.934 372.899 208.915 470.804 217.171 479.888C217.33 480.063 217.459 480.205 217.556 480.313L217.772 480.077C226.722 488.02 331.63 576.887 429.08 461.46C503.24 373.48 489.689 202.49 488.065 184.901L482.778 190.641L488.062 184.859C488.048 184.708 488.034 184.568 488.022 184.44Z" fill="#55C595"/>
<path fill-rule="evenodd" clip-rule="evenodd" d="M931.906 81H688V547H931.906V494.545H743.284V319.115H926.343V266.66H743.284V133.455H931.906V81ZM1155.08 81.1299C1126.73 81.1299 1104.06 90.9532 1087.07 110.6C1070.08 130.247 1061.59 156.557 1061.58 189.53V257.93H1008.16V313.82H1061.58V547.92H1122.75V313.82H1203.24V257.93H1122.75V185.39C1122.75 171.14 1125.79 160.043 1131.88 152.1C1137.98 144.157 1146.41 140.183 1157.19 140.18C1170.08 140.18 1185.42 146.157 1203.24 158.11V96.2399C1185.19 86.1732 1169.14 81.1365 1155.08 81.1299ZM1394.81 81.1299C1366.45 81.1299 1343.78 90.9532 1326.79 110.6C1309.8 130.247 1301.31 156.557 1301.31 189.53V257.93H1247.88V313.82H1301.31V547.92H1362.47V313.82H1442.96V257.93H1362.47V185.39C1362.47 171.14 1365.51 160.043 1371.61 152.1C1377.7 144.157 1386.13 140.183 1396.91 140.18C1409.8 140.18 1425.15 146.157 1442.96 158.11V96.2399C1424.91 86.1732 1408.86 81.1365 1394.81 81.1299ZM1510.45 195.72C1514.81 200.126 1520.02 203.61 1525.75 205.964C1531.49 208.318 1537.64 209.493 1543.84 209.42C1556.5 209.42 1567.45 204.853 1576.71 195.72C1581.17 191.466 1584.71 186.335 1587.1 180.649C1589.49 174.964 1590.67 168.846 1590.59 162.68C1590.59 150.02 1585.96 139.063 1576.71 129.81C1567.45 120.557 1556.5 115.93 1543.84 115.93C1530.95 115.93 1519.82 120.557 1510.45 129.81C1501.08 139.063 1496.39 150.02 1496.39 162.68C1496.39 175.57 1501.07 186.583 1510.45 195.72ZM1513.61 547.92H1574.07V257.93H1513.61V547.92ZM1793.06 494.49C1767.28 494.49 1745.48 485.293 1727.68 466.9C1709.87 448.507 1700.96 425.833 1700.96 398.88C1700.96 374.98 1710.45 354.123 1729.44 336.31C1748.42 318.51 1770.56 309.607 1795.87 309.6C1823.29 309.6 1852.34 319.443 1883.04 339.13V270.94C1854.45 256.88 1826.68 249.85 1799.74 249.85C1754.51 249.85 1716.89 264.67 1686.9 294.31C1656.91 323.96 1641.91 361.277 1641.91 406.26C1641.91 445.87 1656.96 480.727 1687.08 510.83C1717.19 540.95 1752.28 556.007 1792.35 556C1821.64 556 1851.87 547.097 1883.04 529.29V459.34C1849.3 482.77 1819.3 494.487 1793.06 494.49ZM2186.74 316.98C2175.49 297.07 2159.67 280.903 2139.28 268.48C2118.9 256.06 2097.34 249.85 2074.61 249.85C2037.82 249.85 2005.77 265.023 1978.47 295.37C1951.16 325.717 1937.51 361.156 1937.52 401.69C1937.52 444.58 1951.05 481.02 1978.12 511.01C2005.18 541 2037.81 555.997 2076.01 556C2120.07 556 2156.98 534.09 2186.74 490.27V547.92H2247.9V257.93H2186.74V316.98ZM2166.65 471.82C2147.63 490.92 2124.85 500.466 2098.33 500.46C2071.57 500.46 2048.8 490.853 2030.02 471.64C2011.24 452.427 2001.85 429.11 2001.85 401.69C2001.85 376.39 2011.47 354.363 2030.72 335.61C2049.97 316.87 2072.5 307.497 2098.33 307.49C2124.86 307.49 2147.63 316.923 2166.65 335.79C2185.66 354.657 2195.17 377.327 2195.17 403.8C2195.17 430.05 2185.66 452.723 2166.65 471.82ZM2901.65 316.98C2890.4 297.07 2874.58 280.903 2854.2 268.48C2833.81 256.057 2812.25 249.847 2789.52 249.85C2752.73 249.85 2720.68 265.023 2693.39 295.37C2666.09 325.717 2652.44 361.156 2652.44 401.69C2652.44 444.58 2665.97 481.02 2693.04 511.01C2720.1 541 2752.73 555.997 2790.93 556C2834.98 556 2871.88 534.09 2901.65 490.27V547.92H2962.81V257.93H2901.65V316.98ZM2881.56 471.82C2862.55 490.92 2839.78 500.466 2813.25 500.46C2786.49 500.46 2763.71 490.853 2744.93 471.64C2726.14 452.427 2716.75 429.11 2716.76 401.69C2716.76 376.39 2726.38 354.363 2745.64 335.61C2764.89 316.87 2787.42 307.497 2813.25 307.49C2839.78 307.49 2862.55 316.923 2881.56 335.79C2900.57 354.657 2910.08 377.327 2910.09 403.8C2910.09 430.05 2900.58 452.723 2881.56 471.82ZM3181.45 81.1299C3153.09 81.1299 3130.41 90.9532 3113.43 110.6C3096.44 130.247 3087.95 156.557 3087.95 189.53V257.93H3034.52V313.82H3087.95V547.92H3149.11V313.82H3229.6V257.93H3149.11V185.39C3149.11 171.14 3152.15 160.043 3158.25 152.1C3164.34 144.157 3172.77 140.183 3183.55 140.18C3196.44 140.18 3211.79 146.157 3229.6 158.11V96.2399C3211.55 86.1732 3195.5 81.1365 3181.45 81.1299ZM3539.97 295.72C3510.21 265.14 3474.47 249.85 3432.77 249.85C3390.35 249.85 3354.43 264.903 3325.03 295.01C3295.62 325.13 3280.91 360.69 3280.92 401.69C3280.92 445.52 3295.44 482.193 3324.5 511.71C3353.56 541.243 3389.65 556.007 3432.77 556C3489.01 556 3533.88 534.323 3567.39 490.97L3522.75 457.23C3499.32 486.05 3470.26 500.46 3435.58 500.46C3413.08 500.46 3392.28 493.607 3373.19 479.9C3354.09 466.193 3341.85 444.46 3336.46 414.7H3583.91C3584.38 365.96 3569.73 326.3 3539.97 295.72ZM3432.77 306.09C3471.2 306.09 3500.25 326.007 3519.94 365.84H3342.78C3360.82 326.01 3390.81 306.093 3432.77 306.09ZM2530.68 200.679L2529.59 198.495C2523.72 186.707 2513.9 173.675 2504.31 165.993C2496.11 159.685 2480.7 151.268 2455.98 151.268C2434.47 151.268 2416.52 157.949 2403.99 169.367C2391.5 180.754 2384.12 197.099 2384.12 217.045C2384.12 225.483 2385.26 231.846 2387.68 237.382C2390.11 242.921 2393.96 247.923 2399.82 253.456L2399.86 253.496L2399.9 253.536C2412.83 266.467 2429.06 273.665 2446.06 281.127L2446.06 281.128L2489.36 300.095L2489.37 300.095C2515.78 311.624 2540.77 324.067 2560.26 343.563C2584.1 367.415 2593.91 394.849 2593.91 428.269C2593.91 513.888 2530.37 571 2447.19 571C2416.89 571 2378.5 564.809 2346.31 533.318C2323.27 510.971 2309.47 479.014 2303.29 451.467L2302.46 447.809L2359.1 432.064L2359.73 436.511C2362.98 459.374 2373.44 478.916 2385.72 491.873C2404.37 510.51 2425.54 515.732 2447.84 515.732C2477.62 515.732 2499.18 505.127 2513.34 489.365C2527.55 473.532 2534.57 452.186 2534.57 430.336C2534.57 410.951 2528.83 394.479 2513.52 380.424L2513.5 380.401L2513.47 380.378C2501.2 368.725 2484.27 360.883 2460.42 349.975L2460.41 349.968L2419.81 331L2419.8 330.995C2418.62 330.451 2417.42 329.898 2416.19 329.336C2399.24 321.577 2377.97 311.837 2358.52 293.002C2348.47 283.276 2340.34 272.897 2334.75 260.479C2329.16 248.051 2326.2 233.785 2326.2 216.397C2326.2 180.471 2340 150.281 2363.35 129.105C2386.67 107.958 2419.29 96 2456.67 96C2485.04 96 2508.16 101.579 2531.26 116.969L2531.26 116.971C2550.14 129.582 2566.13 148.394 2576.57 168.536L2578.2 171.683L2534.35 200.679H2530.68Z" fill="url(#paint0_linear_2179_8627)"/>
</g>
<defs>
<linearGradient id="paint0_linear_2179_8627" x1="688" y1="326" x2="3537.58" y2="326" gradientUnits="userSpaceOnUse">
<stop stop-color="#235775"/>
<stop offset="1" stop-color="#54C394"/>
</linearGradient>
<clipPath id="clip0_2179_8627">
<rect width="3584" height="571" fill="white"/>
</clipPath>
</defs>
</svg>
