<svg width="99" height="18" viewBox="0 0 99 18" fill="none" xmlns="http://www.w3.org/2000/svg">
                <path
                  fill-rule="evenodd"
                  clip-rule="evenodd"
                  d="M9.56241 8.30409C8.53584 7.24931 7.30322 6.72192 5.86454 6.72192C4.40153 6.72192 3.16285 7.24115 2.14852 8.2796C1.13407 9.31852 0.626884 10.5451 0.626953 11.9593C0.626953 13.4711 1.12808 14.736 2.13034 15.7541C3.13247 16.7728 4.3772 17.282 5.86454 17.2818C7.8044 17.2818 9.35225 16.5341 10.5081 15.0388L8.96831 13.875C8.15999 14.869 7.15774 15.3661 5.96156 15.3661C5.1856 15.3661 4.46825 15.1297 3.80951 14.6569C3.15077 14.1841 2.72846 13.4345 2.54256 12.408H11.0779C11.094 10.7268 10.5888 9.35887 9.56241 8.30409ZM5.86454 8.66178C7.19004 8.66178 8.1923 9.34875 8.87132 10.7227H2.7608C3.38311 9.34887 4.41769 8.66189 5.86454 8.66178ZM17.8795 0.902344C16.9014 0.902344 16.1194 1.24117 15.5335 1.91884C14.9476 2.5965 14.6546 3.504 14.6545 4.64133V7.00062H12.8116V8.9284H14.6545V17.0031H16.7641V8.9284H19.5405V7.00062H16.7641V4.49853C16.7641 4.00701 16.8692 3.62426 17.0793 3.35028C17.2895 3.07629 17.5805 2.93924 17.9523 2.93913C18.3967 2.93913 18.9261 3.14528 19.5405 3.55758V1.42353C18.918 1.0763 18.3643 0.902574 17.8795 0.902344ZM26.1481 0.902344C25.1701 0.902344 24.3881 1.24117 23.8021 1.91884C23.2162 2.5965 22.9232 3.504 22.9231 4.64133V7.00062H21.0803V8.9284H22.9231V17.0031H25.0327V8.9284H27.8091V7.00062H25.0327V4.49853C25.0327 4.00701 25.1378 3.62426 25.3479 3.35028C25.5581 3.07629 25.8491 2.93924 26.2209 2.93913C26.6653 2.93913 27.1947 3.14528 27.8091 3.55758V1.42353C27.1866 1.0763 26.633 0.902574 26.1481 0.902344ZM30.1369 4.85484C30.2874 5.00683 30.4669 5.127 30.6648 5.20819C30.8627 5.28937 31.0749 5.32991 31.2888 5.32739C31.7252 5.32739 32.1031 5.16987 32.4224 4.85484C32.5763 4.7081 32.6984 4.53113 32.7808 4.33502C32.8631 4.13891 32.9041 3.9279 32.9011 3.71521C32.9011 3.27853 32.7415 2.90061 32.4224 2.58144C32.1032 2.26227 31.7253 2.10268 31.2888 2.10268C30.8441 2.10268 30.4602 2.26227 30.1369 2.58144C29.8137 2.90061 29.652 3.27853 29.652 3.71521C29.652 4.15982 29.8136 4.53969 30.1369 4.85484ZM30.2461 17.0031H32.3314V7.00062H30.2461V17.0031ZM39.8848 15.1602C38.9956 15.1602 38.2439 14.843 37.6297 14.2085C37.0155 13.5741 36.7083 12.792 36.708 11.8623C36.708 11.038 37.0355 10.3186 37.6904 9.70414C38.3451 9.09018 39.1088 8.78308 39.9817 8.78285C40.9275 8.78285 41.9298 9.12237 42.9884 9.80141V7.44936C42.0023 6.9644 41.0446 6.72192 40.1152 6.72192C38.5551 6.72192 37.2577 7.2331 36.2231 8.25546C35.1887 9.27816 34.6714 10.5653 34.6713 12.1169C34.6713 13.4831 35.1906 14.6854 36.2293 15.7238C37.2679 16.7627 38.4782 17.282 39.8603 17.2818C40.8706 17.2818 41.9133 16.9747 42.9884 16.3605V13.9478C41.8247 14.7559 40.7901 15.1601 39.8848 15.1602ZM53.4638 9.0374C53.0758 8.35066 52.5301 7.79303 51.8268 7.36451C51.1238 6.93612 50.3803 6.72192 49.5962 6.72192C48.3272 6.72192 47.2218 7.24529 46.2801 8.29202C45.3383 9.33875 44.8675 10.5612 44.8676 11.9593C44.8676 13.4386 45.3344 14.6956 46.268 15.73C47.2016 16.7644 48.3271 17.2817 49.6445 17.2818C51.1642 17.2818 52.4373 16.5261 53.4638 15.0146V17.0031H55.5734V7.00062H53.4638V9.0374ZM52.7709 14.3782C52.1148 15.037 51.3293 15.3663 50.4143 15.3661C49.4913 15.3661 48.7059 15.0347 48.0582 14.372C47.4104 13.7093 47.0865 12.905 47.0865 11.9593C47.0865 11.0866 47.4184 10.3268 48.0823 9.68C48.7463 9.03361 49.5236 8.7103 50.4143 8.71007C51.3295 8.71007 52.115 9.03545 52.7709 9.68621C53.4267 10.337 53.7546 11.1189 53.7546 12.032C53.7546 12.9375 53.4267 13.7195 52.7709 14.3782ZM61.5989 6.72192C60.6531 6.72192 59.8671 6.99855 59.241 7.55181C58.6142 8.10541 58.3009 8.79814 58.301 9.62998C58.301 10.3005 58.5213 10.8639 58.9619 11.3201C59.4024 11.7768 60.1965 12.2278 61.3443 12.6733C62.4921 13.1187 63.066 13.6203 63.0658 14.1782C63.0658 14.4934 62.9022 14.7703 62.575 15.0087C62.2478 15.2472 61.8658 15.3663 61.4292 15.3661C60.7986 15.3661 60.1925 15.0832 59.6107 14.5176L57.9496 15.3178C58.8547 16.6271 60.0145 17.2818 61.4292 17.2818C62.3587 17.2818 63.167 16.969 63.854 16.3433C64.541 15.7176 64.8845 14.9848 64.8846 14.1451C64.8846 13.4262 64.6462 12.8126 64.1693 12.3042C63.6923 11.7958 62.9103 11.3283 61.8231 10.9017C60.7359 10.4754 60.1924 10.0358 60.1926 9.58307C60.1926 8.95255 60.621 8.63729 61.4778 8.63729C61.8414 8.63729 62.1565 8.70398 62.4232 8.83735C62.7528 9.00937 63.069 9.20596 63.369 9.42544L64.7753 8.18889C63.6032 7.21102 62.5444 6.72203 61.5989 6.72192ZM75.4324 9.0374C75.0444 8.35066 74.4988 7.79303 73.7958 7.36451C73.0927 6.936 72.349 6.7218 71.5648 6.72192C70.2958 6.72192 69.1906 7.24529 68.249 8.29202C67.3075 9.33875 66.8367 10.5612 66.8366 11.9593C66.8366 13.4386 67.3034 14.6956 68.237 15.73C69.1706 16.7644 70.2961 17.2817 71.6134 17.2818C73.1328 17.2818 74.4058 16.5261 75.4324 15.0146V17.0031H77.542V7.00062H75.4324V9.0374ZM74.7395 14.3782C74.0838 15.037 73.2984 15.3663 72.3833 15.3661C71.4603 15.3661 70.6748 15.0347 70.0268 14.372C69.3788 13.7093 69.0549 12.905 69.0551 11.9593C69.0551 11.0866 69.3872 10.3268 70.0513 9.68C70.7152 9.03361 71.4926 8.7103 72.3833 8.71007C73.2984 8.71007 74.0838 9.03545 74.7395 9.68621C75.3952 10.337 75.7232 11.1189 75.7236 12.032C75.7236 12.9375 75.3955 13.7195 74.7395 14.3782ZM85.0835 0.902344C84.1052 0.902344 83.3232 1.24117 82.7373 1.91884C82.1514 2.5965 81.8584 3.504 81.8584 4.64133V7.00062H80.0155V8.9284H81.8584V17.0031H83.968V8.9284H86.7443V7.00062H83.968V4.49853C83.968 4.00701 84.0731 3.62426 84.2832 3.35028C84.4934 3.07629 84.7843 2.93924 85.1559 2.93913C85.6005 2.93913 86.13 3.14528 86.7443 3.55758V1.42353C86.1217 1.0763 85.5681 0.902574 85.0835 0.902344ZM97.4497 8.30409C96.4232 7.24931 95.1907 6.72192 93.7521 6.72192C92.2889 6.72192 91.0502 7.24115 90.0359 8.2796C89.0215 9.31852 88.5143 10.5451 88.5144 11.9593C88.5144 13.4711 89.0155 14.736 90.0176 15.7541C91.02 16.7728 92.2648 17.282 93.7521 17.2818C95.692 17.2818 97.2398 16.5341 98.3955 15.0388L96.8557 13.875C96.0476 14.869 95.0453 15.3661 93.849 15.3661C93.0729 15.3661 92.3556 15.1297 91.697 14.6569C91.0385 14.1841 90.6162 13.4345 90.4301 12.408H98.9653C98.9815 10.7268 98.4763 9.35887 97.4497 8.30409ZM93.7521 8.66178C95.0777 8.66178 96.0799 9.34875 96.7588 10.7227H90.6481C91.2704 9.34887 92.305 8.66189 93.7521 8.66178Z"
                  fill="white"
                />
              </svg>