<svg width="20" height="20" viewBox="0 0 19 20" fill="none" xmlns="http://www.w3.org/2000/svg">
<g clip-path="url(#clip0_1977_64)">
<path fill-rule="evenodd" clip-rule="evenodd" d="M6.34525 0.206263C5.91221 0.622794 0.160274 6.24607 0.0942583 11.124C0.0599592 13.7953 1.75776 17.4428 6.37099 17.4514V17.4427C10.9734 17.4121 12.6648 13.7818 12.622 11.1154C12.556 6.24575 6.80403 0.622782 6.37099 0.206263V0.181641C6.37099 0.181641 6.36662 0.185773 6.35812 0.193913C6.34961 0.185773 6.34525 0.181641 6.34525 0.181641V0.206263ZM6.34525 16.1141V16.1071C6.34525 16.1071 11.3615 15.8845 11.1643 10.7644C11.0147 6.70579 6.62684 2.54262 6.35812 2.29133C6.0894 2.54262 1.70159 6.70605 1.55197 10.7729C1.36303 15.6782 5.95918 16.0884 6.34525 16.1141Z" fill="white"/>
<path d="M11.164 6.37943C11.1297 6.3195 11.1297 6.19106 11.0697 6.19963C10.4437 6.28525 9.80919 6.59348 9.80919 6.59348L9.80062 6.61061C9.84349 6.68767 9.89494 6.78185 9.94639 6.86747C10.6152 8.08328 11.1211 9.42753 11.1726 10.7632C11.3269 14.7446 8.32576 15.7635 6.97952 16.0203L6.55078 17.4416C6.83375 17.4416 6.90235 17.4245 7.16817 17.3988C11.164 16.9878 12.656 13.6229 12.6217 11.1143C12.6046 9.5474 11.9958 7.90348 11.164 6.37943Z" fill="white"/>
<path fill-rule="evenodd" clip-rule="evenodd" d="M18.273 4.91613L18.2891 4.89844C18.2891 4.89844 18.2896 4.90427 18.2903 4.91571C18.2952 4.9156 18.2977 4.91555 18.2977 4.91555L18.2908 4.92304C18.3244 5.42657 18.8096 13.5279 15.5452 17.2021C13.7803 19.1954 10.0721 20.7443 6.65315 17.6551L6.64457 17.6645C3.24039 14.5479 4.44943 10.7121 6.27586 8.76848C9.63994 5.19374 17.7675 4.92919 18.273 4.91613ZM16.8666 6.46545C16.5117 6.46987 10.4508 6.58762 7.59637 9.4877C4.17026 12.9659 7.23943 16.3429 7.5242 16.6562C7.52969 16.6622 7.53414 16.6671 7.5375 16.6709L7.54495 16.6627C7.85365 16.9367 11.4722 20.0019 14.8335 16.0206C17.3915 12.9859 16.924 7.08784 16.868 6.48135L16.6856 6.67934L16.8679 6.4799C16.8674 6.47468 16.867 6.46986 16.8666 6.46545Z" fill="white"/>
</g>
<defs>
<clipPath id="clip0_1977_64">
<rect width="18.35" height="19.3503" fill="white" transform="translate(0.0351562 0.103516)"/>
</clipPath>
</defs>
</svg>