<svg width="19" height="20" viewBox="0 0 19 20" fill="none" xmlns="http://www.w3.org/2000/svg">
<g clip-path="url(#clip0_1802_1448)">
<path fill-rule="evenodd" clip-rule="evenodd" d="M6.53448 0.105021C6.08625 0.535385 0.130404 6.34756 0.0620497 11.3893C0.0265357 14.1504 1.78448 17.9203 6.56111 17.9291V17.9202C11.3265 17.8886 13.0779 14.1364 13.0335 11.3805C12.9652 6.34723 7.00934 0.535372 6.56111 0.10502V0.0795898C6.56111 0.0795898 6.55659 0.0838578 6.54779 0.0922651C6.53899 0.0838579 6.53448 0.0795898 6.53448 0.0795898V0.105021ZM6.53448 16.547V16.5398C6.53448 16.5398 11.7284 16.3097 11.5242 11.0176C11.3693 6.82274 6.82594 2.51974 6.5478 2.2601C6.26965 2.51974 1.72631 6.82301 1.5714 11.0265C1.37576 16.0965 6.13487 16.5204 6.53448 16.547Z" fill="#225474"/>
<path d="M11.5247 6.48668C11.4892 6.42473 11.4892 6.29199 11.427 6.30084C10.7789 6.38933 10.1219 6.70792 10.1219 6.70792L10.113 6.72562C10.1574 6.80526 10.2107 6.90261 10.2639 6.9911C10.9565 8.24774 11.4803 9.63712 11.5336 11.0177C11.6934 15.1327 8.5859 16.1858 7.19197 16.4513L6.74805 17.9203C7.04104 17.9203 7.11207 17.9026 7.3873 17.8761C11.5247 17.4513 13.0695 13.9734 13.034 11.3805C13.0163 9.76101 12.3859 8.0619 11.5247 6.48668Z" fill="#349C9E"/>
<path fill-rule="evenodd" clip-rule="evenodd" d="M18.8853 4.97411L18.9021 4.95581C18.9021 4.95581 18.9025 4.96185 18.9033 4.97367C18.9084 4.97355 18.9109 4.9735 18.9109 4.9735L18.9038 4.98128C18.9386 5.50207 19.4409 13.8751 16.0609 17.6726C14.2335 19.7329 10.394 21.3337 6.85392 18.1408L6.84505 18.1505C3.32028 14.9293 4.57215 10.9647 6.46327 8.9558C9.94643 5.26112 18.3616 4.98761 18.8853 4.97411ZM17.4291 6.57545C17.0614 6.58002 10.786 6.70179 7.83056 9.69917C4.28308 13.2942 7.46098 16.7845 7.75583 17.1084C7.76151 17.1146 7.76611 17.1197 7.76958 17.1235L7.77729 17.1151C8.09692 17.3983 11.8436 20.5664 15.324 16.4514C17.9726 13.3148 17.4886 7.21896 17.4306 6.59191L17.2418 6.79651L17.4305 6.59041C17.43 6.585 17.4295 6.58001 17.4291 6.57545Z" fill="#55C595"/>
</g>
<defs>
<clipPath id="clip0_1802_1448">
<rect width="19" height="20" fill="white"/>
</clipPath>
</defs>
</svg>
