<svg width="99" height="18" viewBox="0 0 99 18" fill="none" xmlns="http://www.w3.org/2000/svg">
<path fill-rule="evenodd" clip-rule="evenodd" d="M9.56241 8.3036C8.53584 7.24882 7.30322 6.72143 5.86454 6.72143C4.40153 6.72143 3.16285 7.24066 2.14852 8.27911C1.13407 9.31803 0.626884 10.5446 0.626953 11.9588C0.626953 13.4706 1.12808 14.7355 2.13034 15.7536C3.13247 16.7723 4.3772 17.2815 5.86454 17.2813C7.8044 17.2813 9.35225 16.5336 10.5081 15.0383L8.96831 13.8745C8.15999 14.8686 7.15774 15.3656 5.96156 15.3656C5.1856 15.3656 4.46825 15.1292 3.80951 14.6564C3.15077 14.1837 2.72846 13.434 2.54256 12.4075H11.0779C11.094 10.7264 10.5888 9.35838 9.56241 8.3036ZM5.86454 8.66129C7.19004 8.66129 8.1923 9.34826 8.87132 10.7222H2.7608C3.38311 9.34838 4.41769 8.6614 5.86454 8.66129ZM17.8795 0.901855C16.9014 0.901855 16.1194 1.24069 15.5335 1.91835C14.9476 2.59601 14.6546 3.50351 14.6545 4.64084V7.00013H12.8116V8.92791H14.6545V17.0026H16.7641V8.92791H19.5405V7.00013H16.7641V4.49804C16.7641 4.00653 16.8692 3.62377 17.0793 3.34979C17.2895 3.0758 17.5805 2.93875 17.9523 2.93864C18.3967 2.93864 18.9261 3.14479 19.5405 3.55709V1.42304C18.918 1.07581 18.3643 0.902085 17.8795 0.901855ZM26.1481 0.901855C25.1701 0.901855 24.3881 1.24069 23.8021 1.91835C23.2162 2.59601 22.9232 3.50351 22.9231 4.64084V7.00013H21.0803V8.92791H22.9231V17.0026H25.0327V8.92791H27.8091V7.00013H25.0327V4.49804C25.0327 4.00653 25.1378 3.62377 25.3479 3.34979C25.5581 3.0758 25.8491 2.93875 26.2209 2.93864C26.6653 2.93864 27.1947 3.14479 27.8091 3.55709V1.42304C27.1866 1.07581 26.633 0.902085 26.1481 0.901855ZM30.1369 4.85435C30.2874 5.00635 30.4669 5.12651 30.6648 5.2077C30.8627 5.28888 31.0749 5.32942 31.2888 5.3269C31.7252 5.3269 32.1031 5.16938 32.4224 4.85435C32.5763 4.70761 32.6984 4.53064 32.7808 4.33453C32.8631 4.13842 32.9041 3.92741 32.9011 3.71472C32.9011 3.27805 32.7415 2.90012 32.4224 2.58095C32.1032 2.26178 31.7253 2.1022 31.2888 2.1022C30.8441 2.1022 30.4602 2.26178 30.1369 2.58095C29.8137 2.90012 29.652 3.27805 29.652 3.71472C29.652 4.15933 29.8136 4.5392 30.1369 4.85435ZM30.2461 17.0026H32.3314V7.00013H30.2461V17.0026ZM39.8848 15.1597C38.9956 15.1597 38.2439 14.8425 37.6297 14.208C37.0155 13.5736 36.7083 12.7915 36.708 11.8618C36.708 11.0375 37.0355 10.3181 37.6904 9.70366C38.3451 9.08969 39.1088 8.78259 39.9817 8.78236C40.9275 8.78236 41.9298 9.12188 42.9884 9.80092V7.44888C42.0023 6.96391 41.0446 6.72143 40.1152 6.72143C38.5551 6.72143 37.2577 7.23261 36.2231 8.25497C35.1887 9.27767 34.6714 10.5648 34.6713 12.1164C34.6713 13.4827 35.1906 14.6849 36.2293 15.7233C37.2679 16.7622 38.4782 17.2815 39.8603 17.2813C40.8706 17.2813 41.9133 16.9742 42.9884 16.36V13.9473C41.8247 14.7554 40.7901 15.1596 39.8848 15.1597ZM53.4638 9.03691C53.0758 8.35017 52.5301 7.79254 51.8268 7.36403C51.1238 6.93563 50.3803 6.72143 49.5962 6.72143C48.3272 6.72143 47.2218 7.2448 46.2801 8.29153C45.3383 9.33826 44.8675 10.5607 44.8676 11.9588C44.8676 13.4382 45.3344 14.6951 46.268 15.7295C47.2016 16.7639 48.3271 17.2812 49.6445 17.2813C51.1642 17.2813 52.4373 16.5256 53.4638 15.0141V17.0026H55.5734V7.00013H53.4638V9.03691ZM52.7709 14.3777C52.1148 15.0365 51.3293 15.3658 50.4143 15.3656C49.4913 15.3656 48.7059 15.0342 48.0582 14.3715C47.4104 13.7088 47.0865 12.9046 47.0865 11.9588C47.0865 11.0861 47.4184 10.3264 48.0823 9.67951C48.7463 9.03312 49.5236 8.70981 50.4143 8.70958C51.3295 8.70958 52.115 9.03496 52.7709 9.68572C53.4267 10.3365 53.7546 11.1184 53.7546 12.0316C53.7546 12.937 53.4267 13.719 52.7709 14.3777ZM61.5989 6.72143C60.6531 6.72143 59.8671 6.99806 59.241 7.55132C58.6142 8.10493 58.3009 8.79765 58.301 9.6295C58.301 10.3 58.5213 10.8634 58.9619 11.3196C59.4024 11.7763 60.1965 12.2274 61.3443 12.6728C62.4921 13.1182 63.066 13.6198 63.0658 14.1777C63.0658 14.4929 62.9022 14.7698 62.575 15.0083C62.2478 15.2467 61.8658 15.3658 61.4292 15.3656C60.7986 15.3656 60.1925 15.0828 59.6107 14.5171L57.9496 15.3173C58.8547 16.6266 60.0145 17.2813 61.4292 17.2813C62.3587 17.2813 63.167 16.9685 63.854 16.3428C64.541 15.7171 64.8845 14.9843 64.8846 14.1446C64.8846 13.4257 64.6462 12.8121 64.1693 12.3037C63.6923 11.7953 62.9103 11.3278 61.8231 10.9012C60.7359 10.4749 60.1924 10.0354 60.1926 9.58259C60.1926 8.95206 60.621 8.6368 61.4778 8.6368C61.8414 8.6368 62.1565 8.70349 62.4232 8.83686C62.7528 9.00888 63.069 9.20547 63.369 9.42495L64.7753 8.1884C63.6032 7.21054 62.5444 6.72155 61.5989 6.72143ZM75.4324 9.03691C75.0444 8.35017 74.4988 7.79254 73.7958 7.36403C73.0927 6.93551 72.349 6.72132 71.5648 6.72143C70.2958 6.72143 69.1906 7.2448 68.249 8.29153C67.3075 9.33826 66.8367 10.5607 66.8366 11.9588C66.8366 13.4382 67.3034 14.6951 68.237 15.7295C69.1706 16.7639 70.2961 17.2812 71.6134 17.2813C73.1328 17.2813 74.4058 16.5256 75.4324 15.0141V17.0026H77.542V7.00013H75.4324V9.03691ZM74.7395 14.3777C74.0838 15.0365 73.2984 15.3658 72.3833 15.3656C71.4603 15.3656 70.6748 15.0342 70.0268 14.3715C69.3788 13.7088 69.0549 12.9046 69.0551 11.9588C69.0551 11.0861 69.3872 10.3264 70.0513 9.67951C70.7152 9.03312 71.4926 8.70981 72.3833 8.70958C73.2984 8.70958 74.0838 9.03496 74.7395 9.68572C75.3952 10.3365 75.7232 11.1184 75.7236 12.0316C75.7236 12.937 75.3955 13.719 74.7395 14.3777ZM85.0835 0.901855C84.1052 0.901855 83.3232 1.24069 82.7373 1.91835C82.1514 2.59601 81.8584 3.50351 81.8584 4.64084V7.00013H80.0155V8.92791H81.8584V17.0026H83.968V8.92791H86.7443V7.00013H83.968V4.49804C83.968 4.00653 84.0731 3.62377 84.2832 3.34979C84.4934 3.0758 84.7843 2.93875 85.1559 2.93864C85.6005 2.93864 86.13 3.14479 86.7443 3.55709V1.42304C86.1217 1.07581 85.5681 0.902085 85.0835 0.901855ZM97.4497 8.3036C96.4232 7.24882 95.1907 6.72143 93.7521 6.72143C92.2889 6.72143 91.0502 7.24066 90.0359 8.27911C89.0215 9.31803 88.5143 10.5446 88.5144 11.9588C88.5144 13.4706 89.0155 14.7355 90.0176 15.7536C91.02 16.7723 92.2648 17.2815 93.7521 17.2813C95.692 17.2813 97.2398 16.5336 98.3955 15.0383L96.8557 13.8745C96.0476 14.8686 95.0453 15.3656 93.849 15.3656C93.0729 15.3656 92.3556 15.1292 91.697 14.6564C91.0385 14.1837 90.6162 13.434 90.4301 12.4075H98.9653C98.9815 10.7264 98.4763 9.35838 97.4497 8.3036ZM93.7521 8.66129C95.0777 8.66129 96.0799 9.34826 96.7588 10.7222H90.6481C91.2704 9.34838 92.305 8.6614 93.7521 8.66129Z" fill="url(#paint0_linear_1826_68)"/>
<defs>
<linearGradient id="paint0_linear_1826_68" x1="98.9653" y1="9.09141" x2="0.627164" y2="9.09141" gradientUnits="userSpaceOnUse">
<stop stop-color="#55C595"/>
<stop offset="1" stop-color="#215274"/>
</linearGradient>
</defs>
</svg>
