<svg width="616" height="126" viewBox="0 0 616 126" fill="none" xmlns="http://www.w3.org/2000/svg">
<path d="M508.095 92.8631C489.695 92.5112 470.126 92.3518 450.082 92.3265" stroke="#55C595" stroke-width="2"/>
<path d="M67.0685 20.9696C74.992 23.7936 78.9755 32.4505 75.9659 40.3054C72.9563 48.1603 64.0933 52.2387 56.1698 49.4147L35.258 41.9617L14.3462 34.5086C6.42265 31.6846 2.43915 23.0277 5.44874 15.1728C8.45834 7.31796 17.3214 3.23959 25.2449 6.06356L46.1567 13.5166L67.0685 20.9696Z" fill="white"/>
<path d="M35.258 41.9617L56.1698 49.4147C64.0933 52.2387 72.9563 48.1603 75.9659 40.3054V40.3054C78.9755 32.4505 74.992 23.7936 67.0685 20.9696L46.1567 13.5166M35.258 41.9617L14.3462 34.5086C6.42265 31.6846 2.43915 23.0277 5.44874 15.1728V15.1728C8.45834 7.31796 17.3214 3.23959 25.2449 6.06356L46.1567 13.5166M35.258 41.9617C42.0841 36.275 45.4344 31.6315 46.433 25.4315M46.1567 13.5166C46.5165 16.0577 46.7266 18.3432 46.7585 20.4386" stroke="#55C595" stroke-width="2"/>
<rect x="20.8312" y="11.3356" width="50.484" height="3.66154" rx="1.83077" transform="rotate(20.2903 20.8312 11.3356)" stroke="#55C595" stroke-width="2"/>
<path d="M615.511 82.6064C562.745 79.599 485.828 79.7976 415.223 80.6389" stroke="#55C595" stroke-width="2"/>
<path d="M423.994 93.5525C432.405 93.4133 439.175 100.119 439.116 108.531C439.058 116.942 432.192 123.874 423.781 124.013L401.584 124.38L379.387 124.748C370.976 124.887 364.206 118.181 364.265 109.769C364.323 101.358 371.189 94.4261 379.6 94.287L401.797 93.9197L423.994 93.5525Z" fill="white"/>
<path d="M401.584 124.38L423.781 124.013C432.192 123.874 439.058 116.942 439.116 108.531V108.531C439.175 100.119 432.405 93.4133 423.994 93.5525L401.797 93.9197M401.584 124.38L379.387 124.748C370.976 124.887 364.206 118.181 364.265 109.769V109.769C364.323 101.358 371.189 94.4261 379.6 94.287L401.797 93.9197M401.584 124.38C405.978 116.658 407.483 111.134 406.241 104.978M401.797 93.9197C403.026 96.1725 404.026 98.2386 404.792 100.189" stroke="#55C595" stroke-width="2"/>
<rect x="377.319" y="100.774" width="50.484" height="3.66154" rx="1.83077" transform="rotate(-0.273814 377.319 100.774)" stroke="#55C595" stroke-width="2"/>
<path d="M266.182 47.1844C274.592 47.0453 281.363 53.7514 281.304 62.1629C281.245 70.5744 274.38 77.5061 265.969 77.6452L243.772 78.0125L221.575 78.3797C213.164 78.5188 206.393 71.8128 206.452 63.4013C206.511 54.9898 213.377 48.0581 221.787 47.9189L243.985 47.5517L266.182 47.1844Z" fill="white"/>
<path d="M243.772 78.0125L265.969 77.6452C274.38 77.5061 281.245 70.5744 281.304 62.1629V62.1629C281.363 53.7514 274.592 47.0453 266.182 47.1844L243.985 47.5517M243.772 78.0125L221.575 78.3797C213.164 78.5188 206.393 71.8128 206.452 63.4013V63.4013C206.511 54.9898 213.377 48.0581 221.787 47.9189L243.985 47.5517M243.772 78.0125C248.165 70.2904 249.671 64.7661 248.428 58.6103M243.985 47.5517C245.214 49.8045 246.213 51.8705 246.979 53.8213" stroke="#55C595" stroke-width="2"/>
<rect x="219.506" y="54.4056" width="50.484" height="3.66154" rx="1.83077" transform="rotate(-0.273814 219.506 54.4056)" stroke="#55C595" stroke-width="2"/>
</svg>
