<svg width="10" height="10" viewBox="0 0 10 10" fill="none" xmlns="http://www.w3.org/2000/svg">
<rect width="10" height="10" rx="5" fill="#E63946"/>
<path d="M5.4072 6.11193H4.80895L4.76238 2.36841H5.45735L5.4072 6.11193ZM4.7373 7.25111C4.7373 7.14364 4.76955 7.05408 4.83403 6.98243C4.9009 6.9084 4.99881 6.87138 5.12778 6.87138C5.25674 6.87138 5.35466 6.9084 5.42153 6.98243C5.4884 7.05408 5.52183 7.14364 5.52183 7.25111C5.52183 7.35858 5.4884 7.44814 5.42153 7.51978C5.35466 7.58904 5.25674 7.62367 5.12778 7.62367C4.99881 7.62367 4.9009 7.58904 4.83403 7.51978C4.76955 7.44814 4.7373 7.35858 4.7373 7.25111Z" fill="#FFF5F5"/>
</svg>
