<svg width="160" height="32" viewBox="0 0 160 32" fill="none" xmlns="http://www.w3.org/2000/svg">
<path d="M0 0H144C152.837 0 160 7.16344 160 16V16C160 24.8366 152.837 32 144 32H0V0Z" fill="#E2F0F0"/>
<g clip-path="url(#clip0_310_77)">
<path fill-rule="evenodd" clip-rule="evenodd" d="M49.5624 16.3036C48.5358 15.2488 47.3032 14.7214 45.8645 14.7214C44.4015 14.7214 43.1629 15.2407 42.1485 16.2791C41.1341 17.318 40.6269 18.5446 40.627 19.9588C40.627 21.4706 41.1281 22.7355 42.1303 23.7536C43.1325 24.7723 44.3772 25.2815 45.8645 25.2813C47.8044 25.2813 49.3522 24.5336 50.5081 23.0383L48.9683 21.8745C48.16 22.8686 47.1577 23.3656 45.9616 23.3656C45.1856 23.3656 44.4682 23.1292 43.8095 22.6564C43.1508 22.1837 42.7285 21.434 42.5426 20.4075H51.0779C51.094 18.7264 50.5888 17.3584 49.5624 16.3036ZM45.8645 16.6613C47.19 16.6613 48.1923 17.3483 48.8713 18.7222H42.7608C43.3831 17.3484 44.4177 16.6614 45.8645 16.6613ZM57.8795 8.90186C56.9014 8.90186 56.1194 9.24069 55.5335 9.91835C54.9476 10.596 54.6546 11.5035 54.6545 12.6408V15.0001H52.8116V16.9279H54.6545V25.0026H56.7641V16.9279H59.5405V15.0001H56.7641V12.498C56.7641 12.0065 56.8692 11.6238 57.0793 11.3498C57.2895 11.0758 57.5805 10.9388 57.9523 10.9386C58.3967 10.9386 58.9261 11.1448 59.5405 11.5571V9.42304C58.918 9.07581 58.3643 8.90209 57.8795 8.90186ZM66.1481 8.90186C65.1701 8.90186 64.3881 9.24069 63.8021 9.91835C63.2162 10.596 62.9232 11.5035 62.9231 12.6408V15.0001H61.0803V16.9279H62.9231V25.0026H65.0327V16.9279H67.8091V15.0001H65.0327V12.498C65.0327 12.0065 65.1378 11.6238 65.3479 11.3498C65.5581 11.0758 65.8491 10.9388 66.2209 10.9386C66.6653 10.9386 67.1947 11.1448 67.8091 11.5571V9.42304C67.1866 9.07581 66.633 8.90209 66.1481 8.90186ZM70.1369 12.8544C70.2874 13.0063 70.4669 13.1265 70.6648 13.2077C70.8627 13.2889 71.0749 13.3294 71.2888 13.3269C71.7252 13.3269 72.1031 13.1694 72.4224 12.8544C72.5763 12.7076 72.6984 12.5306 72.7808 12.3345C72.8631 12.1384 72.9041 11.9274 72.9011 11.7147C72.9011 11.278 72.7415 10.9001 72.4224 10.581C72.1032 10.2618 71.7253 10.1022 71.2888 10.1022C70.8441 10.1022 70.4602 10.2618 70.1369 10.581C69.8137 10.9001 69.652 11.278 69.652 11.7147C69.652 12.1593 69.8136 12.5392 70.1369 12.8544ZM70.2461 25.0026H72.3314V15.0001H70.2461V25.0026ZM79.8848 23.1597C78.9956 23.1597 78.2439 22.8425 77.6297 22.208C77.0155 21.5736 76.7083 20.7915 76.708 19.8618C76.708 19.0375 77.0355 18.3181 77.6904 17.7037C78.3451 17.0897 79.1088 16.7826 79.9817 16.7824C80.9275 16.7824 81.9298 17.1219 82.9884 17.8009V15.4489C82.0023 14.9639 81.0446 14.7214 80.1152 14.7214C78.5551 14.7214 77.2577 15.2326 76.2231 16.255C75.1887 17.2777 74.6714 18.5648 74.6713 20.1164C74.6713 21.4827 75.1906 22.6849 76.2293 23.7233C77.2679 24.7622 78.4782 25.2815 79.8603 25.2813C80.8706 25.2813 81.9133 24.9742 82.9884 24.36V21.9473C81.8247 22.7554 80.7901 23.1596 79.8848 23.1597ZM93.4638 17.0369C93.0758 16.3502 92.5301 15.7925 91.8268 15.364C91.1238 14.9356 90.3803 14.7214 89.5962 14.7214C88.3272 14.7214 87.2218 15.2448 86.2801 16.2915C85.3383 17.3383 84.8675 18.5607 84.8676 19.9588C84.8676 21.4382 85.3344 22.6951 86.268 23.7295C87.2016 24.7639 88.3271 25.2812 89.6445 25.2813C91.1642 25.2813 92.4373 24.5256 93.4638 23.0141V25.0026H95.5734V15.0001H93.4638V17.0369ZM92.7709 22.3777C92.1148 23.0365 91.3293 23.3658 90.4143 23.3656C89.4913 23.3656 88.7059 23.0342 88.0582 22.3715C87.4104 21.7088 87.0865 20.9046 87.0865 19.9588C87.0865 19.0861 87.4184 18.3264 88.0823 17.6795C88.7463 17.0331 89.5236 16.7098 90.4143 16.7096C91.3295 16.7096 92.115 17.035 92.7709 17.6857C93.4267 18.3365 93.7546 19.1184 93.7546 20.0316C93.7546 20.937 93.4267 21.719 92.7709 22.3777ZM101.599 14.7214C100.653 14.7214 99.8671 14.9981 99.241 15.5513C98.6142 16.1049 98.3009 16.7977 98.301 17.6295C98.301 18.3 98.5213 18.8634 98.9619 19.3196C99.4024 19.7763 100.197 20.2274 101.344 20.6728C102.492 21.1182 103.066 21.6198 103.066 22.1777C103.066 22.4929 102.902 22.7698 102.575 23.0083C102.248 23.2467 101.866 23.3658 101.429 23.3656C100.799 23.3656 100.193 23.0828 99.6107 22.5171L97.9496 23.3173C98.8547 24.6266 100.015 25.2813 101.429 25.2813C102.359 25.2813 103.167 24.9685 103.854 24.3428C104.541 23.7171 104.885 22.9843 104.885 22.1446C104.885 21.4257 104.646 20.8121 104.169 20.3037C103.692 19.7953 102.91 19.3278 101.823 18.9012C100.736 18.4749 100.192 18.0354 100.193 17.5826C100.193 16.9521 100.621 16.6368 101.478 16.6368C101.841 16.6368 102.157 16.7035 102.423 16.8369C102.753 17.0089 103.069 17.2055 103.369 17.425L104.775 16.1884C103.603 15.2105 102.544 14.7215 101.599 14.7214ZM115.432 17.0369C115.044 16.3502 114.499 15.7925 113.796 15.364C113.093 14.9355 112.349 14.7213 111.565 14.7214C110.296 14.7214 109.191 15.2448 108.249 16.2915C107.308 17.3383 106.837 18.5607 106.837 19.9588C106.837 21.4382 107.303 22.6951 108.237 23.7295C109.171 24.7639 110.296 25.2812 111.613 25.2813C113.133 25.2813 114.406 24.5256 115.432 23.0141V25.0026H117.542V15.0001H115.432V17.0369ZM114.739 22.3777C114.084 23.0365 113.298 23.3658 112.383 23.3656C111.46 23.3656 110.675 23.0342 110.027 22.3715C109.379 21.7088 109.055 20.9046 109.055 19.9588C109.055 19.0861 109.387 18.3264 110.051 17.6795C110.715 17.0331 111.493 16.7098 112.383 16.7096C113.298 16.7096 114.084 17.035 114.739 17.6857C115.395 18.3365 115.723 19.1184 115.724 20.0316C115.724 20.937 115.396 21.719 114.739 22.3777ZM125.083 8.90186C124.105 8.90186 123.323 9.24069 122.737 9.91835C122.151 10.596 121.858 11.5035 121.858 12.6408V15.0001H120.015V16.9279H121.858V25.0026H123.968V16.9279H126.744V15.0001H123.968V12.498C123.968 12.0065 124.073 11.6238 124.283 11.3498C124.493 11.0758 124.784 10.9388 125.156 10.9386C125.6 10.9386 126.13 11.1448 126.744 11.5571V9.42304C126.122 9.07581 125.568 8.90209 125.083 8.90186ZM137.45 16.3036C136.423 15.2488 135.191 14.7214 133.752 14.7214C132.289 14.7214 131.05 15.2407 130.036 16.2791C129.021 17.318 128.514 18.5446 128.514 19.9588C128.514 21.4706 129.015 22.7355 130.018 23.7536C131.02 24.7723 132.265 25.2815 133.752 25.2813C135.692 25.2813 137.24 24.5336 138.395 23.0383L136.856 21.8745C136.048 22.8686 135.045 23.3656 133.849 23.3656C133.073 23.3656 132.356 23.1292 131.697 22.6564C131.038 22.1837 130.616 21.434 130.43 20.4075H138.965C138.982 18.7264 138.476 17.3584 137.45 16.3036ZM133.752 16.6613C135.078 16.6613 136.08 17.3483 136.759 18.7222H130.648C131.27 17.3484 132.305 16.6614 133.752 16.6613Z" fill="url(#paint0_linear_310_77)"/>
<g clip-path="url(#clip1_310_77)">
<path fill-rule="evenodd" clip-rule="evenodd" d="M23.3463 6.20501C22.9135 6.62128 17.1613 12.2447 17.0952 17.1228C17.0609 19.7941 18.7587 23.4416 23.372 23.4501V23.4414C27.9744 23.4109 29.6658 19.7806 29.623 17.1142C29.557 12.2444 23.8047 6.62127 23.372 6.20501V6.18042C23.372 6.18042 23.3676 6.18455 23.3591 6.19268C23.3506 6.18455 23.3463 6.18042 23.3463 6.18042V6.20501ZM23.3463 22.1129V22.1059C23.3463 22.1059 28.3625 21.8833 28.1653 16.7631C28.0157 12.7045 23.6277 8.54123 23.3591 8.29009C23.0906 8.54123 18.7026 12.7047 18.5529 16.7717C18.364 21.6771 22.9604 22.0872 23.3463 22.1129Z" fill="#225474"/>
<path d="M28.165 12.3794C28.1307 12.3195 28.1307 12.1911 28.0707 12.1996C27.4447 12.2852 26.8102 12.5935 26.8102 12.5935L26.8016 12.6106C26.8445 12.6877 26.8959 12.7818 26.9474 12.8675C27.6162 14.0833 28.1221 15.4275 28.1736 16.7632C28.3279 20.7446 25.3267 21.7635 23.9805 22.0203L23.5518 23.4416C23.8347 23.4416 23.9033 23.4245 24.1691 23.3988C28.165 22.9878 29.657 19.6229 29.6227 17.1143C29.6055 15.5474 28.9967 13.9035 28.165 12.3794Z" fill="#349C9E"/>
<path fill-rule="evenodd" clip-rule="evenodd" d="M35.2739 10.9159L35.2901 10.8982C35.2901 10.8982 35.2905 10.904 35.2913 10.9155C35.2962 10.9154 35.2987 10.9153 35.2987 10.9153L35.2918 10.9228C35.3254 11.4267 35.8105 19.5277 32.5462 23.2019C30.7812 25.1952 27.0731 26.744 23.6541 23.6549L23.6456 23.6642C20.2414 20.5476 21.4504 16.7118 23.2768 14.7682C26.6408 11.1936 34.7681 10.929 35.2739 10.9159ZM33.8675 12.4652C33.5123 12.4696 27.4517 12.5875 24.5974 15.4875C21.1712 18.9657 24.2404 22.3426 24.5252 22.656C24.5307 22.662 24.5351 22.6669 24.5385 22.6706L24.5459 22.6625C24.8546 22.9365 28.4731 26.0017 31.8345 22.0203C34.3924 18.9857 33.925 13.0878 33.869 12.4811L33.6866 12.6791L33.8689 12.4797C33.8684 12.4745 33.8679 12.4696 33.8675 12.4652Z" fill="#55C595"/>
</g>
</g>
<defs>
<linearGradient id="paint0_linear_310_77" x1="138.965" y1="17.0914" x2="40.6272" y2="17.0914" gradientUnits="userSpaceOnUse">
<stop stop-color="#55C595"/>
<stop offset="1" stop-color="#215274"/>
</linearGradient>
<clipPath id="clip0_310_77">
<rect width="122" height="19.4538" fill="white" transform="translate(17 6)"/>
</clipPath>
<clipPath id="clip1_310_77">
<rect width="18.35" height="19.3503" fill="white" transform="translate(17.0342 6.10352)"/>
</clipPath>
</defs>
</svg>
