<svg width="13" height="12" viewBox="0 0 13 12" fill="none" xmlns="http://www.w3.org/2000/svg">
<path d="M12.5 6C12.5 2.68644 9.81356 0 6.5 0C3.18644 0 0.5 2.68644 0.5 6C0.5 9.31356 3.18644 12 6.5 12C9.81356 12 12.5 9.31356 12.5 6ZM5.23077 8.13865V3.86135C5.23084 3.77369 5.25586 3.68787 5.30292 3.61392C5.34997 3.53998 5.41711 3.48095 5.49648 3.44376C5.57586 3.40658 5.66418 3.39276 5.75111 3.40392C5.83805 3.41509 5.92001 3.45078 5.9874 3.50683L8.55731 5.64519C8.60937 5.68851 8.65126 5.74275 8.68001 5.80406C8.70877 5.86538 8.72367 5.93228 8.72367 6C8.72367 6.06772 8.70877 6.13462 8.68001 6.19594C8.65126 6.25726 8.60937 6.31149 8.55731 6.35481L5.9874 8.49317C5.92001 8.54922 5.83805 8.58491 5.75111 8.59608C5.66418 8.60724 5.57586 8.59342 5.49648 8.55624C5.41711 8.51905 5.34997 8.46002 5.30292 8.38607C5.25586 8.31213 5.23084 8.22631 5.23077 8.13865V8.13865Z" fill="#225474"/>
</svg>
