<svg width="12" height="12" viewBox="0 0 12 12" fill="none" xmlns="http://www.w3.org/2000/svg">
<path fill-rule="evenodd" clip-rule="evenodd" d="M11.0313 0.540667L6.53138 0.510753C6.25524 0.508918 6.0299 0.731282 6.02807 1.00742C6.02623 1.28355 6.2486 1.5089 6.52473 1.51073L9.81755 1.53262L5.6488 5.64631C5.45225 5.84027 5.45014 6.15685 5.6441 6.3534C5.83806 6.54996 6.15464 6.55206 6.3512 6.3581L10.5199 2.24441L10.4981 5.53723C10.4962 5.81337 10.7186 6.03871 10.9947 6.04055C11.2709 6.04238 11.4962 5.82002 11.498 5.54388L11.5279 1.04398C11.5298 0.767843 11.3074 0.542503 11.0313 0.540667ZM1.54102 3.03743C1.54102 2.76129 1.76487 2.53743 2.04102 2.53743H3.53883C3.81497 2.53743 4.03883 2.31357 4.03883 2.03743C4.03883 1.76129 3.81497 1.53743 3.53883 1.53743H2.04102C1.21259 1.53743 0.541016 2.209 0.541016 3.03743V10.0296C0.541016 10.858 1.21259 11.5296 2.04102 11.5296H9.03315C9.86157 11.5296 10.5331 10.858 10.5331 10.0296V8.53175C10.5331 8.2556 10.3093 8.03175 10.0331 8.03175C9.757 8.03175 9.53315 8.2556 9.53315 8.53175V10.0296C9.53315 10.3057 9.30929 10.5296 9.03315 10.5296H2.04102C1.76487 10.5296 1.54102 10.3057 1.54102 10.0296V3.03743Z" fill="#205072"/>
</svg>
