<svg width="649" height="103" viewBox="0 0 649 103" fill="none" xmlns="http://www.w3.org/2000/svg">
<g clip-path="url(#clip0)">
<path fill-rule="evenodd" clip-rule="evenodd" d="M173.455 54.5536C168.003 48.9689 161.456 46.1766 153.814 46.1766C146.043 46.1766 139.464 48.9257 134.077 54.4239C128.688 59.9245 125.995 66.4186 125.995 73.9062C125.995 81.9106 128.657 88.6081 133.98 93.9985C139.303 99.392 145.914 102.088 153.814 102.087C164.118 102.087 172.339 98.1283 178.478 90.2109L170.3 84.0492C166.006 89.3124 160.683 91.944 154.33 91.944C150.208 91.944 146.398 90.6924 142.899 88.1893C139.4 85.6861 137.157 81.7171 136.17 76.2822H181.505C181.59 67.3811 178.907 60.1382 173.455 54.5536ZM153.814 56.4474C160.855 56.4474 166.178 60.0846 169.785 67.3592H137.329C140.634 60.0852 146.129 56.448 153.814 56.4474ZM217.631 15.3643C212.436 15.3643 208.283 17.1582 205.171 20.7462C202.059 24.3341 200.502 29.139 200.502 35.1607V47.6522H190.714V57.8591H200.502V100.611H211.707V57.8591H226.454V47.6522H211.707V34.4046C211.707 31.8023 212.265 29.7757 213.381 28.3251C214.497 26.8744 216.043 26.1488 218.018 26.1482C220.378 26.1482 223.19 27.2397 226.454 29.4227V18.1237C223.147 16.2853 220.207 15.3655 217.631 15.3643ZM261.55 15.3643C256.355 15.3643 252.201 17.1582 249.089 20.7462C245.977 24.3341 244.421 29.139 244.42 35.1607V47.6522H234.632V57.8591H244.42V100.611H255.625V57.8591H270.372V47.6522H255.625V34.4046C255.625 31.8023 256.184 29.7757 257.3 28.3251C258.416 26.8744 259.962 26.1488 261.936 26.1482C264.297 26.1482 267.109 27.2397 270.372 29.4227V18.1237C267.066 16.2853 264.125 15.3655 261.55 15.3643ZM282.736 36.2911C283.536 37.0959 284.489 37.7321 285.54 38.162C286.591 38.5918 287.718 38.8064 288.854 38.7931C291.173 38.7931 293.18 37.9591 294.875 36.2911C295.693 35.5142 296.341 34.5772 296.779 33.5389C297.217 32.5006 297.434 31.3834 297.418 30.2573C297.418 27.9452 296.571 25.9443 294.875 24.2544C293.18 22.5645 291.173 21.7196 288.854 21.7196C286.493 21.7196 284.453 22.5645 282.736 24.2544C281.019 25.9443 280.161 27.9452 280.161 30.2573C280.161 32.6113 281.019 34.6226 282.736 36.2911ZM283.316 100.611H294.392V47.6522H283.316V100.611ZM334.512 90.8538C329.789 90.8538 325.796 89.1742 322.534 85.8152C319.272 82.4561 317.64 78.3154 317.639 73.3931C317.639 69.0284 319.378 65.2194 322.856 61.9663C326.334 58.7156 330.39 57.0896 335.027 57.0884C340.05 57.0884 345.374 58.886 350.997 62.4813V50.0281C345.759 47.4604 340.672 46.1766 335.736 46.1766C327.449 46.1766 320.558 48.8831 315.063 54.2961C309.568 59.7109 306.821 66.5258 306.82 74.7408C306.82 81.9746 309.579 88.3402 315.096 93.8378C320.612 99.3385 327.041 102.088 334.382 102.087C339.748 102.087 345.286 100.461 350.997 97.2091V84.4345C344.816 88.7134 339.321 90.8531 334.512 90.8538ZM406.637 58.4361C404.576 54.8001 401.677 51.8477 397.942 49.5789C394.208 47.3107 390.259 46.1766 386.094 46.1766C379.354 46.1766 373.482 48.9476 368.48 54.4896C363.478 60.0317 360.977 66.5039 360.978 73.9062C360.978 81.739 363.457 88.3938 368.416 93.8707C373.375 99.3476 379.353 102.086 386.35 102.087C394.422 102.087 401.184 98.0857 406.637 90.0831V100.611H417.841V47.6522H406.637V58.4361ZM402.956 86.7137C399.471 90.2018 395.299 91.9452 390.439 91.944C385.537 91.944 381.365 90.1896 377.924 86.6808C374.484 83.172 372.764 78.9138 372.764 73.9062C372.764 69.2858 374.527 65.2632 378.053 61.8384C381.579 58.4161 385.708 56.7043 390.439 56.703C395.3 56.703 399.473 58.4258 402.956 61.8713C406.439 65.3168 408.181 69.4569 408.181 74.2916C408.181 79.0855 406.439 83.2261 402.956 86.7137ZM449.846 46.1766C444.822 46.1766 440.648 47.6412 437.322 50.5705C433.993 53.5017 432.329 57.1694 432.329 61.5736C432.329 65.1239 433.499 68.1067 435.84 70.5222C438.179 72.9402 442.397 75.3283 448.494 77.6866C454.59 80.0448 457.638 82.7008 457.637 85.6544C457.637 87.3236 456.768 88.7895 455.03 90.052C453.292 91.3146 451.264 91.9452 448.944 91.944C445.595 91.944 442.376 90.4465 439.286 87.4515L430.463 91.6884C435.27 98.6208 441.43 102.087 448.944 102.087C453.882 102.087 458.175 100.431 461.824 97.1178C465.473 93.805 467.297 89.9254 467.298 85.4791C467.298 81.6733 466.031 78.4243 463.498 75.7325C460.965 73.0406 456.811 70.5654 451.037 68.307C445.262 66.0498 442.375 63.7225 442.376 61.3253C442.376 57.9869 444.652 56.3177 449.203 56.3177C451.134 56.3177 452.808 56.6708 454.224 57.3769C455.975 58.2877 457.654 59.3286 459.248 60.4907L466.717 53.9436C460.492 48.7662 454.868 46.1772 449.846 46.1766ZM523.322 58.4361C521.261 54.8001 518.364 51.8477 514.629 49.5789C510.895 47.3101 506.945 46.176 502.78 46.1766C496.039 46.1766 490.169 48.9476 485.168 54.4896C480.167 60.0317 477.666 66.5039 477.666 73.9062C477.666 81.739 480.145 88.3938 485.104 93.8707C490.062 99.3476 496.041 102.086 503.038 102.087C511.108 102.087 517.87 98.0857 523.322 90.0831V100.611H534.527V47.6522H523.322V58.4361ZM519.642 86.7137C516.159 90.2018 511.987 91.9452 507.127 91.944C502.224 91.944 498.052 90.1896 494.61 86.6808C491.168 83.172 489.448 78.9138 489.449 73.9062C489.449 69.2858 491.213 65.2632 494.74 61.8384C498.267 58.4161 502.396 56.7043 507.127 56.703C511.987 56.703 516.159 58.4258 519.642 61.8713C523.125 65.3168 524.867 69.4569 524.869 74.2916C524.869 79.0855 523.126 83.2261 519.642 86.7137ZM574.583 15.3643C569.388 15.3643 565.234 17.1582 562.122 20.7462C559.01 24.3341 557.454 29.139 557.454 35.1607V47.6522H547.665V57.8591H557.454V100.611H568.659V57.8591H583.405V47.6522H568.659V34.4046C568.659 31.8023 569.217 29.7757 570.333 28.3251C571.449 26.8744 572.994 26.1488 574.968 26.1482C577.33 26.1482 580.142 27.2397 583.405 29.4227V18.1237C580.098 16.2853 577.158 15.3655 574.583 15.3643ZM640.266 54.5536C634.814 48.9689 628.268 46.1766 620.627 46.1766C612.855 46.1766 606.276 48.9257 600.888 54.4239C595.5 59.9245 592.806 66.4186 592.807 73.9062C592.807 81.9106 595.468 88.6081 600.791 93.9985C606.115 99.392 612.727 102.088 620.627 102.087C630.93 102.087 639.151 98.1283 645.29 90.2109L637.112 84.0492C632.819 89.3124 627.496 91.944 621.142 91.944C617.019 91.944 613.209 90.6924 609.711 88.1893C606.213 85.6861 603.97 81.7171 602.982 76.2822H648.317C648.403 67.3811 645.719 60.1382 640.266 54.5536ZM620.627 56.4474C627.667 56.4474 632.991 60.0846 636.597 67.3592H604.14C607.445 60.0852 612.941 56.448 620.627 56.4474Z" fill="url(#paint0_linear)"/>
<g clip-path="url(#clip1)">
<path fill-rule="evenodd" clip-rule="evenodd" d="M34.2041 1.08602C31.9053 3.29013 1.35261 33.0639 1.00197 58.8911C0.819788 73.035 9.83763 92.3467 34.3407 92.3921V92.346C58.7861 92.1846 67.7701 72.9634 67.5428 58.8458C67.1922 33.0622 36.6395 3.29007 34.3407 1.08602V0.955811C34.3407 0.955811 34.3175 0.977662 34.2724 1.0207C34.2273 0.977662 34.2041 0.955811 34.2041 0.955811V1.08602ZM34.2041 85.3121V85.2748C34.2041 85.2748 60.8477 84.0962 59.8002 56.9871C59.0055 35.4982 35.6989 13.4554 34.2724 12.1257C32.8459 13.4554 9.53927 35.4996 8.74457 57.0325C7.74097 83.0046 32.1547 85.1757 34.2041 85.3121Z" fill="#225474"/>
<path d="M59.8002 33.7769C59.618 33.4596 59.618 32.7796 59.2992 32.8249C55.9744 33.2782 52.6041 34.9102 52.6041 34.9102L52.5586 35.0009C52.7863 35.4089 53.0596 35.9075 53.3328 36.3609C56.8853 42.7981 59.5724 49.9154 59.8457 56.9873C60.6655 78.067 44.7249 83.4616 37.5744 84.8216L35.2971 92.3469C36.8001 92.3469 37.1645 92.2562 38.5763 92.1202C59.8002 89.9442 67.7249 72.1285 67.5428 58.8459C67.4517 50.55 64.218 41.8461 59.8002 33.7769Z" fill="#349C9E"/>
<path fill-rule="evenodd" clip-rule="evenodd" d="M97.5619 26.0283L97.648 25.9343C97.648 25.9343 97.6503 25.9653 97.6544 26.026C97.6803 26.0254 97.6934 26.0252 97.6934 26.0252L97.657 26.0648C97.8355 28.7331 100.412 71.6243 83.0737 91.0776C73.6993 101.631 54.0036 109.832 35.8439 93.4759L35.7982 93.5257C17.7169 77.0246 24.1387 56.7155 33.8398 46.4249C51.7075 27.4986 94.8747 26.0975 97.5619 26.0283ZM90.092 34.2313C88.2075 34.2547 56.015 34.8781 40.8536 50.2329C22.6559 68.6486 38.9577 86.5283 40.4703 88.1873C40.4994 88.2192 40.523 88.2451 40.5408 88.2649L40.5805 88.2216C42.2201 89.6722 61.44 105.901 79.2935 84.8216C92.8799 68.7544 90.3973 37.5279 90.0999 34.3155L89.131 35.3637L90.0992 34.3078C90.0966 34.2801 90.0942 34.2546 90.092 34.2313Z" fill="#55C595"/>
</g>
</g>
<defs>
<linearGradient id="paint0_linear" x1="648.317" y1="58.7247" x2="125.996" y2="58.7247" gradientUnits="userSpaceOnUse">
<stop stop-color="#55C595"/>
<stop offset="1" stop-color="#215274"/>
</linearGradient>
<clipPath id="clip0">
<rect width="648" height="103" fill="white" transform="translate(0.5)"/>
</clipPath>
<clipPath id="clip1">
<rect width="97.4656" height="102.452" fill="white" transform="translate(0.683105 0.547852)"/>
</clipPath>
</defs>
</svg>
