    <svg width="24" height="24" viewBox="0 0 16 16" fill="none" xmlns="http://www.w3.org/2000/svg">
                <rect x="1.75" y="2" width="12.5" height="12.5" rx="6.25" fill="#205072" />
                <path
                  fill-rule="evenodd"
                  clip-rule="evenodd"
                  d="M8 5C8.12314 5 8.24123 5.04892 8.3283 5.13599C8.41537 5.22306 8.46429 5.34115 8.46429 5.46429V7.78571H10.7857C10.9089 7.78571 11.0269 7.83463 11.114 7.9217C11.2011 8.00877 11.25 8.12686 11.25 8.25C11.25 8.37314 11.2011 8.49123 11.114 8.5783C11.0269 8.66537 10.9089 8.71429 10.7857 8.71429H8.46429V11.0357C8.46429 11.1589 8.41537 11.2769 8.3283 11.364C8.24123 11.4511 8.12314 11.5 8 11.5C7.87686 11.5 7.75877 11.4511 7.6717 11.364C7.58463 11.2769 7.53571 11.1589 7.53571 11.0357V8.71429H5.21429C5.09115 8.71429 4.97306 8.66537 4.88599 8.5783C4.79892 8.49123 4.75 8.37314 4.75 8.25C4.75 8.12686 4.79892 8.00877 4.88599 7.9217C4.97306 7.83463 5.09115 7.78571 5.21429 7.78571H7.53571V5.46429C7.53571 5.34115 7.58463 5.22306 7.6717 5.13599C7.75877 5.04892 7.87686 5 8 5Z"
                  fill="white"
                />
              </svg>