<svg width="35" height="32" viewBox="0 0 35 32" fill="none" xmlns="http://www.w3.org/2000/svg">
<path d="M0 0H19C27.8366 0 35 7.16344 35 16C35 24.8366 27.8366 32 19 32H0V0Z" fill="#E2F0F0"/>
<g clip-path="url(#clip0_310_77)">
<path fill-rule="evenodd" clip-rule="evenodd" d="M14.5345 6.10502C14.0863 6.53538 8.1304 12.3476 8.06205 17.3893C8.02654 20.1504 9.78448 23.9203 14.5611 23.9291V23.9202C19.3265 23.8886 21.0779 20.1364 21.0335 17.3805C20.9652 12.3472 15.0093 6.53537 14.5611 6.10502V6.07959C14.5611 6.07959 14.5566 6.08386 14.5478 6.09227C14.539 6.08386 14.5345 6.07959 14.5345 6.07959V6.10502ZM14.5345 22.547V22.5398C14.5345 22.5398 19.7284 22.3097 19.5242 17.0176C19.3693 12.8227 14.8259 8.51974 14.5478 8.2601C14.2697 8.51974 9.72631 12.823 9.5714 17.0265C9.37576 22.0965 14.1349 22.5204 14.5345 22.547Z" fill="#225474"/>
<path d="M19.5247 12.4867C19.4892 12.4247 19.4892 12.292 19.427 12.3008C18.7789 12.3893 18.1219 12.7079 18.1219 12.7079L18.113 12.7256C18.1574 12.8053 18.2107 12.9026 18.2639 12.9911C18.9565 14.2477 19.4803 15.6371 19.5336 17.0177C19.6934 21.1327 16.5859 22.1858 15.192 22.4513L14.748 23.9203C15.041 23.9203 15.1121 23.9026 15.3873 23.8761C19.5247 23.4513 21.0695 19.9734 21.034 17.3805C21.0163 15.761 20.3859 14.0619 19.5247 12.4867Z" fill="#349C9E"/>
<path fill-rule="evenodd" clip-rule="evenodd" d="M26.8853 10.9741L26.9021 10.9558C26.9021 10.9558 26.9025 10.9618 26.9033 10.9737C26.9084 10.9736 26.9109 10.9735 26.9109 10.9735L26.9038 10.9813C26.9386 11.5021 27.4409 19.8751 24.0609 23.6726C22.2335 25.7329 18.394 27.3337 14.8539 24.1408L14.845 24.1505C11.3203 20.9293 12.5721 16.9647 14.4633 14.9558C17.9464 11.2611 26.3616 10.9876 26.8853 10.9741ZM25.4291 12.5754C25.0614 12.58 18.786 12.7018 15.8306 15.6992C12.2831 19.2942 15.461 22.7845 15.7558 23.1084C15.7615 23.1146 15.7661 23.1197 15.7696 23.1235L15.7773 23.1151C16.0969 23.3983 19.8436 26.5664 23.324 22.4514C25.9726 19.3148 25.4886 13.219 25.4306 12.5919L25.2418 12.7965L25.4305 12.5904C25.43 12.585 25.4295 12.58 25.4291 12.5754Z" fill="#55C595"/>
</g>
<defs>
<clipPath id="clip0_310_77">
<rect width="19" height="20" fill="white" transform="translate(8 6)"/>
</clipPath>
</defs>
</svg>
