 <svg width="35" height="58" viewBox="0 0 35 58" fill="none" xmlns="http://www.w3.org/2000/svg">
            <rect x="7.88867" y="5.17188" width="19.551" height="3.95273" rx="1.97636" fill="#6F818E" />
            <mask id="path-2-outside-1_1873_1472" maskUnits="userSpaceOnUse" x="0.802734" y="11.7676" width="34" height="46" fill="black">
              <rect fill="white" x="0.802734" y="11.7676" width="34" height="46" />
              <path d="M2.80273 21.7676C2.80273 17.3493 6.38446 13.7676 10.8027 13.7676H24.5272C28.9455 13.7676 32.5273 17.3493 32.5273 21.7676V47.0098C32.5273 51.428 28.9455 55.0098 24.5273 55.0098H10.8027C6.38447 55.0098 2.80273 51.428 2.80273 47.0098V21.7676Z" />
            </mask>
            <path d="M2.80273 21.7676C2.80273 17.3493 6.38446 13.7676 10.8027 13.7676H24.5272C28.9455 13.7676 32.5273 17.3493 32.5273 21.7676V47.0098C32.5273 51.428 28.9455 55.0098 24.5273 55.0098H10.8027C6.38447 55.0098 2.80273 51.428 2.80273 47.0098V21.7676Z" fill="white" />
            <path
              d="M10.8027 15.7676H24.5272V11.7676H10.8027V15.7676ZM30.5273 21.7676V47.0098H34.5273V21.7676H30.5273ZM24.5273 53.0098H10.8027V57.0098H24.5273V53.0098ZM4.80273 47.0098V21.7676H0.802734V47.0098H4.80273ZM10.8027 53.0098C7.48903 53.0098 4.80273 50.3235 4.80273 47.0098H0.802734C0.802734 52.5326 5.2799 57.0098 10.8027 57.0098V53.0098ZM30.5273 47.0098C30.5273 50.3235 27.841 53.0098 24.5273 53.0098V57.0098C30.0501 57.0098 34.5273 52.5326 34.5273 47.0098H30.5273ZM24.5272 15.7676C27.841 15.7676 30.5273 18.4539 30.5273 21.7676H34.5273C34.5273 16.2447 30.0501 11.7676 24.5272 11.7676V15.7676ZM10.8027 11.7676C5.27989 11.7676 0.802734 16.2447 0.802734 21.7676H4.80273C4.80273 18.4539 7.48903 15.7676 10.8027 15.7676V11.7676Z"
              fill="#6F818E"
              mask="url(#path-2-outside-1_1873_1472)"
            />
            <rect x="7.19336" y="23.9941" width="4.39112" height="26.5859" rx="2.19556" fill="#6F818E" />
          </svg>
