<svg width="24" height="33" viewBox="0 0 24 33" fill="none" xmlns="http://www.w3.org/2000/svg">
<g opacity="0.998">
<path opacity="0.998" d="M22.0546 14.4213V14.4186C22.0546 8.10947 17.1398 3.95088 12.2926 2.12204C13.1585 2.88231 13.9751 3.71228 14.7355 4.60597C18.134 8.56823 20.3626 13.5518 21.178 18.8921C21.7534 17.5079 22.0589 15.9832 22.0546 14.4213Z" fill="white" stroke="#55C595" stroke-width="2"/>
<path opacity="0.998" d="M17.655 31.7865C17.7174 31.7688 17.7644 31.7475 17.7969 31.7286V27.4845C17.5279 27.5739 17.2562 27.6593 16.982 27.7404V31.7286C17.0146 31.7475 17.0615 31.7688 17.1239 31.7865C17.2022 31.8087 17.2931 31.8219 17.3895 31.8219C17.4859 31.8219 17.5768 31.8087 17.655 31.7865Z" fill="white" stroke="#55C595" stroke-width="2"/>
<path opacity="0.998" d="M11.9693 7.24854L11.9575 7.23482L11.9462 7.22068C9.12995 3.69011 5.22731 1.54659 1.07214 1.189C2.95729 2.5564 3.85501 4.24029 4.21487 6.11017C4.56224 7.91509 4.40523 9.89903 4.25111 11.8465L4.24464 11.9283L4.23962 11.9917L4.22661 12.054C3.86693 13.7757 3.86478 15.5678 4.2204 17.2906C4.57242 18.9959 5.26438 20.5822 6.23755 21.9318C7.75953 23.6136 9.73111 24.6444 11.8173 24.8828C13.9103 25.1219 16.024 24.553 17.8086 23.2497V23.2342C17.7478 17.2511 15.6507 11.5361 11.9693 7.24854ZM0.978153 1.12167L0.978539 1.12194L0.978153 1.12167Z" fill="white" stroke="#55C595" stroke-width="2"/>
</g>
</svg>
