<svg width="48" height="62" viewBox="0 0 48 62" fill="none" xmlns="http://www.w3.org/2000/svg">
<g opacity="0.998">
<path opacity="0.998" d="M1.0001 26.8943V26.8913C1.0001 19.9195 4.41695 14.3469 9.30957 10.164C14.2149 5.97017 20.5558 3.22247 26.2136 1.95627C26.4905 1.89493 26.768 1.83602 27.0459 1.77956C23.7875 3.83879 20.7903 6.30072 18.1269 9.11263C10.4746 17.1261 5.70853 27.448 4.53596 38.4402C2.2319 35.057 0.987553 31.0338 1.0001 26.8943Z" fill="white" stroke="#55C595" stroke-width="2"/>
<path opacity="0.998" d="M9.88993 59.5462C9.84117 59.4737 9.83789 59.4313 9.83789 59.4159V49.9952C11.0883 50.4069 12.3714 50.7784 13.6823 51.1083V59.4159C13.6823 59.4313 13.679 59.4737 13.6302 59.5462C13.5783 59.6234 13.4774 59.7284 13.3021 59.8363C13.1281 59.9434 12.9019 60.04 12.6313 60.109C12.3614 60.1778 12.0646 60.2149 11.7601 60.2149C11.4555 60.2149 11.1587 60.1778 10.8888 60.109C10.6182 60.04 10.3921 59.9434 10.218 59.8363C10.0427 59.7284 9.94188 59.6234 9.88993 59.5462Z" fill="white" stroke="#55C595" stroke-width="2"/>
<path opacity="0.998" d="M22.1624 12.9943L22.175 12.981L22.1872 12.9673C28.3184 6.0631 36.9167 1.87603 46.106 1.31673C46.268 1.32142 46.4252 1.37631 46.5559 1.47483C46.6915 1.57697 46.7915 1.72073 46.8405 1.8854C46.8845 2.04992 46.8752 2.22427 46.8142 2.383C46.7525 2.54361 46.6413 2.67916 46.4979 2.77021L46.4975 2.77045C42.6983 5.18529 40.8992 8.16311 40.1761 11.5382C39.4767 14.8029 39.7949 18.4164 40.1185 22.0915L40.1269 22.187L40.1331 22.2572L40.1491 22.3258C40.9196 25.6388 40.9242 29.0851 40.1624 32.4001C39.4045 35.6983 37.9081 38.7788 35.7877 41.4077C32.4677 44.7199 28.1177 46.7874 23.4639 47.265C18.797 47.744 14.1079 46.5951 10.1838 44.0108C10.0603 43.9251 9.93716 43.8386 9.81445 43.7512V43.3284C9.9415 32.0066 14.3574 21.1594 22.1624 12.9943Z" fill="white" stroke="#55C595" stroke-width="2"/>
</g>
</svg>
