<svg width="35" height="53" viewBox="0 0 35 53" fill="none" xmlns="http://www.w3.org/2000/svg">
<rect x="7.88867" y="0.171875" width="19.551" height="3.95273" rx="1.97636" fill="#55C595"/>
<mask id="path-2-outside-1_2166_1661" maskUnits="userSpaceOnUse" x="0.802734" y="6.76758" width="34" height="46" fill="black">
<rect fill="white" x="0.802734" y="6.76758" width="34" height="46"/>
<path d="M2.80273 16.7676C2.80273 12.3493 6.38446 8.76758 10.8027 8.76758H24.5272C28.9455 8.76758 32.5273 12.3493 32.5273 16.7676V42.0098C32.5273 46.428 28.9455 50.0098 24.5273 50.0098H10.8027C6.38447 50.0098 2.80273 46.428 2.80273 42.0098V16.7676Z"/>
</mask>
<path d="M2.80273 16.7676C2.80273 12.3493 6.38446 8.76758 10.8027 8.76758H24.5272C28.9455 8.76758 32.5273 12.3493 32.5273 16.7676V42.0098C32.5273 46.428 28.9455 50.0098 24.5273 50.0098H10.8027C6.38447 50.0098 2.80273 46.428 2.80273 42.0098V16.7676Z" fill="white"/>
<path d="M10.8027 10.7676H24.5272V6.76758H10.8027V10.7676ZM30.5273 16.7676V42.0098H34.5273V16.7676H30.5273ZM24.5273 48.0098H10.8027V52.0098H24.5273V48.0098ZM4.80273 42.0098V16.7676H0.802734V42.0098H4.80273ZM10.8027 48.0098C7.48903 48.0098 4.80273 45.3235 4.80273 42.0098H0.802734C0.802734 47.5326 5.2799 52.0098 10.8027 52.0098V48.0098ZM30.5273 42.0098C30.5273 45.3235 27.841 48.0098 24.5273 48.0098V52.0098C30.0501 52.0098 34.5273 47.5326 34.5273 42.0098H30.5273ZM24.5272 10.7676C27.841 10.7676 30.5273 13.4539 30.5273 16.7676H34.5273C34.5273 11.2447 30.0501 6.76758 24.5272 6.76758V10.7676ZM10.8027 6.76758C5.27989 6.76758 0.802734 11.2447 0.802734 16.7676H4.80273C4.80273 13.4539 7.48903 10.7676 10.8027 10.7676V6.76758Z" fill="#55C595" mask="url(#path-2-outside-1_2166_1661)"/>
<rect x="7.19336" y="18.9941" width="4.39112" height="26.5859" rx="2.19556" fill="#55C595"/>
</svg>
